STARTFONT 2.1
COMMENT
COMMENT Converted from OpenType font "manrope-medium.otf" by "otf2bdf 3.0".
COMMENT
FONT -FreeType-Manrope Medium-Medium-R-Normal--86-620-100-100-P-393-ISO10646-1
SIZE 62 100 100
FONTBOUNDINGBOX 84 108 -3 -21
STARTPROPERTIES 19
FOUNDRY "FreeType"
FAMILY_NAME "Manrope Medium"
WEIGHT_NAME "Medium"
SLANT "R"
SETWIDTH_NAME "Normal"
ADD_STYLE_NAME ""
PIXEL_SIZE 86
POINT_SIZE 620
RESOLUTION_X 100
RESOLUTION_Y 100
SPACING "P"
AVERAGE_WIDTH 393
CHARSET_REGISTRY "ISO10646"
CHARSET_ENCODING "1"
FONT_ASCENT 91
FONT_DESCENT 25
COPYRIGHT "Copyright 2019-2021 The Manrope Project Authors (https://github.com/sharanda/manrope)"
_OTF_FONTFILE "manrope-medium.otf"
_OTF_PSNAME "Manrope-Medium"
ENDPROPERTIES
CHARS 191
STARTCHAR 0020
ENCODING 32
SWIDTH 197 0
DWIDTH 17 0
BBX 0 0 0 0
BITMAP
ENDCHAR
STARTCHAR 0021
ENCODING 33
SWIDTH 325 0
DWIDTH 28 0
BBX 8 62 10 0
BITMAP
FF
FF
FF
FF
FF
FF
FF
FF
FF
FF
FF
FF
FF
FF
FF
FF
FF
FF
FF
FF
FF
FF
FF
FF
FF
FF
FF
FF
FF
FF
FF
FF
FF
FF
FF
FF
FF
FF
FF
FF
FF
FF
FF
FF
FF
FF
FF
00
00
00
00
00
00
00
FF
FF
FF
FF
FF
FF
FF
FF
ENDCHAR
STARTCHAR 0022
ENCODING 34
SWIDTH 418 0
DWIDTH 36 0
BBX 22 16 5 46
BITMAP
FF01FC
FF01FC
FF01FC
FF01FC
FF01FC
FF01FC
FF01FC
FF01FC
FF01FC
FF01FC
FF01FC
FF01FC
FF01FC
FF01FC
FF01FC
FF01FC
ENDCHAR
STARTCHAR 0023
ENCODING 35
SWIDTH 929 0
DWIDTH 80 0
BBX 69 62 5 0
BITMAP
00000007F0007F8000
0000000FF0007F8000
0000000FF0007F0000
0000000FE0007F0000
0000000FE000FF0000
0000001FE000FF0000
0000001FE000FE0000
0000001FC001FE0000
0000001FC001FE0000
0000003FC001FC0000
0000003FC001FC0000
0000003F8003FC0000
0000007F8003FC0000
0000007F8003F80000
0000007F0003F80000
0000007F0007F80000
000000FF0007F80000
01FFFFFFFFFFFFFFF8
01FFFFFFFFFFFFFFF8
01FFFFFFFFFFFFFFF8
03FFFFFFFFFFFFFFF0
03FFFFFFFFFFFFFFF0
03FFFFFFFFFFFFFFF0
03FFFFFFFFFFFFFFF0
000003FC001FC00000
000003FC001FC00000
000003F8003FC00000
000007F8003FC00000
000007F8003F800000
000007F0003F800000
000007F0007F800000
00000FF0007F800000
00000FF0007F000000
00000FE000FF000000
00000FE000FF000000
00001FE000FF000000
00001FE000FE000000
3FFFFFFFFFFFFFFF00
3FFFFFFFFFFFFFFF00
7FFFFFFFFFFFFFFE00
7FFFFFFFFFFFFFFE00
7FFFFFFFFFFFFFFE00
7FFFFFFFFFFFFFFE00
FFFFFFFFFFFFFFFC00
00007F0003F8000000
00007F0007F8000000
0000FF0007F8000000
0000FF0007F0000000
0000FE000FF0000000
0000FE000FF0000000
0001FE000FF0000000
0001FE000FE0000000
0001FC001FE0000000
0003FC001FE0000000
0003FC001FC0000000
0003FC001FC0000000
0003F8003FC0000000
0007F8003FC0000000
0007F8003F80000000
0007F0003F80000000
0007F0007F80000000
000FF0007F80000000
ENDCHAR
STARTCHAR 0024
ENCODING 36
SWIDTH 603 0
DWIDTH 52 0
BBX 46 80 3 -9
BITMAP
00001FE00000
00001FE00000
00001FE00000
00001FE00000
00001FE00000
00001FE00000
00001FE00000
00001FE00000
0000FFF80000
0007FFFF8000
001FFFFFE000
007FFFFFF000
00FFFFFFFC00
01FFFFFFFE00
03FFFFFFFF00
07FFC01FFF80
07FF0003FFC0
0FFC0000FFC0
0FF800007FE0
1FF000003FE0
1FE000001FF0
1FE000001FF0
1FC000000FF8
3FC0000007F8
3FC0000007F8
3FC0000007F8
3FC0000003C0
3FC000000000
1FE000000000
1FF000000000
1FF800000000
0FFC00000000
0FFF00000000
07FFE0000000
07FFFC000000
03FFFF800000
01FFFFF80000
007FFFFF0000
001FFFFFE000
0007FFFFF800
0001FFFFFE00
00001FFFFF00
000003FFFFC0
0000007FFFC0
0000000FFFE0
00000001FFF0
000000007FF0
000000001FF8
000000000FF8
0000000007F8
0000000003FC
0000000003FC
0000000003FC
3F00000003FC
FF00000003FC
FF00000003FC
7F80000003FC
7FC0000003F8
7FC0000007F8
3FE0000007F8
3FF000000FF8
1FF800001FF0
1FFE00003FF0
0FFF8000FFE0
07FFF007FFC0
03FFFFFFFF80
01FFFFFFFF00
00FFFFFFFE00
003FFFFFFC00
001FFFFFF000
0007FFFFC000
00007FFC0000
00001FE00000
00001FE00000
00001FE00000
00001FE00000
00001FE00000
00001FE00000
00001FE00000
00001FE00000
ENDCHAR
STARTCHAR 0025
ENCODING 37
SWIDTH 905 0
DWIDTH 78 0
BBX 67 64 5 -1
BITMAP
000FE0000000000000
007FFC000000001000
01FFFF000000003800
03FFFF800000007C00
07FFFFE0000000FE00
0FFFFFE0000001FF00
1FFFFFF0000003FF80
3FF01FF8000007FF00
3FE007F800000FFE00
7F8003FC00001FFC00
7F0001FC00003FF800
7F0001FE00007FF000
FE0000FE0000FFE000
FE0000FE0001FFC000
FE0000FE0003FF8000
FE0000FE0007FF0000
FE0000FE000FFE0000
FE0000FE001FFC0000
FF0000FE003FF80000
7F0001FE007FF00000
7F8001FC00FFE00000
7FC003FC01FFC00000
3FE00FF803FF800000
3FF83FF807FF000000
1FFFFFF00FFE000000
0FFFFFE01FFC000000
07FFFFC03FF8000000
03FFFF807FE0000000
00FFFF00FFC0000000
007FFC01FF80000000
0007C003FF00000000
00000007FE00000000
0000000FFC00000000
0000001FF8007C0000
0000003FF003FFC000
0000007FE00FFFF000
000000FFC01FFFF800
000001FF807FFFFE00
000003FF00FFFFFF00
000007FE00FFFFFF00
00000FFC01FF81FF80
00001FF803FE007FC0
00003FF003FC003FC0
00007FE007F8001FE0
0000FFC007F0000FE0
0001FF8007F0000FE0
0003FF0007E0000FE0
0007FE000FE00007E0
000FFC000FE00007E0
001FF8000FE00007E0
003FF0000FE0000FE0
007FE00007F0000FE0
00FFC00007F0000FE0
01FF800007F8001FE0
03FF000003FC003FC0
07FE000003FE007FC0
0FFC000001FF01FF80
1FF8000001FFFFFF80
0FF0000000FFFFFF00
07E00000007FFFFE00
03C00000003FFFFC00
03800000001FFFF000
010000000007FFE000
000000000000FF0000
ENDCHAR
STARTCHAR 0026
ENCODING 38
SWIDTH 661 0
DWIDTH 57 0
BBX 51 64 4 -1
BITMAP
00007FE0000000
0003FFFE000000
000FFFFF800000
003FFFFFC00000
007FFFFFF00000
00FFFFFFF80000
01FFFFFFFC0000
03FFF0FFFC0000
03FF800FFE0000
07FE0003FE0000
07FC0001FF0000
0FF80000FE0000
0FF00000F00000
0FF00000000000
0FF00000000000
0FF00000000000
0FF00000000000
0FF00000000000
0FF00000000000
0FF00000000000
0FF00000000000
0FF80000000000
07F80000000000
07FC0000000000
03FE0000000000
03FF0000000000
01FF8000000000
00FFC000000000
007FE000000000
003FF000000000
00FFF800000000
03FFFC00000000
07FFFF0007F800
0FFFFF8007F800
1FFFFFC007F800
1FFCFFE003F800
3FF03FF003F800
3FE01FF803F800
7FC00FFC03F800
7F8007FE03F800
7F8003FF03F800
7F8001FF83F800
FF0000FFC3F800
FF00007FE7F000
FF00003FF7F000
FF00001FFFF000
FF000007FFF000
FF000003FFF000
7F800001FFF000
7F800000FFF000
7F8000007FF000
7FC000003FF000
3FE000003FF800
3FF000007FFC00
1FF80001FFFE00
1FFE0007FFFF00
0FFFF07FFFFF80
07FFFFFFFFFFC0
03FFFFFFFE7FE0
01FFFFFFF83FE0
00FFFFFFF01FC0
003FFFFFC00F80
000FFFFF000700
0000FFF0000200
ENDCHAR
STARTCHAR 0027
ENCODING 39
SWIDTH 232 0
DWIDTH 20 0
BBX 8 16 5 46
BITMAP
FF
FF
FF
FF
FF
FF
FF
FF
FF
FF
FF
FF
FF
FF
FF
FF
ENDCHAR
STARTCHAR 0028
ENCODING 40
SWIDTH 429 0
DWIDTH 37 0
BBX 22 88 12 -16
BITMAP
000180
0001E0
0003F0
0007F8
000FF8
000FF8
001FF0
003FE0
003FC0
007FC0
007F80
00FF00
01FF00
01FE00
01FE00
03FC00
03F800
07F800
07F800
0FF000
0FF000
0FE000
1FE000
1FC000
1FC000
3FC000
3FC000
3F8000
3F8000
7F8000
7F0000
7F0000
7F0000
7F0000
7F0000
FF0000
FE0000
FE0000
FE0000
FE0000
FE0000
FE0000
FE0000
FE0000
FE0000
FE0000
FE0000
FE0000
FE0000
FE0000
FE0000
FF0000
7F0000
7F0000
7F0000
7F0000
7F0000
7F8000
3F8000
3F8000
3F8000
3FC000
1FC000
1FC000
1FE000
1FE000
0FE000
0FF000
07F000
07F800
07F800
03FC00
03FC00
01FE00
01FE00
00FF00
00FF00
007F80
007FC0
003FE0
001FE0
001FF0
000FF8
0007FC
0007F8
0003E0
0001C0
000080
ENDCHAR
STARTCHAR 0029
ENCODING 41
SWIDTH 429 0
DWIDTH 37 0
BBX 21 88 4 -16
BITMAP
0C0000
1E0000
3F0000
FF0000
FF8000
7FC000
3FC000
3FE000
1FF000
0FF000
0FF800
07F800
03FC00
03FC00
01FE00
01FE00
00FF00
00FF00
007F80
007F80
003F80
003FC0
001FC0
001FC0
001FE0
000FE0
000FE0
000FE0
000FF0
0007F0
0007F0
0007F0
0007F0
0007F8
0003F8
0003F8
0003F8
0003F8
0003F8
0003F8
0003F8
0003F8
0003F8
0003F8
0003F8
0003F8
0003F8
0003F8
0003F8
0003F8
0003F8
0003F8
0003F8
0003F8
0007F8
0007F0
0007F0
0007F0
0007F0
000FF0
000FE0
000FE0
001FE0
001FE0
001FC0
003FC0
003FC0
003F80
007F80
007F00
00FF00
00FF00
01FE00
01FE00
03FC00
03FC00
07F800
0FF800
0FF000
1FE000
3FE000
7FC000
7FC000
FF8000
7F0000
3E0000
1E0000
040000
ENDCHAR
STARTCHAR 002A
ENCODING 42
SWIDTH 441 0
DWIDTH 38 0
BBX 30 29 3 33
BITMAP
001FC000
001FC000
001FC000
000FC000
000FC000
000FC000
000FC000
200FC010
7C0FC0F8
7F0FC7F8
7FEFDFF8
FFFFFFFC
FFFFFFFC
FFFFFFFC
3FFFFFF0
03FFFF00
007FF800
007FF800
00FFF800
00FFFC00
01FFFE00
03FCFF00
07F8FF00
07F87F80
0FF03FC0
0FE03FC0
07E01F80
01C00E00
00800C00
ENDCHAR
STARTCHAR 002B
ENCODING 43
SWIDTH 580 0
DWIDTH 50 0
BBX 39 39 5 12
BITMAP
00007E0000
00007E0000
00007E0000
00007E0000
00007E0000
00007E0000
00007E0000
00007E0000
00007E0000
00007E0000
00007E0000
00007E0000
00007E0000
00007E0000
00007E0000
00007E0000
00007E0000
FFFFFFFFFE
FFFFFFFFFE
FFFFFFFFFE
FFFFFFFFFE
FFFFFFFFFE
FFFFFFFFFE
00007E0000
00007E0000
00007E0000
00007E0000
00007E0000
00007E0000
00007E0000
00007E0000
00007E0000
00007E0000
00007E0000
00007E0000
00007E0000
00007E0000
00007E0000
00007E0000
ENDCHAR
STARTCHAR 002C
ENCODING 44
SWIDTH 278 0
DWIDTH 24 0
BBX 9 20 5 -11
BITMAP
FF80
FF80
FF80
FF80
FF80
FF80
FF80
FF80
FF80
FF80
0780
0780
0780
0F00
0F00
1F00
7E00
FE00
FC00
F000
ENDCHAR
STARTCHAR 002D
ENCODING 45
SWIDTH 418 0
DWIDTH 36 0
BBX 26 6 5 24
BITMAP
FFFFFFC0
FFFFFFC0
FFFFFFC0
FFFFFFC0
FFFFFFC0
FFFFFFC0
ENDCHAR
STARTCHAR 002E
ENCODING 46
SWIDTH 267 0
DWIDTH 23 0
BBX 9 8 7 0
BITMAP
FF80
FF80
FF80
FF80
FF80
FF80
FF80
FF80
ENDCHAR
STARTCHAR 002F
ENCODING 47
SWIDTH 406 0
DWIDTH 35 0
BBX 24 62 5 0
BITMAP
00007F
0000FF
0000FF
0000FF
0001FE
0001FE
0001FE
0001FC
0003FC
0003FC
0003FC
0003F8
0007F8
0007F8
0007F8
0007F0
000FF0
000FF0
000FF0
001FE0
001FE0
001FE0
001FC0
003FC0
003FC0
003FC0
003F80
007F80
007F80
007F80
007F00
00FF00
00FF00
00FF00
01FE00
01FE00
01FE00
01FC00
03FC00
03FC00
03FC00
03F800
07F800
07F800
07F800
07F000
0FF000
0FF000
0FF000
1FE000
1FE000
1FE000
1FC000
3FC000
3FC000
3FC000
3F8000
7F8000
7F8000
7F8000
7F0000
FF0000
ENDCHAR
STARTCHAR 0030
ENCODING 48
SWIDTH 627 0
DWIDTH 54 0
BBX 42 64 6 -1
BITMAP
0000FFC00000
0007FFF80000
001FFFFE0000
007FFFFF8000
01FFFFFFC000
03FFFFFFF000
07FFFFFFF000
0FFFE1FFF800
0FFF003FFC00
1FFC000FFE00
1FF00003FE00
3FE00001FF00
3FC00001FF00
7FC00000FF80
7F8000007F80
7F8000007F80
FF0000007F80
FF0000003FC0
FF0000003FC0
FF0000003FC0
FF0000003FC0
FF0000003FC0
FF0000003FC0
FF0000003FC0
FF0000003FC0
FF0000003FC0
FF0000003FC0
FF0000003FC0
FF0000003FC0
FF0000003FC0
FF0000003FC0
FF0000003FC0
FF0000003FC0
FF0000003FC0
FF0000003FC0
FF0000003FC0
FF0000003FC0
FF0000003FC0
FF0000003FC0
FF0000003FC0
FF0000003FC0
FF0000003FC0
FF0000003FC0
FF0000003FC0
FF0000003FC0
FF0000003FC0
FF0000003FC0
FF0000007F80
7F8000007F80
7F8000007F80
7FC00000FF80
3FC00001FF00
3FE00001FF00
3FF00007FE00
1FFC000FFE00
0FFF003FFC00
0FFFE3FFF800
07FFFFFFF800
03FFFFFFF000
01FFFFFFC000
007FFFFF8000
001FFFFE0000
0007FFF80000
0000FFC00000
ENDCHAR
STARTCHAR 0031
ENCODING 49
SWIDTH 406 0
DWIDTH 35 0
BBX 20 62 5 0
BITMAP
001FF0
007FF0
00FFF0
03FFF0
0FFFF0
1FFFF0
7FFFF0
FFFFF0
FFFFF0
FFCFF0
FF0FF0
FE0FF0
F80FF0
F00FF0
C00FF0
000FF0
000FF0
000FF0
000FF0
000FF0
000FF0
000FF0
000FF0
000FF0
000FF0
000FF0
000FF0
000FF0
000FF0
000FF0
000FF0
000FF0
000FF0
000FF0
000FF0
000FF0
000FF0
000FF0
000FF0
000FF0
000FF0
000FF0
000FF0
000FF0
000FF0
000FF0
000FF0
000FF0
000FF0
000FF0
000FF0
000FF0
000FF0
000FF0
000FF0
000FF0
000FF0
000FF0
000FF0
000FF0
000FF0
000FF0
ENDCHAR
STARTCHAR 0032
ENCODING 50
SWIDTH 580 0
DWIDTH 50 0
BBX 42 63 4 0
BITMAP
0000FFC00000
0007FFF80000
001FFFFE0000
007FFFFF8000
00FFFFFFC000
01FFFFFFE000
03FFFFFFF000
07FFF1FFF800
0FFF001FFC00
1FFC000FFE00
1FF80003FE00
3FF00001FF00
3FE00001FF00
3FC00000FF00
7FC00000FF80
7F8000007F80
7F8000007F80
7F8000007F80
7F0000003F80
7F0000003F80
000000003F80
000000003F80
000000007F80
000000007F80
000000007F80
000000007F80
00000000FF80
00000001FF00
00000001FF00
00000003FE00
00000007FE00
0000000FFC00
0000001FF800
0000003FF800
000000FFF000
000001FFE000
000003FFC000
000007FF0000
00000FFE0000
00001FFC0000
00003FF80000
00007FF00000
0000FFE00000
0003FFC00000
0007FF800000
000FFF000000
001FFC000000
003FF8000000
007FF0000000
00FFE0000000
01FFC0000000
07FF80000000
0FFF00000000
1FFE00000000
3FF800000000
7FF000000000
FFFFFFFFFFC0
FFFFFFFFFFC0
FFFFFFFFFFC0
FFFFFFFFFFC0
FFFFFFFFFFC0
FFFFFFFFFFC0
FFFFFFFFFFC0
ENDCHAR
STARTCHAR 0033
ENCODING 51
SWIDTH 557 0
DWIDTH 48 0
BBX 39 63 4 -1
BITMAP
3FFFFFFFFC
3FFFFFFFFC
3FFFFFFFFC
3FFFFFFFFC
3FFFFFFFFC
3FFFFFFFFC
3FFFFFFFFC
00000007FC
0000000FF8
0000001FF0
0000007FE0
000000FFC0
000001FF80
000003FF00
000007FE00
00000FFC00
00001FF800
00003FF000
00007FE000
0001FFC000
0003FF8000
0007FF0000
000FFE0000
001FFC0000
003FFFE000
007FFFF800
007FFFFE00
003FFFFF80
001FFFFFC0
001FFFFFE0
000F01FFE0
0008007FF0
0000001FF8
0000000FF8
00000007FC
00000007FC
00000003FC
00000003FE
00000001FE
00000001FE
00000001FE
00000001FE
00000001FE
00000001FE
00000001FE
00000001FE
00000001FE
06000001FE
3E000003FE
FF000003FC
FF800007FC
FF80000FF8
7FC0001FF8
7FE0003FF0
3FF800FFF0
1FFF87FFE0
0FFFFFFFC0
07FFFFFF80
03FFFFFF00
01FFFFFE00
007FFFF800
001FFFE000
0003FF0000
ENDCHAR
STARTCHAR 0034
ENCODING 52
SWIDTH 592 0
DWIDTH 51 0
BBX 43 62 4 0
BITMAP
000007F80000
00000FF80000
00000FF00000
00001FF00000
00001FE00000
00003FE00000
00003FC00000
00007FC00000
00007F800000
0000FF800000
0000FF000000
0001FF000000
0001FF000000
0003FE000000
0003FE000000
0007FC000000
0007FC000000
000FF8000000
000FF8000000
001FF0000000
001FF0000000
001FE0000000
003FE0000000
003FC0000000
007FC0000000
007F80000000
00FF8007F800
00FF0007F800
01FF0007F800
01FE0007F800
03FE0007F800
03FC0007F800
07FC0007F800
07FC0007F800
0FF80007F800
0FF80007F800
1FF00007F800
1FF00007F800
3FE00007F800
3FE00007F800
7FC00007F800
7FC00007F800
7F800007F800
FFFFFFFFFFE0
FFFFFFFFFFE0
FFFFFFFFFFE0
FFFFFFFFFFE0
FFFFFFFFFFE0
FFFFFFFFFFE0
FFFFFFFFFFE0
00000007F800
00000007F800
00000007F800
00000007F800
00000007F800
00000007F800
00000007F800
00000007F800
00000007F800
00000007F800
00000007F800
00000007F800
ENDCHAR
STARTCHAR 0035
ENCODING 53
SWIDTH 580 0
DWIDTH 50 0
BBX 41 63 5 -1
BITMAP
1FFFFFFFF000
1FFFFFFFF000
1FFFFFFFF000
1FFFFFFFF000
1FFFFFFFF000
1FFFFFFFF000
1FFFFFFFF000
1FC000000000
1FC000000000
1FC000000000
3FC000000000
3FC000000000
3FC000000000
3FC000000000
3FC000000000
3F8000000000
3F8000000000
3F8000000000
3F8000000000
3F8000000000
3F8000000000
3F8000000000
3F80FF800000
3F87FFF00000
3F9FFFFC0000
3FFFFFFF0000
3FFFFFFF8000
7FFFFFFFC000
7FFFFFFFE000
7FFF01FFF000
7FF8003FF800
7FE0001FFC00
3FC00007FC00
0F800003FE00
01000003FE00
00000001FF00
00000000FF00
00000000FF00
00000000FF00
000000007F00
000000007F80
000000007F80
000000007F80
000000007F80
000000007F80
000000007F00
0E000000FF00
FE000000FF00
FF000001FF00
FF000001FE00
FF800003FE00
7FC00007FC00
7FE0000FFC00
3FF0001FF800
1FFC007FF000
1FFFEFFFF000
0FFFFFFFE000
07FFFFFFC000
03FFFFFF8000
00FFFFFE0000
007FFFF80000
000FFFE00000
0001FF000000
ENDCHAR
STARTCHAR 0036
ENCODING 54
SWIDTH 615 0
DWIDTH 53 0
BBX 42 64 6 -1
BITMAP
00007FE00000
0007FFFC0000
001FFFFF0000
007FFFFFC000
00FFFFFFE000
01FFFFFFF000
03FFFFFFF800
07FFF0FFFC00
0FFF000FFC00
1FFC0007F800
1FF80001F000
3FF00000E000
3FE000004000
7FC000000000
7F8000000000
7F8000000000
7F8000000000
FF0000000000
FF0000000000
FF0000000000
FF0000000000
FF0000000000
FF0000000000
FF003FE00000
FF01FFFC0000
FF07FFFF0000
FF1FFFFFC000
FF3FFFFFE000
FF7FFFFFF000
FFFFFFFFF800
FFFFC07FFC00
FFFE001FFE00
FFF80007FE00
FFF00003FF00
FFE00001FF00
FFC00000FF80
FFC000007F80
FF8000007F80
FF8000003FC0
FF0000003FC0
FF0000003FC0
FF0000003FC0
FF0000001FC0
FF0000001FC0
FF0000003FC0
FF0000003FC0
FF0000003FC0
7F0000003FC0
7F8000003FC0
7F8000007F80
7FC00000FF80
3FE00000FF80
3FF00001FF00
1FF80003FF00
1FFC000FFE00
0FFF003FFC00
07FFF3FFF800
03FFFFFFF800
01FFFFFFF000
00FFFFFFC000
007FFFFF8000
001FFFFE0000
0007FFF80000
00007FC00000
ENDCHAR
STARTCHAR 0037
ENCODING 55
SWIDTH 510 0
DWIDTH 44 0
BBX 37 62 3 0
BITMAP
FFFFFFFFF8
FFFFFFFFF8
FFFFFFFFF8
FFFFFFFFF8
FFFFFFFFF8
FFFFFFFFF8
FFFFFFFFF8
00000007F8
0000000FF0
0000000FF0
0000001FF0
0000001FE0
0000003FE0
0000003FC0
0000003FC0
0000007FC0
0000007F80
000000FF80
000000FF00
000000FF00
000001FE00
000001FE00
000003FE00
000003FC00
000003FC00
000007F800
000007F800
00000FF800
00000FF000
00000FF000
00001FE000
00001FE000
00003FE000
00003FC000
00003FC000
00007F8000
00007F8000
0000FF8000
0000FF0000
0001FF0000
0001FE0000
0001FE0000
0003FE0000
0003FC0000
0007FC0000
0007F80000
0007F80000
000FF00000
000FF00000
001FF00000
001FE00000
001FE00000
003FC00000
003FC00000
007FC00000
007F800000
007F800000
00FF000000
00FF000000
01FF000000
01FE000000
03FE000000
ENDCHAR
STARTCHAR 0038
ENCODING 56
SWIDTH 592 0
DWIDTH 51 0
BBX 41 64 5 -1
BITMAP
0001FF800000
000FFFF80000
003FFFFE0000
00FFFFFF8000
01FFFFFFC000
03FFFFFFE000
07FFFFFFF000
0FFFE3FFF000
0FFE003FF800
1FF8000FFC00
1FF00007FC00
3FE00003FC00
3FE00003FE00
3FC00001FE00
3FC00001FE00
3FC00001FE00
3FC00001FE00
3FC00001FE00
3FC00001FE00
3FC00001FE00
3FC00003FE00
3FE00003FC00
1FF00007FC00
1FF8000FFC00
0FFC001FF800
0FFF00FFF800
07FFFFFFF000
03FFFFFFE000
01FFFFFFC000
00FFFFFF8000
01FFFFFFC000
03FFFFFFE000
07FFFFFFF000
0FFFE3FFF800
1FFC003FFC00
3FF8000FFC00
3FE00007FE00
3FE00003FE00
7FC00001FF00
7F800001FF00
7F800000FF00
FF800000FF00
FF000000FF80
FF000000FF80
FF0000007F80
FF0000007F80
FF0000007F80
FF000000FF80
FF800000FF00
7F800000FF00
7F800001FF00
7FC00001FF00
3FE00003FE00
3FE00007FE00
3FF8000FFC00
1FFC003FFC00
0FFFC1FFF800
07FFFFFFF000
07FFFFFFE000
01FFFFFFC000
00FFFFFF8000
003FFFFE0000
000FFFF80000
0001FF800000
ENDCHAR
STARTCHAR 0039
ENCODING 57
SWIDTH 615 0
DWIDTH 53 0
BBX 42 64 5 -1
BITMAP
00007FC00000
0007FFF80000
001FFFFE0000
003FFFFF8000
00FFFFFFC000
01FFFFFFF000
03FFFFFFF800
07FFFBFFF800
0FFF001FFC00
1FFC000FFE00
1FF80003FF00
3FF00001FF00
3FE00000FF80
7FC000007F80
7F8000007F80
7F8000003FC0
7F8000003FC0
FF0000003FC0
FF0000003FC0
FF0000001FC0
FF0000001FC0
FF0000001FC0
FF0000001FC0
FF0000003FC0
FF0000003FC0
7F8000003FC0
7F8000007FC0
7FC000007FC0
3FC00000FFC0
3FE00001FFC0
1FF00003FFC0
1FFC0007FFC0
0FFE001FFFC0
07FFC07FFFC0
07FFFFFFFFC0
03FFFFFFDFC0
01FFFFFF9FC0
007FFFFE1FC0
003FFFFC1FC0
000FFFF01FC0
0000FF801FC0
000000001FC0
000000001FC0
000000001FC0
000000001FC0
000000003FC0
000000003FC0
000000003FC0
000000007FC0
000000007F80
00000000FF80
00400000FF80
00E00001FF00
03F00003FF00
07F8000FFE00
0FFE003FFC00
0FFFE1FFFC00
07FFFFFFF800
03FFFFFFF000
01FFFFFFC000
007FFFFF8000
003FFFFE0000
000FFFF80000
0000FFC00000
ENDCHAR
STARTCHAR 003A
ENCODING 58
SWIDTH 313 0
DWIDTH 27 0
BBX 9 33 9 7
BITMAP
7F80
7F80
7F80
7F80
7F80
7F80
7F80
7F80
0000
0000
0000
0000
0000
0000
0000
0000
0000
0000
0000
0000
0000
0000
0000
0000
0000
FF80
FF80
FF80
FF80
FF80
FF80
FF80
FF80
ENDCHAR
STARTCHAR 003B
ENCODING 59
SWIDTH 313 0
DWIDTH 27 0
BBX 9 57 9 -11
BITMAP
FF80
FF80
FF80
FF80
FF80
FF80
FF80
FF80
0000
0000
0000
0000
0000
0000
0000
0000
0000
0000
0000
0000
0000
0000
0000
0000
0000
0000
0000
0000
0000
0000
0000
0000
0000
0000
0000
0000
0000
FF80
FF80
FF80
FF80
FF80
FF80
FF80
FF80
FF80
FF80
0780
0780
0780
0780
0F80
1F00
7F00
7E00
7C00
F000
ENDCHAR
STARTCHAR 003C
ENCODING 60
SWIDTH 627 0
DWIDTH 54 0
BBX 25 41 12 7
BITMAP
00000800
00001C00
00003E00
00007F00
0000FF80
0001FF80
0003FF00
0007FC00
000FF800
001FF000
003FE000
007FC000
00FF8000
01FF0000
03FE0000
07FC0000
0FF80000
1FF00000
3FE00000
7FC00000
FFC00000
7FE00000
3FF00000
1FF80000
0FFC0000
07FE0000
03FF0000
01FF8000
00FFC000
007FE000
003FF000
001FF800
000FFC00
0007FE00
0003FF00
0001FF80
0000FF80
00007F00
00003E00
00001C00
00000800
ENDCHAR
STARTCHAR 003D
ENCODING 61
SWIDTH 754 0
DWIDTH 65 0
BBX 44 22 10 20
BITMAP
FFFFFFFFFFF0
FFFFFFFFFFF0
FFFFFFFFFFF0
FFFFFFFFFFF0
FFFFFFFFFFF0
FFFFFFFFFFF0
000000000000
000000000000
000000000000
000000000000
000000000000
000000000000
000000000000
000000000000
000000000000
000000000000
FFFFFFFFFFF0
FFFFFFFFFFF0
FFFFFFFFFFF0
FFFFFFFFFFF0
FFFFFFFFFFF0
FFFFFFFFFFF0
ENDCHAR
STARTCHAR 003E
ENCODING 62
SWIDTH 627 0
DWIDTH 54 0
BBX 24 40 17 7
BITMAP
080000
1C0000
3E0000
7F0000
FF8000
FFC000
7FE000
3FF000
1FF800
0FFC00
07FE00
03FF00
01FF80
00FFC0
007FE0
003FF0
001FF8
000FFC
0007FE
0003FF
0001FF
0003FE
0007FC
000FF8
001FF0
003FE0
007FC0
00FF80
01FF00
03FE00
07FC00
0FF800
1FF000
3FE000
7FC000
FF8000
FF0000
7E0000
3C0000
180000
ENDCHAR
STARTCHAR 003F
ENCODING 63
SWIDTH 534 0
DWIDTH 46 0
BBX 38 63 4 0
BITMAP
0003FF0000
001FFFE000
007FFFFC00
01FFFFFE00
03FFFFFF00
07FFFFFF80
0FFFFFFFC0
1FFF87FFE0
1FF8007FF0
3FF0003FF0
3FC0001FF0
7FC0000FF8
7F800007F8
7F800007F8
7F000007F8
FF000007FC
FF000007FC
00000007FC
00000007FC
00000007F8
00000007F8
00000007F8
0000000FF8
0000000FF0
0000001FF0
0000003FE0
0000007FE0
000000FFC0
000003FF80
000007FF00
00000FFE00
00001FFC00
00003FF800
00007FF000
0000FFE000
0000FFC000
0001FF8000
0001FF0000
0001FE0000
0003FE0000
0003FC0000
0003FC0000
0003FC0000
0003FC0000
0003FC0000
0003FC0000
0000000000
0000000000
0000000000
0000000000
0000000000
0000000000
0000000000
0000000000
0003FC0000
0003FC0000
0003FC0000
0003FC0000
0003FC0000
0003FC0000
0003FC0000
0003FC0000
0003FC0000
ENDCHAR
STARTCHAR 0040
ENCODING 64
SWIDTH 905 0
DWIDTH 78 0
BBX 64 64 7 -9
BITMAP
000000FFFF000000
00000FFFFFF00000
00003FFFFFFE0000
0000FFFFFFFF8000
0003FFFFFFFFE000
0007FFFFFFFFF000
001FFFE003FFFC00
003FFE00003FFE00
007FF0000007FF00
00FFC0000001FF80
01FF80000000FFC0
03FF000000003FE0
03FC000000001FE0
07F8000000000FF0
0FF0000000000FF0
0FF00000000007F8
1FE00000000003FC
1FC00000000001FC
3FC0001FE00001FC
3F8000FFFCF800FE
3F8001FFFEF800FE
7F0003FFFFF800FE
7F0007FFFFF8007E
7F000FFFFFF8007F
7E001FFC7FF8007F
FE001FE00FF8007F
FE003FC007F8007F
FE003F8003F8007F
FE003F0003F8007F
FE007F0001F8007F
FE007F0001F8007F
FE007F0001F8007F
FE007F0001F8007F
FE007F0001F8007F
FE007F0001F8007F
FE007F0003F8007F
FE003F8003F800FE
FE003F8007FC00FE
FE003FC00FFC01FE
7F001FF01FFE01FC
7F001FFFFFFF87FC
7F000FFFFFFFFFF8
7F8007FFFFFFFFF8
3F8003FFFF7FFFF0
3FC000FFFC1FFFE0
3FC0003FF00FFFC0
1FE000000003FE00
1FE0000000000000
0FF0000000000000
07F8000000000000
07FC000000000000
03FE000000000000
01FF000000000000
00FFC00000000000
007FE00000000000
003FF800001C0000
001FFF0000FC0000
000FFFFC1FFC0000
0007FFFFFFFE0000
0001FFFFFFFE0000
00007FFFFFFE0000
00001FFFFFF80000
000003FFFFC00000
0000003FFC000000
ENDCHAR
STARTCHAR 0041
ENCODING 65
SWIDTH 650 0
DWIDTH 56 0
BBX 52 62 2 0
BITMAP
00000FFE000000
00000FFF000000
00000FFF000000
00001FFF000000
00001FFF800000
00001FFF800000
00003FFF800000
00003FFFC00000
00003FFFC00000
00007FBFC00000
00007F9FE00000
00007F9FE00000
0000FF1FE00000
0000FF0FF00000
0000FF0FF00000
0001FE0FF00000
0001FE07F80000
0001FE07F80000
0003FC07F80000
0003FC03FC0000
0003FC03FC0000
0007F803FC0000
0007F801FE0000
0007F801FE0000
000FF001FE0000
000FF000FF0000
000FF000FF0000
001FE000FF0000
001FE0007F8000
001FC0007F8000
003FC0007F8000
003FC0003FC000
003F80003FC000
007F80003FC000
007F80001FE000
007F00001FE000
00FF00001FE000
00FF00000FF000
00FE00000FF000
01FE00000FF000
01FFFFFFFFF800
01FFFFFFFFF800
03FFFFFFFFF800
03FFFFFFFFFC00
03FFFFFFFFFC00
07FFFFFFFFFC00
07FFFFFFFFFE00
07F0000001FE00
0FF0000001FE00
0FF0000000FF00
0FE0000000FF00
1FE0000000FF00
1FE00000007F80
1FC00000007F80
3FC00000007F80
3FC00000003FC0
3FC00000003FC0
7F800000003FC0
7F800000001FE0
7F800000001FE0
FF000000001FE0
FF000000000FF0
ENDCHAR
STARTCHAR 0042
ENCODING 66
SWIDTH 615 0
DWIDTH 53 0
BBX 45 62 6 0
BITMAP
FFFFFFF80000
FFFFFFFF0000
FFFFFFFFC000
FFFFFFFFE000
FFFFFFFFF800
FFFFFFFFFC00
FFFFFFFFFC00
FF00001FFE00
FF000007FF00
FF000001FF00
FF000000FF80
FF0000007F80
FF0000007F80
FF0000007FC0
FF0000003FC0
FF0000003FC0
FF0000003FC0
FF0000003FC0
FF0000003FC0
FF0000007F80
FF0000007F80
FF000000FF80
FF000000FF80
FF000001FF00
FF000007FF00
FF00003FFE00
FFFFFFFFFC00
FFFFFFFFF800
FFFFFFFFF000
FFFFFFFFF000
FFFFFFFFF800
FFFFFFFFFE00
FFFFFFFFFF00
FF000007FF80
FF000000FFC0
FF0000007FC0
FF0000003FE0
FF0000001FE0
FF0000001FF0
FF0000000FF0
FF0000000FF0
FF00000007F8
FF00000007F8
FF00000007F8
FF00000007F8
FF00000007F8
FF00000007F8
FF0000000FF8
FF0000000FF0
FF0000001FF0
FF0000001FF0
FF0000003FF0
FF0000007FE0
FF000001FFE0
FF00001FFFC0
FFFFFFFFFF80
FFFFFFFFFF80
FFFFFFFFFF00
FFFFFFFFFC00
FFFFFFFFF800
FFFFFFFFE000
FFFFFFFF0000
ENDCHAR
STARTCHAR 0043
ENCODING 67
SWIDTH 720 0
DWIDTH 62 0
BBX 56 64 3 -1
BITMAP
000001FFC00000
00003FFFFE0000
0000FFFFFF8000
0003FFFFFFE000
000FFFFFFFF800
001FFFFFFFFC00
007FFFFFFFFE00
00FFFFE1FFFF80
01FFF8000FFFC0
01FFE00003FFC0
03FF800000FFE0
07FF0000007FF0
0FFC0000001FF0
0FF80000000FF8
1FF80000000FFC
1FF000000007FC
3FE000000003FE
3FE000000003FE
3FC000000001FE
7FC000000001FF
7F8000000001FC
7F8000000000C0
7F800000000000
FF800000000000
FF000000000000
FF000000000000
FF000000000000
FF000000000000
FF000000000000
FF000000000000
FF000000000000
FF000000000000
FF000000000000
FF000000000000
FF000000000000
FF000000000000
FF000000000000
FF000000000000
FF000000000000
FF000000000000
FF800000000000
7F800000000000
7F8000000000C0
7F8000000000FC
7FC000000001FF
3FC000000001FE
3FE000000003FE
3FE000000003FE
1FF000000007FC
1FF80000000FFC
0FF80000000FF8
0FFC0000001FF8
07FE0000007FF0
03FF800000FFE0
01FFE00003FFC0
01FFF8000FFFC0
00FFFFE1FFFF80
007FFFFFFFFF00
001FFFFFFFFC00
000FFFFFFFF800
0003FFFFFFE000
0000FFFFFF8000
00003FFFFE0000
000001FFC00000
ENDCHAR
STARTCHAR 0044
ENCODING 68
SWIDTH 685 0
DWIDTH 59 0
BBX 49 62 6 0
BITMAP
FFFFFFF0000000
FFFFFFFF000000
FFFFFFFFC00000
FFFFFFFFF00000
FFFFFFFFFC0000
FFFFFFFFFE0000
FFFFFFFFFF0000
FF0003FFFF8000
FF000007FFC000
FF000001FFE000
FF0000007FE000
FF0000003FF000
FF0000001FF000
FF0000000FF800
FF0000000FF800
FF00000007FC00
FF00000003FC00
FF00000003FE00
FF00000001FE00
FF00000001FE00
FF00000001FF00
FF00000001FF00
FF00000000FF00
FF00000000FF00
FF00000000FF00
FF00000000FF00
FF00000000FF80
FF00000000FF80
FF000000007F80
FF000000007F80
FF000000007F80
FF000000007F80
FF000000007F80
FF000000007F80
FF00000000FF80
FF00000000FF80
FF00000000FF00
FF00000000FF00
FF00000000FF00
FF00000000FF00
FF00000001FF00
FF00000001FF00
FF00000001FE00
FF00000001FE00
FF00000003FE00
FF00000003FC00
FF00000007FC00
FF0000000FF800
FF0000000FF800
FF0000001FF000
FF0000003FF000
FF0000007FE000
FF000001FFE000
FF000007FFC000
FF0003FFFF8000
FFFFFFFFFF0000
FFFFFFFFFE0000
FFFFFFFFFC0000
FFFFFFFFF00000
FFFFFFFFC00000
FFFFFFFF000000
FFFFFFF0000000
ENDCHAR
STARTCHAR 0045
ENCODING 69
SWIDTH 580 0
DWIDTH 50 0
BBX 39 62 6 0
BITMAP
FFFFFFFFFE
FFFFFFFFFE
FFFFFFFFFE
FFFFFFFFFE
FFFFFFFFFE
FFFFFFFFFE
FFFFFFFFFE
FF00000000
FF00000000
FF00000000
FF00000000
FF00000000
FF00000000
FF00000000
FF00000000
FF00000000
FF00000000
FF00000000
FF00000000
FF00000000
FF00000000
FF00000000
FF00000000
FF00000000
FF00000000
FF00000000
FF00000000
FFFFFFFFC0
FFFFFFFFC0
FFFFFFFFC0
FFFFFFFFC0
FFFFFFFFC0
FFFFFFFFC0
FFFFFFFFC0
FF00000000
FF00000000
FF00000000
FF00000000
FF00000000
FF00000000
FF00000000
FF00000000
FF00000000
FF00000000
FF00000000
FF00000000
FF00000000
FF00000000
FF00000000
FF00000000
FF00000000
FF00000000
FF00000000
FF00000000
FF00000000
FFFFFFFFFE
FFFFFFFFFE
FFFFFFFFFE
FFFFFFFFFE
FFFFFFFFFE
FFFFFFFFFE
FFFFFFFFFE
ENDCHAR
STARTCHAR 0046
ENCODING 70
SWIDTH 510 0
DWIDTH 44 0
BBX 36 62 6 0
BITMAP
FFFFFFFFF0
FFFFFFFFF0
FFFFFFFFF0
FFFFFFFFF0
FFFFFFFFF0
FFFFFFFFF0
FFFFFFFFF0
FFFFFFFFF0
FF00000000
FF00000000
FF00000000
FF00000000
FF00000000
FF00000000
FF00000000
FF00000000
FF00000000
FF00000000
FF00000000
FF00000000
FF00000000
FF00000000
FF00000000
FF00000000
FF00000000
FF00000000
FF00000000
FFFFFFFE00
FFFFFFFE00
FFFFFFFE00
FFFFFFFE00
FFFFFFFE00
FFFFFFFE00
FFFFFFFE00
FFFFFFFE00
FF00000000
FF00000000
FF00000000
FF00000000
FF00000000
FF00000000
FF00000000
FF00000000
FF00000000
FF00000000
FF00000000
FF00000000
FF00000000
FF00000000
FF00000000
FF00000000
FF00000000
FF00000000
FF00000000
FF00000000
FF00000000
FF00000000
FF00000000
FF00000000
FF00000000
FF00000000
FF00000000
ENDCHAR
STARTCHAR 0047
ENCODING 71
SWIDTH 708 0
DWIDTH 61 0
BBX 56 64 3 -1
BITMAP
000003FFC00000
00003FFFFC0000
0000FFFFFF8000
0003FFFFFFE000
000FFFFFFFF000
001FFFFFFFFC00
007FFFFFFFFE00
00FFFFE1FFFF00
01FFF8001FFF80
01FFE00003FFC0
03FF800001FFC0
07FF0000007FE0
0FFC0000003FE0
0FF80000001FF0
1FF80000001FF0
1FF00000000FF8
3FE000000007F8
3FE000000007FC
3FC000000003E0
7FC00000000000
7F800000000000
7F800000000000
7F800000000000
FF800000000000
FF000000000000
FF000000000000
FF000000000000
FF000000000000
FF000000000000
FF000000000000
FF000000000000
FF0000003FFFFF
FF0000003FFFFF
FF0000003FFFFF
FF0000003FFFFF
FF0000003FFFFF
FF0000003FFFFF
FF0000000000FF
FF0000000001FF
FF0000000001FF
FF8000000001FE
7F8000000001FE
7F8000000001FE
7F8000000001FE
7FC000000003FE
3FC000000003FC
3FE000000003FC
3FE000000007FC
1FF000000007F8
1FF80000000FF8
0FF80000001FF0
0FFC0000003FF0
07FF0000007FE0
03FF800000FFE0
01FFE00003FFC0
00FFF8000FFF80
00FFFFE0FFFF00
003FFFFFFFFE00
001FFFFFFFFC00
000FFFFFFFF000
0003FFFFFFE000
0000FFFFFF8000
00003FFFFC0000
000001FFC00000
ENDCHAR
STARTCHAR 0048
ENCODING 72
SWIDTH 696 0
DWIDTH 60 0
BBX 48 62 6 0
BITMAP
FF00000000FF
FF00000000FF
FF00000000FF
FF00000000FF
FF00000000FF
FF00000000FF
FF00000000FF
FF00000000FF
FF00000000FF
FF00000000FF
FF00000000FF
FF00000000FF
FF00000000FF
FF00000000FF
FF00000000FF
FF00000000FF
FF00000000FF
FF00000000FF
FF00000000FF
FF00000000FF
FF00000000FF
FF00000000FF
FF00000000FF
FF00000000FF
FF00000000FF
FF00000000FF
FF00000000FF
FFFFFFFFFFFF
FFFFFFFFFFFF
FFFFFFFFFFFF
FFFFFFFFFFFF
FFFFFFFFFFFF
FFFFFFFFFFFF
FFFFFFFFFFFF
FF00000000FF
FF00000000FF
FF00000000FF
FF00000000FF
FF00000000FF
FF00000000FF
FF00000000FF
FF00000000FF
FF00000000FF
FF00000000FF
FF00000000FF
FF00000000FF
FF00000000FF
FF00000000FF
FF00000000FF
FF00000000FF
FF00000000FF
FF00000000FF
FF00000000FF
FF00000000FF
FF00000000FF
FF00000000FF
FF00000000FF
FF00000000FF
FF00000000FF
FF00000000FF
FF00000000FF
FF00000000FF
ENDCHAR
STARTCHAR 0049
ENCODING 73
SWIDTH 243 0
DWIDTH 21 0
BBX 8 62 7 0
BITMAP
FF
FF
FF
FF
FF
FF
FF
FF
FF
FF
FF
FF
FF
FF
FF
FF
FF
FF
FF
FF
FF
FF
FF
FF
FF
FF
FF
FF
FF
FF
FF
FF
FF
FF
FF
FF
FF
FF
FF
FF
FF
FF
FF
FF
FF
FF
FF
FF
FF
FF
FF
FF
FF
FF
FF
FF
FF
FF
FF
FF
FF
FF
ENDCHAR
STARTCHAR 004A
ENCODING 74
SWIDTH 476 0
DWIDTH 41 0
BBX 34 63 0 -1
BITMAP
0000003FC0
0000003FC0
0000003FC0
0000003FC0
0000003FC0
0000003FC0
0000003FC0
0000003FC0
0000003FC0
0000003FC0
0000003FC0
0000003FC0
0000003FC0
0000003FC0
0000003FC0
0000003FC0
0000003FC0
0000003FC0
0000003FC0
0000003FC0
0000003FC0
0000003FC0
0000003FC0
0000003FC0
0000003FC0
0000003FC0
0000003FC0
0000003FC0
0000003FC0
0000003FC0
0000003FC0
0000003FC0
0000003FC0
0000003FC0
0000003FC0
0000003FC0
0000003FC0
0000003FC0
0000003FC0
0000003FC0
0000003FC0
0000003FC0
0000003FC0
0000003FC0
0000003FC0
0000003FC0
0000003FC0
0000003FC0
0300003FC0
3F00003FC0
FF00007FC0
FF80007F80
7FC000FF80
7FE001FF80
3FF003FF00
3FFE1FFF00
1FFFFFFE00
0FFFFFFC00
07FFFFF800
03FFFFF000
00FFFFE000
003FFF8000
0007FC0000
ENDCHAR
STARTCHAR 004B
ENCODING 75
SWIDTH 615 0
DWIDTH 53 0
BBX 46 62 6 0
BITMAP
FF0000003FF0
FF0000007FE0
FF000000FFC0
FF000000FF80
FF000001FF00
FF000003FE00
FF000007FC00
FF00000FF800
FF00001FF800
FF00003FF000
FF00007FE000
FF0000FFC000
FF0001FF8000
FF0003FF0000
FF0007FE0000
FF000FFC0000
FF001FF80000
FF001FF00000
FF003FE00000
FF007FC00000
FF00FF800000
FF01FF000000
FF03FE000000
FF07FC000000
FF0FFC000000
FF1FF8000000
FF3FF0000000
FF7FE0000000
FFFFC0000000
FFFF80000000
FFFF80000000
FFFFC0000000
FFFFE0000000
FF7FF0000000
FF3FF8000000
FF1FF8000000
FF0FFC000000
FF07FE000000
FF03FF000000
FF01FF800000
FF00FFC00000
FF007FE00000
FF003FF00000
FF001FF80000
FF000FFC0000
FF0007FE0000
FF0003FF0000
FF0001FF8000
FF0000FFC000
FF00007FE000
FF00003FF000
FF00001FF800
FF00000FFC00
FF000007FE00
FF000003FF00
FF000001FF00
FF000001FF80
FF000000FFC0
FF0000007FE0
FF0000003FF0
FF0000001FF8
FF0000000FFC
ENDCHAR
STARTCHAR 004C
ENCODING 76
SWIDTH 522 0
DWIDTH 45 0
BBX 36 62 7 0
BITMAP
FF00000000
FF00000000
FF00000000
FF00000000
FF00000000
FF00000000
FF00000000
FF00000000
FF00000000
FF00000000
FF00000000
FF00000000
FF00000000
FF00000000
FF00000000
FF00000000
FF00000000
FF00000000
FF00000000
FF00000000
FF00000000
FF00000000
FF00000000
FF00000000
FF00000000
FF00000000
FF00000000
FF00000000
FF00000000
FF00000000
FF00000000
FF00000000
FF00000000
FF00000000
FF00000000
FF00000000
FF00000000
FF00000000
FF00000000
FF00000000
FF00000000
FF00000000
FF00000000
FF00000000
FF00000000
FF00000000
FF00000000
FF00000000
FF00000000
FF00000000
FF00000000
FF00000000
FF00000000
FF00000000
FF00000000
FFFFFFFFF0
FFFFFFFFF0
FFFFFFFFF0
FFFFFFFFF0
FFFFFFFFF0
FFFFFFFFF0
FFFFFFFFF0
ENDCHAR
STARTCHAR 004D
ENCODING 77
SWIDTH 847 0
DWIDTH 73 0
BBX 61 62 6 0
BITMAP
FE000000000007F8
FF000000000007F8
FF000000000007F8
FF80000000000FF8
FF80000000000FF8
FFC0000000001FF8
FFC0000000001FF8
FFE0000000003FF8
FFE0000000003FF8
FFF0000000007FF8
FFF0000000007FF8
FFF000000000FFF8
FFF800000000FFF8
FFF800000001FFF8
FFFC00000001FFF8
FFFC00000003FFF8
FFFE00000003FFF8
FEFE00000007FFF8
FEFF00000007FFF8
FE7F00000007F7F8
FE7F8000000FF7F8
FE7F8000000FE7F8
FE3FC000001FE7F8
FE3FC000001FC7F8
FE1FE000003FC7F8
FE1FE000003F87F8
FE0FF000007F87F8
FE0FF000007F87F8
FE07F80000FF07F8
FE07F80000FF07F8
FE03F80001FE07F8
FE03FC0001FE07F8
FE01FC0003FC07F8
FE01FE0003FC07F8
FE00FE0007F807F8
FE00FF0007F807F8
FE00FF0007F007F8
FE007F800FF007F8
FE007F800FE007F8
FE003FC01FE007F8
FE003FC01FC007F8
FE001FE03FC007F8
FE001FE03FC007F8
FE000FF07F8007F8
FE000FF07F8007F8
FE0007F8FF0007F8
FE0007F8FF0007F8
FE0003FDFE0007F8
FE0003FDFE0007F8
FE0001FFFC0007F8
FE0001FFFC0007F8
FE0001FFF80007F8
FE0000FFF80007F8
FE0000FFF00007F8
FE00007FF00007F8
FE00007FE00007F8
FE00003FE00007F8
FE00003FE00007F8
FE00001FC00007F8
FE00001FC00007F8
FE00000F800007F8
FE00000F800007F8
ENDCHAR
STARTCHAR 004E
ENCODING 78
SWIDTH 696 0
DWIDTH 60 0
BBX 48 62 6 0
BITMAP
FF00000000FF
FF80000000FF
FF80000000FF
FFC0000000FF
FFE0000000FF
FFE0000000FF
FFF0000000FF
FFF8000000FF
FFF8000000FF
FFFC000000FF
FFFE000000FF
FFFE000000FF
FFFF000000FF
FFFF800000FF
FFFF800000FF
FF7FC00000FF
FF3FE00000FF
FF3FE00000FF
FF1FF00000FF
FF0FF80000FF
FF0FF80000FF
FF07FC0000FF
FF03FE0000FF
FF03FE0000FF
FF01FF0000FF
FF00FF8000FF
FF00FF8000FF
FF007FC000FF
FF003FE000FF
FF003FE000FF
FF001FF000FF
FF000FF800FF
FF000FF800FF
FF0007FC00FF
FF0003FE00FF
FF0003FE00FF
FF0001FF00FF
FF0000FF80FF
FF0000FF80FF
FF00007FC0FF
FF00003FE0FF
FF00003FE0FF
FF00001FF0FF
FF00000FF8FF
FF00000FF8FF
FF000007FCFF
FF000003FEFF
FF000003FEFF
FF000001FFFF
FF000000FFFF
FF000000FFFF
FF0000007FFF
FF0000003FFF
FF0000003FFF
FF0000001FFF
FF0000000FFF
FF0000000FFF
FF00000007FF
FF00000003FF
FF00000003FF
FF00000001FF
FF00000000FF
ENDCHAR
STARTCHAR 004F
ENCODING 79
SWIDTH 731 0
DWIDTH 63 0
BBX 57 64 3 -1
BITMAP
000001FFC0000000
00003FFFFE000000
0000FFFFFF800000
0003FFFFFFE00000
000FFFFFFFF80000
001FFFFFFFFC0000
007FFFFFFFFE0000
00FFFFE3FFFF8000
01FFF8000FFFC000
01FFE00003FFC000
03FF800000FFE000
07FF0000007FF000
0FFC0000001FF800
0FF80000001FF800
1FF80000000FFC00
1FF000000007FC00
3FE000000003FE00
3FE000000003FE00
3FC000000001FE00
7FC000000001FF00
7F8000000000FF00
7F8000000000FF00
7F8000000000FF00
FF8000000000FF80
FF00000000007F80
FF00000000007F80
FF00000000007F80
FF00000000007F80
FF00000000007F80
FF00000000007F80
FF00000000007F80
FF00000000007F80
FF00000000007F80
FF00000000007F80
FF00000000007F80
FF00000000007F80
FF00000000007F80
FF00000000007F80
FF00000000007F80
FF00000000007F80
FF8000000000FF80
7F8000000000FF00
7F8000000000FF00
7F8000000000FF00
7FC000000001FF00
3FC000000001FE00
3FE000000003FE00
3FE000000003FE00
1FF000000007FC00
1FF80000000FFC00
0FF80000000FF800
0FFC0000001FF800
07FE0000003FF000
03FF800000FFE000
01FFE00003FFC000
01FFF8000FFFC000
00FFFFE0FFFF8000
007FFFFFFFFF0000
001FFFFFFFFC0000
000FFFFFFFF80000
0003FFFFFFE00000
0000FFFFFF800000
00003FFFFE000000
000001FFC0000000
ENDCHAR
STARTCHAR 0050
ENCODING 80
SWIDTH 615 0
DWIDTH 53 0
BBX 44 62 6 0
BITMAP
FFFFFFFC0000
FFFFFFFF8000
FFFFFFFFE000
FFFFFFFFF800
FFFFFFFFFC00
FFFFFFFFFE00
FFFFFFFFFF00
FF00003FFF80
FF000001FFC0
FF000000FFC0
FF0000007FE0
FF0000003FE0
FF0000001FE0
FF0000001FF0
FF0000000FF0
FF0000000FF0
FF0000000FF0
FF0000000FF0
FF00000007F0
FF00000007F0
FF00000007F0
FF0000000FF0
FF0000000FF0
FF0000000FF0
FF0000000FF0
FF0000001FF0
FF0000001FE0
FF0000003FE0
FF0000007FE0
FF000000FFC0
FF000003FFC0
FF00001FFF80
FFFFFFFFFF00
FFFFFFFFFE00
FFFFFFFFFC00
FFFFFFFFF800
FFFFFFFFF000
FFFFFFFF8000
FFFFFFFC0000
FF0000000000
FF0000000000
FF0000000000
FF0000000000
FF0000000000
FF0000000000
FF0000000000
FF0000000000
FF0000000000
FF0000000000
FF0000000000
FF0000000000
FF0000000000
FF0000000000
FF0000000000
FF0000000000
FF0000000000
FF0000000000
FF0000000000
FF0000000000
FF0000000000
FF0000000000
FF0000000000
ENDCHAR
STARTCHAR 0051
ENCODING 81
SWIDTH 731 0
DWIDTH 63 0
BBX 57 64 3 -1
BITMAP
000001FFC0000000
00003FFFFE000000
0000FFFFFF800000
0003FFFFFFE00000
000FFFFFFFF80000
001FFFFFFFFC0000
007FFFFFFFFE0000
00FFFFE3FFFF8000
01FFF8000FFFC000
01FFE00003FFC000
03FF800000FFE000
07FF0000007FF000
0FFC0000001FF800
0FF80000001FF800
1FF80000000FFC00
1FF000000007FC00
3FE000000003FE00
3FE000000003FE00
3FC000000001FE00
7FC000000001FF00
7F8000000000FF00
7F8000000000FF00
7F8000000000FF00
FF8000000000FF80
FF00000000007F80
FF00000000007F80
FF00000000007F80
FF00000000007F80
FF00000000007F80
FF00000000007F80
FF00000000007F80
FF00000000007F80
FF00000000007F80
FF00000000007F80
FF00000000007F80
FF00000000007F80
FF00000000007F80
FF00000000007F80
FF00000000007F80
FF00000000007F80
FF8000000000FF80
7F8000000000FF00
7F8000000000FF00
7F8000000180FF00
7FC0000003C1FF00
3FC0000007E1FE00
3FE000001FF3FE00
3FE000001FFBFE00
1FF000000FFFFC00
1FF8000007FFFC00
0FF8000003FFF800
0FFC000001FFF800
07FE000000FFF000
03FF800000FFE000
01FFE00003FFF000
01FFF8000FFFF800
00FFFFE0FFFFFC00
007FFFFFFFFFFE00
001FFFFFFFFFFF00
000FFFFFFFF9FF00
0003FFFFFFE0FE00
0000FFFFFF807C00
00003FFFFE003800
000001FFC0001000
ENDCHAR
STARTCHAR 0052
ENCODING 82
SWIDTH 638 0
DWIDTH 55 0
BBX 45 62 6 0
BITMAP
FFFFFFFC0000
FFFFFFFF8000
FFFFFFFFE000
FFFFFFFFF800
FFFFFFFFFC00
FFFFFFFFFE00
FFFFFFFFFF00
FF00003FFF80
FF000001FFC0
FF000000FFC0
FF0000007FE0
FF0000003FE0
FF0000001FE0
FF0000001FF0
FF0000000FF0
FF0000000FF0
FF0000000FF0
FF0000000FF0
FF00000007F0
FF00000007F0
FF00000007F0
FF0000000FF0
FF0000000FF0
FF0000000FF0
FF0000000FF0
FF0000001FF0
FF0000001FE0
FF0000003FE0
FF0000007FE0
FF000000FFC0
FF000003FFC0
FF00001FFF80
FFFFFFFFFF00
FFFFFFFFFE00
FFFFFFFFFC00
FFFFFFFFF800
FFFFFFFFF000
FFFFFFFFC000
FFFFFFFFC000
FF00003FE000
FF00001FE000
FF00001FF000
FF00001FF000
FF00000FF800
FF00000FF800
FF000007FC00
FF000007FC00
FF000003FE00
FF000003FE00
FF000001FF00
FF000001FF00
FF000000FF80
FF000000FF80
FF0000007FC0
FF0000007FC0
FF0000003FE0
FF0000003FE0
FF0000001FF0
FF0000001FF0
FF0000000FF0
FF0000000FF8
FF00000007F8
ENDCHAR
STARTCHAR 0053
ENCODING 83
SWIDTH 627 0
DWIDTH 54 0
BBX 48 64 3 -1
BITMAP
00003FF80000
0003FFFF8000
000FFFFFF000
003FFFFFFC00
007FFFFFFE00
01FFFFFFFF80
03FFFFFFFFC0
03FFF81FFFE0
07FF8003FFE0
0FFE00007FF0
0FFC00003FF8
1FF800001FFC
1FF000000FFC
1FE0000007FC
1FE0000003FE
3FE0000003FE
3FE0000001FE
3FE0000001FF
3FE0000001F8
1FE000000000
1FE000000000
1FF000000000
1FF800000000
0FFE00000000
0FFF80000000
07FFF0000000
03FFFE000000
01FFFFE00000
00FFFFFC0000
007FFFFFC000
001FFFFFF800
0007FFFFFE00
0000FFFFFF80
00000FFFFFC0
000001FFFFF0
0000001FFFF8
00000003FFF8
000000007FFC
000000000FFE
0000000007FE
0000000003FE
0000000001FF
0000000000FF
0000000000FF
0100000000FF
7F00000000FF
FF80000000FF
FF80000000FF
7FC0000000FF
7FC0000000FF
7FE0000001FF
3FF0000003FE
3FF8000003FE
1FFC00000FFC
0FFF00001FFC
0FFFC0007FF8
07FFFC07FFF0
03FFFFFFFFE0
00FFFFFFFFC0
007FFFFFFF80
001FFFFFFF00
0007FFFFFC00
0001FFFFE000
00001FFE0000
ENDCHAR
STARTCHAR 0054
ENCODING 84
SWIDTH 603 0
DWIDTH 52 0
BBX 50 62 1 0
BITMAP
FFFFFFFFFFFFC0
FFFFFFFFFFFFC0
FFFFFFFFFFFFC0
FFFFFFFFFFFFC0
FFFFFFFFFFFFC0
FFFFFFFFFFFFC0
FFFFFFFFFFFFC0
000007F8000000
000007F8000000
000007F8000000
000007F8000000
000007F8000000
000007F8000000
000007F8000000
000007F8000000
000007F8000000
000007F8000000
000007F8000000
000007F8000000
000007F8000000
000007F8000000
000007F8000000
000007F8000000
000007F8000000
000007F8000000
000007F8000000
000007F8000000
000007F8000000
000007F8000000
000007F8000000
000007F8000000
000007F8000000
000007F8000000
000007F8000000
000007F8000000
000007F8000000
000007F8000000
000007F8000000
000007F8000000
000007F8000000
000007F8000000
000007F8000000
000007F8000000
000007F8000000
000007F8000000
000007F8000000
000007F8000000
000007F8000000
000007F8000000
000007F8000000
000007F8000000
000007F8000000
000007F8000000
000007F8000000
000007F8000000
000007F8000000
000007F8000000
000007F8000000
000007F8000000
000007F8000000
000007F8000000
000007F8000000
ENDCHAR
STARTCHAR 0055
ENCODING 85
SWIDTH 708 0
DWIDTH 61 0
BBX 49 63 6 -1
BITMAP
FF000000007F80
FF000000007F80
FF000000007F80
FF000000007F80
FF000000007F80
FF000000007F80
FF000000007F80
FF000000007F80
FF000000007F80
FF000000007F80
FF000000007F80
FF000000007F80
FF000000007F80
FF000000007F80
FF000000007F80
FF000000007F80
FF000000007F80
FF000000007F80
FF000000007F80
FF000000007F80
FF000000007F80
FF000000007F80
FF000000007F80
FF000000007F80
FF000000007F80
FF000000007F80
FF000000007F80
FF000000007F80
FF000000007F80
FF000000007F80
FF000000007F80
FF000000007F80
FF000000007F80
FF000000007F80
FF000000007F80
FF000000007F80
FF000000007F80
FF000000007F80
FF000000007F80
FF000000007F80
FF000000007F80
FF000000007F80
FF000000007F80
FF000000007F80
FF80000000FF00
7F80000000FF00
7F80000000FF00
7FC0000001FF00
3FE0000003FE00
3FE0000003FE00
3FF0000007FC00
1FF800000FFC00
0FFC00001FF800
0FFF00007FF800
07FFC001FFF000
03FFF81FFFE000
01FFFFFFFFC000
00FFFFFFFF8000
007FFFFFFF0000
001FFFFFFC0000
0007FFFFF00000
0001FFFFC00000
00001FFC000000
ENDCHAR
STARTCHAR 0056
ENCODING 86
SWIDTH 615 0
DWIDTH 53 0
BBX 51 62 1 0
BITMAP
FF000000001FE0
FF000000001FE0
FF000000001FE0
7F800000003FC0
7F800000003FC0
7F800000003FC0
3FC00000007F80
3FC00000007F80
3FC00000007F80
1FE0000000FF00
1FE0000000FF00
1FE0000000FF00
0FF0000001FE00
0FF0000001FE00
0FF0000001FE00
07F8000003FC00
07F8000003FC00
07F8000003FC00
03FC000007F800
03FC000007F800
03FC000007F800
01FE00000FF000
01FE00000FF000
01FE00000FF000
00FF00001FE000
00FF00001FE000
00FF00001FE000
007F80003FC000
007F80003FC000
007F80003FC000
003FC0007F8000
003FC0007F8000
003FC0007F8000
001FE000FF0000
001FE000FF0000
001FE000FF0000
000FF001FE0000
000FF001FE0000
000FF001FE0000
0007F803FC0000
0007F803FC0000
0007F803FC0000
0003FC07F80000
0003FC07F80000
0003FC07F80000
0001FE0FF00000
0001FE0FF00000
0001FE0FF00000
0000FF1FE00000
0000FF1FE00000
0000FF1FE00000
00007FBFC00000
00007FBFC00000
00007FBFC00000
00003FFF800000
00003FFF800000
00003FFF800000
00001FFF000000
00001FFF000000
00001FFF000000
00000FFE000000
00000FFE000000
ENDCHAR
STARTCHAR 0057
ENCODING 87
SWIDTH 952 0
DWIDTH 82 0
BBX 79 62 1 0
BITMAP
FF0000000FF0000001FE
7F8000001FF0000001FE
7F8000001FF8000001FE
7F8000001FF8000003FC
3FC000001FF8000003FC
3FC000003FF8000003FC
3FC000003FFC000003FC
3FC000003FFC000007F8
1FE000007FFC000007F8
1FE000007FFE000007F8
1FE000007FFE00000FF0
0FF000007FFE00000FF0
0FF00000FFFE00000FF0
0FF00000FFFF00000FF0
0FF00000FFFF00001FE0
07F80001FEFF00001FE0
07F80001FE7F80001FE0
07F80001FE7F80003FC0
03FC0001FC7F80003FC0
03FC0003FC3F80003FC0
03FC0003FC3FC0003F80
03FC0003FC3FC0007F80
01FE0003F83FC0007F80
01FE0007F81FC0007F80
01FE0007F81FE0007F00
00FE0007F01FE000FF00
00FF000FF00FE000FF00
00FF000FF00FF000FE00
007F000FF00FF001FE00
007F800FE00FF001FE00
007F801FE007F001FE00
007F801FE007F801FC00
003F801FC007F803FC00
003FC03FC003F803FC00
003FC03FC003FC03F800
001FC03FC003FC07F800
001FE03F8003FC07F800
001FE07F8001FC07F800
001FE07F8001FE07F000
000FE07F0001FE0FF000
000FF0FF0000FE0FF000
000FF0FF0000FF0FE000
0007F0FF0000FF1FE000
0007F8FE0000FF1FE000
0007F9FE00007F1FE000
0007F9FE00007F9FC000
0003F9FC00007FBFC000
0003FDFC00003FBFC000
0003FFFC00003FBF8000
0001FFFC00003FFF8000
0001FFF800003FFF8000
0001FFF800001FFF8000
0001FFF800001FFF0000
0000FFF000001FFF0000
0000FFF000000FFF0000
0000FFF000000FFE0000
00007FE000000FFE0000
00007FE0000007FE0000
00007FE0000007FC0000
00007FE0000007FC0000
00003FC0000007FC0000
00003FC0000003FC0000
ENDCHAR
STARTCHAR 0058
ENCODING 88
SWIDTH 627 0
DWIDTH 54 0
BBX 51 62 1 0
BITMAP
7FC00000003FE0
7FE00000007FC0
3FE0000000FFC0
1FF0000000FF80
1FF8000001FF00
0FF8000003FF00
07FC000003FE00
07FE000007FC00
03FE00000FF800
01FF00000FF800
00FF80001FF000
00FF80003FE000
007FC0003FE000
003FE0007FC000
003FE000FF8000
001FF000FF8000
000FF801FF0000
000FF803FE0000
0007FC03FE0000
0003FE07FC0000
0003FE0FF80000
0001FF0FF80000
0000FF9FF00000
0000FFBFE00000
00007FFFE00000
00003FFFC00000
00003FFF800000
00001FFF800000
00000FFF000000
00000FFE000000
000007FE000000
000007FE000000
00000FFF000000
00001FFF000000
00001FFF800000
00003FFFC00000
00007FFFC00000
0000FFFFE00000
0000FF9FF00000
0001FF1FF80000
0003FF0FF80000
0003FE07FC0000
0007FC07FE0000
000FFC03FE0000
000FF801FF0000
001FF001FF8000
003FF000FF8000
003FE0007FC000
007FC0007FE000
00FFC0003FE000
00FF80001FF000
01FF00001FF800
03FF00000FF800
03FE000007FC00
07FC000007FE00
0FFC000003FE00
0FF8000001FF00
1FF0000001FF80
3FF0000000FF80
3FE00000007FC0
7FC00000007FE0
FFC00000003FE0
ENDCHAR
STARTCHAR 0059
ENCODING 89
SWIDTH 569 0
DWIDTH 49 0
BBX 49 62 0 0
BITMAP
FF80000000FF80
7FC0000000FF80
7FC0000001FF00
3FE0000001FE00
1FF0000003FE00
1FF0000007FC00
0FF8000007FC00
0FF800000FF800
07FC00000FF800
07FC00001FF000
03FE00001FE000
01FF00003FE000
01FF00007FC000
00FF80007FC000
00FF8000FF8000
007FC000FF8000
007FC001FF0000
003FE003FE0000
001FF003FE0000
001FF007FC0000
000FF807FC0000
000FF80FF80000
0007FC0FF80000
0003FC1FF00000
0003FE3FE00000
0001FF3FE00000
0001FF7FC00000
0000FFFFC00000
0000FFFF800000
00007FFF800000
00003FFF000000
00003FFE000000
00001FFE000000
00001FFC000000
00000FFC000000
00000FF8000000
000007F8000000
000007F8000000
000007F8000000
000007F8000000
000007F8000000
000007F8000000
000007F8000000
000007F8000000
000007F8000000
000007F8000000
000007F8000000
000007F8000000
000007F8000000
000007F8000000
000007F8000000
000007F8000000
000007F8000000
000007F8000000
000007F8000000
000007F8000000
000007F8000000
000007F8000000
000007F8000000
000007F8000000
000007F8000000
000007F8000000
ENDCHAR
STARTCHAR 005A
ENCODING 90
SWIDTH 627 0
DWIDTH 54 0
BBX 46 62 4 0
BITMAP
3FFFFFFFFFFC
3FFFFFFFFFFC
3FFFFFFFFFF8
3FFFFFFFFFF8
3FFFFFFFFFF0
3FFFFFFFFFF0
3FFFFFFFFFE0
000000007FC0
00000000FFC0
00000000FF80
00000001FF00
00000003FF00
00000003FE00
00000007FE00
00000007FC00
0000000FF800
0000001FF800
0000001FF000
0000003FF000
0000003FE000
0000007FC000
000000FFC000
000000FF8000
000001FF8000
000003FF0000
000003FE0000
000007FE0000
000007FC0000
00000FF80000
00001FF80000
00001FF00000
00003FF00000
00003FE00000
00007FC00000
0000FFC00000
0000FF800000
0001FF800000
0003FF000000
0003FE000000
0007FE000000
0007FC000000
000FFC000000
001FF8000000
001FF0000000
003FF0000000
003FE0000000
007FC0000000
00FFC0000000
00FF80000000
01FF80000000
01FF00000000
03FE00000000
07FE00000000
07FC00000000
0FFC00000000
1FFFFFFFFFFC
1FFFFFFFFFFC
3FFFFFFFFFFC
3FFFFFFFFFFC
7FFFFFFFFFFC
FFFFFFFFFFFC
FFFFFFFFFFFC
ENDCHAR
STARTCHAR 005B
ENCODING 91
SWIDTH 418 0
DWIDTH 36 0
BBX 17 96 12 -19
BITMAP
FFFF80
FFFF80
FFFF80
FFFF80
FFFF80
FFFF80
FFFF80
FE0000
FE0000
FE0000
FE0000
FE0000
FE0000
FE0000
FE0000
FE0000
FE0000
FE0000
FE0000
FE0000
FE0000
FE0000
FE0000
FE0000
FE0000
FE0000
FE0000
FE0000
FE0000
FE0000
FE0000
FE0000
FE0000
FE0000
FE0000
FE0000
FE0000
FE0000
FE0000
FE0000
FE0000
FE0000
FE0000
FE0000
FE0000
FE0000
FE0000
FE0000
FE0000
FE0000
FE0000
FE0000
FE0000
FE0000
FE0000
FE0000
FE0000
FE0000
FE0000
FE0000
FE0000
FE0000
FE0000
FE0000
FE0000
FE0000
FE0000
FE0000
FE0000
FE0000
FE0000
FE0000
FE0000
FE0000
FE0000
FE0000
FE0000
FE0000
FE0000
FE0000
FE0000
FE0000
FE0000
FE0000
FE0000
FE0000
FE0000
FE0000
FE0000
FFFF80
FFFF80
FFFF80
FFFF80
FFFF80
FFFF80
FFFF80
ENDCHAR
STARTCHAR 005C
ENCODING 92
SWIDTH 406 0
DWIDTH 35 0
BBX 24 62 5 0
BITMAP
FF0000
7F0000
7F8000
7F8000
7F8000
3F8000
3FC000
3FC000
3FC000
1FC000
1FE000
1FE000
1FE000
0FF000
0FF000
0FF000
07F000
07F800
07F800
07F800
03F800
03FC00
03FC00
03FC00
01FC00
01FE00
01FE00
01FE00
00FF00
00FF00
00FF00
007F00
007F80
007F80
007F80
003F80
003FC0
003FC0
003FC0
001FC0
001FE0
001FE0
001FE0
000FF0
000FF0
000FF0
0007F0
0007F8
0007F8
0007F8
0003F8
0003FC
0003FC
0003FC
0001FC
0001FE
0001FE
0001FE
0000FF
0000FF
0000FF
00007F
ENDCHAR
STARTCHAR 005D
ENCODING 93
SWIDTH 418 0
DWIDTH 36 0
BBX 17 96 6 -19
BITMAP
FFFF80
FFFF80
FFFF80
FFFF80
FFFF80
FFFF80
FFFF80
003F80
003F80
003F80
003F80
003F80
003F80
003F80
003F80
003F80
003F80
003F80
003F80
003F80
003F80
003F80
003F80
003F80
003F80
003F80
003F80
003F80
003F80
003F80
003F80
003F80
003F80
003F80
003F80
003F80
003F80
003F80
003F80
003F80
003F80
003F80
003F80
003F80
003F80
003F80
003F80
003F80
003F80
003F80
003F80
003F80
003F80
003F80
003F80
003F80
003F80
003F80
003F80
003F80
003F80
003F80
003F80
003F80
003F80
003F80
003F80
003F80
003F80
003F80
003F80
003F80
003F80
003F80
003F80
003F80
003F80
003F80
003F80
003F80
003F80
003F80
003F80
003F80
003F80
003F80
003F80
003F80
003F80
FFFF80
FFFF80
FFFF80
FFFF80
FFFF80
FFFF80
FFFF80
ENDCHAR
STARTCHAR 005E
ENCODING 94
SWIDTH 673 0
DWIDTH 58 0
BBX 40 25 9 38
BITMAP
0000080000
00001C0000
00003E0000
00007F0000
0000FF8000
0001FFC000
0003FFE000
0007FFF000
000FFFF800
001FF7FC00
003FE3FE00
007FC1FF00
00FF80FF80
01FF007FC0
03FE003FE0
07FC001FF0
0FF8000FF8
1FF00007FC
3FE00003FE
7FC00001FF
FF800000FF
7F0000007E
3E0000003C
1C0000001C
0800000008
ENDCHAR
STARTCHAR 005F
ENCODING 95
SWIDTH 661 0
DWIDTH 57 0
BBX 57 6 0 -9
BITMAP
FFFFFFFFFFFFFF80
FFFFFFFFFFFFFF80
FFFFFFFFFFFFFF80
FFFFFFFFFFFFFF80
FFFFFFFFFFFFFF80
FFFFFFFFFFFFFF80
ENDCHAR
STARTCHAR 0060
ENCODING 96
SWIDTH 510 0
DWIDTH 44 0
BBX 11 14 15 69
BITMAP
FC00
FC00
7E00
7E00
7F00
3F00
3F00
1F80
1F80
1FC0
0FC0
0FC0
07E0
07E0
ENDCHAR
STARTCHAR 0061
ENCODING 97
SWIDTH 557 0
DWIDTH 48 0
BBX 40 49 3 -1
BITMAP
0000FFE000
000FFFFC00
003FFFFF80
007FFFFFC0
01FFFFFFE0
03FFFFFFF0
07FFFFFFF8
07FFC07FFC
0FFE000FFC
0FF80007FE
1FF00003FE
1FE00001FF
3FE00000FF
1FC00000FF
03C00000FF
00000000FF
000000007F
000000007F
00000000FF
0000007FFF
00003FFFFF
0007FFFFFF
003FFFFFFF
00FFFFFFFF
03FFFFFFFF
07FFFFF07F
0FFFFC007F
1FFF00007F
3FF80000FF
3FE00000FF
7FC00000FF
7F800000FF
7F800000FF
7F000001FF
FF000001FF
FF000001FF
FF000003FF
7F000007FF
7F80000FFF
7F80001FFF
7FC0003FFF
3FF000FFFF
3FFF1FFF7F
1FFFFFFE7F
0FFFFFFC7F
07FFFFF87F
01FFFFE07F
00FFFF807F
000FFC0000
ENDCHAR
STARTCHAR 0062
ENCODING 98
SWIDTH 603 0
DWIDTH 52 0
BBX 42 63 6 -1
BITMAP
FF0000000000
FF0000000000
FF0000000000
FF0000000000
FF0000000000
FF0000000000
FF0000000000
FF0000000000
FF0000000000
FF0000000000
FF0000000000
FF0000000000
FF0000000000
FF0000000000
FF007FC00000
FF07FFF80000
FF1FFFFE0000
FF3FFFFF8000
FF7FFFFFC000
FFFFFFFFE000
FFFFFFFFF000
FFFF80FFF800
FFFC001FFC00
FFF0000FFC00
FFE00007FE00
FFC00003FF00
FFC00001FF00
FF800000FF00
FF800000FF80
FF0000007F80
FF0000007F80
FF0000007FC0
FE0000007FC0
FE0000003FC0
FE0000003FC0
FE0000003FC0
FE0000003FC0
FE0000003FC0
FE0000003FC0
FE0000003FC0
FE0000003FC0
FE0000003FC0
FE0000003FC0
FE0000003FC0
FE0000007FC0
FF0000007F80
FF0000007F80
FF000000FF80
FF800000FF80
FF800000FF00
FFC00001FF00
FFC00003FE00
FFE00007FE00
FFF0000FFC00
FFFC001FFC00
FFFF80FFF800
FFFFFFFFF000
FEFFFFFFE000
FE7FFFFFC000
FE3FFFFF8000
FE1FFFFE0000
FE07FFF80000
00007FC00000
ENDCHAR
STARTCHAR 0063
ENCODING 99
SWIDTH 557 0
DWIDTH 48 0
BBX 43 49 3 -1
BITMAP
00007FF00000
0003FFFE0000
000FFFFF8000
003FFFFFE000
007FFFFFF800
00FFFFFFFC00
01FFFFFFFE00
03FFF07FFE00
07FF800FFF00
0FFE0003FF80
0FFC0001FF80
1FF80000FFC0
1FF000007FC0
3FE000003FE0
3FE000003E00
3FC000001000
7FC000000000
7F8000000000
7F8000000000
7F8000000000
7F8000000000
7F8000000000
FF8000000000
FF8000000000
FF8000000000
FF8000000000
FF8000000000
7F8000000000
7F8000000000
7F8000000000
7F8000000000
7F8000000000
7FC000000000
3FC000000000
3FE000003C00
3FE000003FC0
1FF000007FC0
1FF80000FFC0
0FF80000FF80
0FFE0003FF80
07FF8007FF00
03FFF07FFE00
01FFFFFFFC00
00FFFFFFFC00
007FFFFFF000
003FFFFFE000
000FFFFF8000
0003FFFE0000
00003FF00000
ENDCHAR
STARTCHAR 0064
ENCODING 100
SWIDTH 603 0
DWIDTH 52 0
BBX 43 63 3 -1
BITMAP
000000001FE0
000000001FE0
000000001FE0
000000001FE0
000000001FE0
000000001FE0
000000001FE0
000000001FE0
000000001FE0
000000001FE0
000000001FE0
000000001FE0
000000001FE0
000000001FE0
0000FFC01FE0
0007FFF81FE0
001FFFFE1FE0
003FFFFF9FE0
00FFFFFFDFE0
01FFFFFFFFE0
03FFFFFFFFE0
03FFE03FFFE0
07FF0007FFE0
0FFE0003FFE0
0FF80001FFE0
1FF00000FFE0
1FF000007FE0
3FE000003FE0
3FE000003FE0
3FC000003FE0
7FC000001FE0
7F8000001FE0
7F8000001FE0
7F8000001FE0
7F8000000FE0
7F8000000FE0
FF8000000FE0
FF8000000FE0
FF8000000FE0
FF8000000FE0
FF8000000FE0
7F8000000FE0
7F8000000FE0
7F8000001FE0
7F8000001FE0
7F8000001FE0
7FC000001FE0
3FC000003FE0
3FE000003FE0
3FE000007FE0
1FF000007FE0
1FF00000FFE0
0FF80001FFE0
0FFC0003FFE0
07FF0007FFE0
03FFC03FFFE0
03FFFFFFFFE0
01FFFFFFEFE0
00FFFFFFCFE0
003FFFFF8FE0
001FFFFE0FE0
0007FFF80FE0
0000FFC00000
ENDCHAR
STARTCHAR 0065
ENCODING 101
SWIDTH 592 0
DWIDTH 51 0
BBX 44 49 3 -1
BITMAP
00003FF00000
0003FFFE0000
000FFFFF8000
003FFFFFE000
007FFFFFF000
00FFFFFFF800
01FFFFFFFC00
03FFE00FFE00
07FF0003FF00
0FFC0001FF80
0FF80000FF80
1FF000007FC0
1FF000003FC0
3FE000003FE0
3FC000001FE0
3FC000001FE0
7FC000000FE0
7F8000000FF0
7F8000000FF0
7F8000000FF0
7F8000000FF0
7FFFFFFFFFF0
7FFFFFFFFFF0
FFFFFFFFFFF0
FFFFFFFFFFF0
FFFFFFFFFFF0
FFFFFFFFFFF0
FF8000000000
7F8000000000
7F8000000000
7F8000000000
7F8000000000
7FC000000000
3FC000000000
3FC000000C00
3FE000001F80
1FF000003FE0
1FF000003FE0
0FF80000FFC0
0FFE0001FFC0
07FF0007FF80
03FFF03FFF00
01FFFFFFFE00
00FFFFFFFC00
007FFFFFF800
003FFFFFF000
000FFFFFC000
0003FFFF0000
00003FF00000
ENDCHAR
STARTCHAR 0066
ENCODING 102
SWIDTH 360 0
DWIDTH 31 0
BBX 27 63 3 0
BITMAP
0000FFE0
0007FFE0
000FFFE0
003FFFE0
003FFFE0
007FFFE0
00FFF800
00FF8000
00FF0000
00FF0000
00FE0000
01FE0000
01FE0000
01FE0000
01FE0000
01FE0000
FFFFFFE0
FFFFFFE0
FFFFFFE0
FFFFFFE0
FFFFFFE0
FFFFFFE0
01FE0000
01FE0000
01FE0000
01FE0000
01FE0000
01FE0000
01FE0000
01FE0000
01FE0000
01FE0000
01FE0000
01FE0000
01FE0000
01FE0000
01FE0000
01FE0000
01FE0000
01FE0000
01FE0000
01FE0000
01FE0000
01FE0000
01FE0000
01FE0000
01FE0000
01FE0000
01FE0000
01FE0000
01FE0000
01FE0000
01FE0000
01FE0000
01FE0000
01FE0000
01FE0000
01FE0000
01FE0000
01FE0000
01FE0000
01FE0000
01FE0000
ENDCHAR
STARTCHAR 0067
ENCODING 103
SWIDTH 603 0
DWIDTH 52 0
BBX 43 69 3 -21
BITMAP
0000FFC00000
0007FFF80FE0
001FFFFE0FE0
003FFFFF8FE0
00FFFFFFCFE0
01FFFFFFEFE0
03FFFFFFFFE0
03FFE03FFFE0
07FF0007FFE0
0FFE0003FFE0
0FF80001FFE0
1FF00000FFE0
1FF000007FE0
3FE000003FE0
3FE000003FE0
3FC000003FE0
7FC000001FE0
7F8000001FE0
7F8000001FE0
7F8000001FE0
7F8000000FE0
7F8000000FE0
FF8000000FE0
FF8000000FE0
FF8000000FE0
FF8000000FE0
FF8000000FE0
7F8000000FE0
7F8000000FE0
7F8000001FE0
7F8000001FE0
7F8000001FE0
7FC000001FE0
3FC000003FE0
3FE000003FE0
3FE000007FE0
1FF000007FE0
1FF00000FFE0
0FF80001FFE0
0FFC0003FFE0
07FF0007FFE0
03FFC03FFFE0
03FFFFFFFFE0
01FFFFFFFFE0
00FFFFFFDFE0
003FFFFF9FE0
001FFFFE1FE0
0007FFF81FE0
0000FFC01FE0
000000001FE0
000000001FE0
000000001FE0
000000001FC0
000000003FC0
000000003FC0
000000003FC0
006000007FC0
01F00000FF80
07F80000FF80
0FFC0001FF80
0FFE0007FF00
07FFC03FFF00
03FFFFFFFE00
01FFFFFFFC00
00FFFFFFF800
007FFFFFF000
001FFFFFE000
000FFFFF8000
0001FFFC0000
ENDCHAR
STARTCHAR 0068
ENCODING 104
SWIDTH 603 0
DWIDTH 52 0
BBX 41 62 6 0
BITMAP
FE0000000000
FE0000000000
FE0000000000
FE0000000000
FE0000000000
FE0000000000
FE0000000000
FE0000000000
FE0000000000
FE0000000000
FE0000000000
FE0000000000
FE0000000000
FE0000000000
FE007FE00000
FE03FFFC0000
FE0FFFFF0000
FE1FFFFFC000
FE7FFFFFE000
FEFFFFFFF000
FFFFFFFFF000
FFFFC3FFF800
FFFE003FFC00
FFF8000FFC00
FFF00007FE00
FFE00003FE00
FFC00003FE00
FFC00001FF00
FF800001FF00
FF800000FF00
FF800000FF00
FF000000FF80
FF0000007F80
FF0000007F80
FF0000007F80
FF0000007F80
FF0000007F80
FF0000007F80
FF0000007F80
FF0000007F80
FF0000007F80
FF0000007F80
FF0000007F80
FF0000007F80
FF0000007F80
FF0000007F80
FF0000007F80
FF0000007F80
FF0000007F80
FF0000007F80
FF0000007F80
FF0000007F80
FF0000007F80
FF0000007F80
FF0000007F80
FF0000007F80
FF0000007F80
FF0000007F80
FF0000007F80
FF0000007F80
FF0000007F80
FF0000007F80
ENDCHAR
STARTCHAR 0069
ENCODING 105
SWIDTH 243 0
DWIDTH 21 0
BBX 8 63 7 0
BITMAP
FF
FF
FF
FF
FF
FF
FF
FF
00
00
00
00
00
00
00
00
FF
FF
FF
FF
FF
FF
FF
FF
FF
FF
FF
FF
FF
FF
FF
FF
FF
FF
FF
FF
FF
FF
FF
FF
FF
FF
FF
FF
FF
FF
FF
FF
FF
FF
FF
FF
FF
FF
FF
FF
FF
FF
FF
FF
FF
FF
FF
ENDCHAR
STARTCHAR 006A
ENCODING 106
SWIDTH 267 0
DWIDTH 23 0
BBX 17 84 -1 -21
BITMAP
003F80
003F80
003F80
003F80
003F80
003F80
003F80
003F80
000000
000000
000000
000000
000000
000000
000000
000000
003F80
003F80
003F80
003F80
003F80
003F80
003F80
003F80
003F80
003F80
003F80
003F80
003F80
003F80
003F80
003F80
003F80
003F80
003F80
003F80
003F80
003F80
003F80
003F80
003F80
003F80
003F80
003F80
003F80
003F80
003F80
003F80
003F80
003F80
003F80
003F80
003F80
003F80
003F80
003F80
003F80
003F80
003F80
003F80
003F80
003F80
003F80
003F80
003F80
003F80
003F80
003F80
003F80
003F80
007F80
007F80
007F80
007F80
00FF80
01FF80
0FFF80
FFFF00
FFFF00
FFFE00
FFFE00
FFFC00
FFF000
FFC000
ENDCHAR
STARTCHAR 006B
ENCODING 107
SWIDTH 510 0
DWIDTH 44 0
BBX 39 62 6 0
BITMAP
FF00000000
FF00000000
FF00000000
FF00000000
FF00000000
FF00000000
FF00000000
FF00000000
FF00000000
FF00000000
FF00000000
FF00000000
FF00000000
FF00000000
FF00000000
FF00001FF8
FF00003FF0
FF00007FE0
FF0000FFC0
FF0001FF80
FF0001FF00
FF0003FF00
FF0007FE00
FF000FFC00
FF001FF800
FF003FF000
FF007FE000
FF00FFC000
FF00FF8000
FF01FF8000
FF03FF0000
FF07FE0000
FF0FFC0000
FF1FF80000
FF3FF00000
FF3FE00000
FF7FC00000
FFFFC00000
FFFF800000
FFFFC00000
FF7FE00000
FF3FF00000
FF1FF80000
FF0FFC0000
FF07FE0000
FF07FF0000
FF03FF8000
FF01FF8000
FF00FFC000
FF007FE000
FF003FF000
FF001FF800
FF000FFC00
FF0007FE00
FF0003FF00
FF0001FF80
FF0000FFC0
FF00007FE0
FF00003FF0
FF00001FF8
FF00001FFC
FF00000FFE
ENDCHAR
STARTCHAR 006C
ENCODING 108
SWIDTH 243 0
DWIDTH 21 0
BBX 8 62 7 0
BITMAP
FF
FF
FF
FF
FF
FF
FF
FF
FF
FF
FF
FF
FF
FF
FF
FF
FF
FF
FF
FF
FF
FF
FF
FF
FF
FF
FF
FF
FF
FF
FF
FF
FF
FF
FF
FF
FF
FF
FF
FF
FF
FF
FF
FF
FF
FF
FF
FF
FF
FF
FF
FF
FF
FF
FF
FF
FF
FF
FF
FF
FF
FF
ENDCHAR
STARTCHAR 006D
ENCODING 109
SWIDTH 859 0
DWIDTH 74 0
BBX 63 48 6 0
BITMAP
0000FF00001FF000
FE07FFE000FFFE00
FE1FFFF801FFFF80
FE7FFFFC07FFFFC0
FEFFFFFE0FFFFFE0
FFFFFFFF1FFFFFF0
FFFFFFFFBFFFFFF8
FFFC07FFFFC07FF8
FFF001FFFF001FFC
FFE0007FFE0007FC
FFC0003FFC0007FE
FF80003FF80003FE
FF80001FF80001FE
FF00001FF00001FE
FF00001FF00001FE
FF00000FF00001FE
FF00000FF00000FE
FF00000FF00000FE
FF00000FE00000FE
FF00000FE00000FE
FF00000FE00000FE
FF00000FE00000FE
FF00000FE00000FE
FF00000FE00000FE
FF00000FE00000FE
FF00000FE00000FE
FF00000FE00000FE
FF00000FE00000FE
FF00000FE00000FE
FF00000FE00000FE
FF00000FE00000FE
FF00000FE00000FE
FF00000FE00000FE
FF00000FE00000FE
FF00000FE00000FE
FF00000FE00000FE
FF00000FE00000FE
FF00000FE00000FE
FF00000FE00000FE
FF00000FE00000FE
FF00000FE00000FE
FF00000FE00000FE
FF00000FE00000FE
FF00000FE00000FE
FF00000FE00000FE
FF00000FE00000FE
FF00000FE00000FE
FF00000FE00000FE
ENDCHAR
STARTCHAR 006E
ENCODING 110
SWIDTH 603 0
DWIDTH 52 0
BBX 41 48 6 0
BITMAP
00007FE00000
FE03FFFC0000
FE0FFFFF0000
FE1FFFFFC000
FE7FFFFFE000
FEFFFFFFF000
FFFFFFFFF000
FFFFC3FFF800
FFFE003FFC00
FFF8000FFC00
FFF00007FE00
FFE00003FE00
FFC00003FE00
FFC00001FF00
FF800001FF00
FF800000FF00
FF800000FF00
FF000000FF80
FF0000007F80
FF0000007F80
FF0000007F80
FF0000007F80
FF0000007F80
FF0000007F80
FF0000007F80
FF0000007F80
FF0000007F80
FF0000007F80
FF0000007F80
FF0000007F80
FF0000007F80
FF0000007F80
FF0000007F80
FF0000007F80
FF0000007F80
FF0000007F80
FF0000007F80
FF0000007F80
FF0000007F80
FF0000007F80
FF0000007F80
FF0000007F80
FF0000007F80
FF0000007F80
FF0000007F80
FF0000007F80
FF0000007F80
FF0000007F80
ENDCHAR
STARTCHAR 006F
ENCODING 111
SWIDTH 603 0
DWIDTH 52 0
BBX 45 49 3 -1
BITMAP
00003FF00000
0003FFFE0000
000FFFFFC000
003FFFFFE000
007FFFFFF800
00FFFFFFFC00
01FFFFFFFE00
03FFF87FFF00
07FF8007FF80
0FFE0001FF80
0FFC0000FFC0
1FF800007FC0
1FF000003FE0
3FE000001FE0
3FE000001FF0
3FC000000FF0
7FC000000FF0
7F8000000FF8
7F8000000FF8
7F80000007F8
7F80000007F8
7F80000007F8
FF80000007F8
FF80000007F8
FF80000007F8
FF80000007F8
FF80000007F8
7F80000007F8
7F80000007F8
7F80000007F8
7F8000000FF8
7F8000000FF0
7FC000000FF0
3FC000000FF0
3FE000001FF0
3FE000001FE0
1FF000003FE0
1FF800007FC0
0FFC0000FFC0
0FFE0001FF80
07FF8007FF80
03FFF07FFF00
01FFFFFFFE00
00FFFFFFFC00
007FFFFFF800
003FFFFFE000
000FFFFFC000
0003FFFF0000
00003FF00000
ENDCHAR
STARTCHAR 0070
ENCODING 112
SWIDTH 603 0
DWIDTH 52 0
BBX 42 68 6 -20
BITMAP
00007FC00000
FE03FFF80000
FE1FFFFE0000
FE3FFFFF8000
FE7FFFFFC000
FEFFFFFFE000
FFFFFFFFF000
FFFF80FFF800
FFFC001FFC00
FFF0000FFC00
FFE00007FE00
FFC00003FF00
FFC00001FF00
FF800000FF00
FF800000FF80
FF0000007F80
FF0000007F80
FF0000007FC0
FE0000007FC0
FE0000003FC0
FE0000003FC0
FE0000003FC0
FE0000003FC0
FE0000003FC0
FE0000003FC0
FE0000003FC0
FE0000003FC0
FE0000003FC0
FE0000003FC0
FE0000003FC0
FE0000007FC0
FF0000007F80
FF0000007F80
FF000000FF80
FF800000FF80
FF800000FF00
FFC00001FF00
FFC00003FE00
FFE00007FE00
FFF0000FFC00
FFFC001FFC00
FFFF80FFF800
FFFFFFFFF000
FFFFFFFFE000
FF7FFFFFC000
FF3FFFFF8000
FF1FFFFE0000
FF03FFF80000
FF007FC00000
FF0000000000
FF0000000000
FF0000000000
FF0000000000
FF0000000000
FF0000000000
FF0000000000
FF0000000000
FF0000000000
FF0000000000
FF0000000000
FF0000000000
FF0000000000
FF0000000000
FF0000000000
FF0000000000
FF0000000000
FF0000000000
FF0000000000
ENDCHAR
STARTCHAR 0071
ENCODING 113
SWIDTH 603 0
DWIDTH 52 0
BBX 43 68 3 -20
BITMAP
0000FFC00000
0007FFF80FE0
001FFFFE0FE0
003FFFFF8FE0
00FFFFFFCFE0
01FFFFFFEFE0
03FFFFFFFFE0
03FFE03FFFE0
07FF0007FFE0
0FFE0003FFE0
0FF80001FFE0
1FF00000FFE0
1FF000007FE0
3FE000003FE0
3FE000003FE0
3FC000003FE0
7FC000001FE0
7F8000001FE0
7F8000001FE0
7F8000001FE0
7F8000000FE0
7F8000000FE0
FF8000000FE0
FF8000000FE0
FF8000000FE0
FF8000000FE0
FF8000000FE0
7F8000000FE0
7F8000000FE0
7F8000001FE0
7F8000001FE0
7F8000001FE0
7FC000001FE0
3FC000003FE0
3FE000003FE0
3FE000007FE0
1FF000007FE0
1FF00000FFE0
0FF80001FFE0
0FFC0003FFE0
07FF0007FFE0
03FFC03FFFE0
03FFFFFFFFE0
01FFFFFFFFE0
00FFFFFFDFE0
003FFFFF9FE0
001FFFFE1FE0
0007FFF81FE0
0000FFC01FE0
000000001FE0
000000001FE0
000000001FE0
000000001FE0
000000001FE0
000000001FE0
000000001FE0
000000001FE0
000000001FE0
000000001FE0
000000001FE0
000000001FE0
000000001FE0
000000001FE0
000000001FE0
000000001FE0
000000001FE0
000000001FE0
000000001FE0
ENDCHAR
STARTCHAR 0072
ENCODING 114
SWIDTH 371 0
DWIDTH 32 0
BBX 24 47 6 1
BITMAP
FE00FF
FE03FF
FE0FFF
FE3FFF
FE7FFF
FEFFFF
FEFFFF
FFFF80
FFFE00
FFF800
FFF000
FFE000
FFC000
FFC000
FF8000
FF8000
FF8000
FF0000
FF0000
FF0000
FF0000
FF0000
FF0000
FF0000
FF0000
FF0000
FF0000
FF0000
FF0000
FF0000
FF0000
FF0000
FF0000
FF0000
FF0000
FF0000
FF0000
FF0000
FF0000
FF0000
FF0000
FF0000
FF0000
FF0000
FF0000
FF0000
FF0000
ENDCHAR
STARTCHAR 0073
ENCODING 115
SWIDTH 534 0
DWIDTH 46 0
BBX 39 49 3 -1
BITMAP
0003FF8000
001FFFF800
007FFFFE00
01FFFFFF80
03FFFFFFC0
07FFFFFFE0
0FFFFFFFF0
1FFE00FFF8
1FF0001FF8
1FE0000FFC
3FC00007FC
3FC00003FE
3FC00003FE
3FC00001FE
3FC00001C0
3FC0000000
3FE0000000
3FF8000000
1FFE000000
1FFFC00000
0FFFFC0000
07FFFF8000
01FFFFF000
007FFFFE00
001FFFFF80
0003FFFFE0
00007FFFF0
000007FFF8
000000FFFC
0000001FFC
00000007FE
00000003FE
00000001FE
00000001FE
07000001FE
FF800001FE
7F800001FE
7FC00001FE
7FE00003FE
3FF00007FC
3FFC000FFC
1FFF003FF8
0FFFFFFFF8
07FFFFFFF0
03FFFFFFE0
01FFFFFFC0
007FFFFF00
001FFFFC00
0001FFE000
ENDCHAR
STARTCHAR 0074
ENCODING 116
SWIDTH 406 0
DWIDTH 35 0
BBX 31 61 1 -2
BITMAP
007F8000
007F8000
007F8000
007F8000
007F8000
007F8000
007F8000
007F8000
007F8000
007F8000
007F8000
007F8000
007F8000
FFFFFFFE
FFFFFFFE
FFFFFFFE
FFFFFFFE
FFFFFFFE
FFFFFFFE
007F8000
007F8000
007F8000
007F8000
007F8000
007F8000
007F8000
007F8000
007F8000
007F8000
007F8000
007F8000
007F8000
007F8000
007F8000
007F8000
007F8000
007F8000
007F8000
007F8000
007F8000
007F8000
007F8000
007F8000
007F8000
007F8000
007F8000
007F8000
007F8000
007F8000
007F8000
003FC000
003FC000
003FE000
003FF800
001FFFFE
001FFFFE
000FFFFE
0007FFFE
0003FFFE
0000FFFE
00001FFC
ENDCHAR
STARTCHAR 0075
ENCODING 117
SWIDTH 603 0
DWIDTH 52 0
BBX 41 48 5 -1
BITMAP
FF0000007F80
FF0000007F80
FF0000007F80
FF0000007F80
FF0000007F80
FF0000007F80
FF0000007F80
FF0000007F80
FF0000007F80
FF0000007F80
FF0000007F80
FF0000007F80
FF0000007F80
FF0000007F80
FF0000007F80
FF0000007F80
FF0000007F80
FF0000007F80
FF0000007F80
FF0000007F80
FF0000007F80
FF0000007F80
FF0000007F80
FF0000007F80
FF0000007F80
FF0000007F80
FF0000007F80
FF0000007F80
FF0000007F80
FF0000007F80
FF8000007F80
7F800000FF80
7F800000FF80
7FC00000FF80
7FC00001FF80
3FE00001FF80
3FE00003FF80
3FF00007FF80
1FF8000FFF80
1FFE003FFF80
0FFFC1FFFF80
07FFFFFFFF80
07FFFFFFBF80
03FFFFFF3F80
00FFFFFC3F80
007FFFF83F80
001FFFE03F80
0003FF000000
ENDCHAR
STARTCHAR 0076
ENCODING 118
SWIDTH 522 0
DWIDTH 45 0
BBX 41 47 2 0
BITMAP
FF0000007F80
FF0000007F80
7F0000007F00
7F800000FF00
7F800000FF00
3F800000FE00
3FC00001FE00
3FC00001FE00
1FC00001FC00
1FE00003FC00
1FE00003FC00
0FF00007F800
0FF00007F800
07F00007F000
07F8000FF000
07F8000FF000
03F8000FE000
03FC001FE000
03FC001FE000
01FC001FC000
01FE003FC000
01FE003FC000
00FE003F8000
00FF007F8000
00FF007F8000
007F007F0000
007F80FF0000
003F80FE0000
003FC0FE0000
003FC1FE0000
001FC1FC0000
001FE3FC0000
001FE3FC0000
000FE3F80000
000FF7F80000
000FF7F80000
0007F7F00000
0007FFF00000
0003FFE00000
0003FFE00000
0003FFE00000
0001FFC00000
0001FFC00000
0001FFC00000
0000FF800000
0000FF800000
0000FF800000
ENDCHAR
STARTCHAR 0077
ENCODING 119
SWIDTH 778 0
DWIDTH 67 0
BBX 63 47 2 0
BITMAP
FE00000FE00000FE
FF00000FE00001FE
FF00001FF00001FE
7F00001FF00001FC
7F80001FF00003FC
7F80003FF80003FC
3F80003FF80003F8
3FC0003FF80003F8
3FC0003FFC0007F8
1FC0007FFC0007F0
1FE0007FFC0007F0
1FE0007EFC000FF0
1FE000FEFE000FF0
0FE000FEFE000FE0
0FF000FE7E001FE0
0FF001FC7F001FE0
07F001FC7F001FC0
07F801FC7F003FC0
07F801F83F803FC0
03F803F83F803F80
03FC03F83F803F80
03FC03F01F807F80
01FC07F01FC07F80
01FC07F01FC07F00
01FE07E00FC0FF00
01FE0FE00FE0FF00
00FE0FE00FE0FE00
00FF0FC007E1FE00
00FF0FC007F1FE00
007F1FC007F1FC00
007F9F8003F1FC00
007F9F8003FBFC00
003FBF8003FBFC00
003FBF8001FBF800
003FFF0001FFF800
003FFF0001FFF800
001FFF0001FFF000
001FFE0000FFF000
001FFE0000FFF000
000FFE0000FFE000
000FFC00007FE000
000FFC00007FE000
0007FC00007FE000
0007F800003FC000
0007F800003FC000
0007F800003FC000
0003F000001F8000
ENDCHAR
STARTCHAR 0078
ENCODING 120
SWIDTH 534 0
DWIDTH 46 0
BBX 44 47 1 0
BITMAP
7FC000003FE0
7FC000003FE0
3FE000007FC0
1FF00000FF80
0FF80001FF80
0FF80001FF00
07FC0003FE00
03FE0007FC00
01FF000FFC00
01FF000FF800
00FF801FF000
007FC03FE000
003FE03FE000
003FE07FC000
001FF0FF8000
000FF9FF0000
0007FDFF0000
0007FFFE0000
0003FFFC0000
0001FFF80000
0000FFF80000
0000FFF00000
00007FE00000
00007FE00000
00007FE00000
0000FFF00000
0001FFF80000
0003FFFC0000
0003FFFC0000
0007FFFE0000
000FF9FF0000
001FF0FF8000
001FF0FF8000
003FE07FC000
007FC03FE000
00FFC01FF000
00FF801FF000
01FF000FF800
03FE0007FC00
07FE0003FE00
07FC0003FE00
0FF80001FF00
1FF00000FF80
3FF000007FC0
3FE000007FC0
7FC000003FE0
FF8000001FF0
ENDCHAR
STARTCHAR 0079
ENCODING 121
SWIDTH 534 0
DWIDTH 46 0
BBX 44 67 1 -20
BITMAP
FF8000000FF0
7F8000000FF0
7F8000000FE0
3FC000001FE0
3FC000001FE0
1FE000003FC0
1FE000003FC0
1FE000003F80
0FF000007F80
0FF000007F80
07F800007F00
07F80000FF00
07F80000FF00
03FC0001FE00
03FC0001FE00
01FC0001FC00
01FE0003FC00
01FE0003FC00
00FF0003F800
00FF0007F800
007F0007F800
007F800FF000
007F800FF000
003FC00FE000
003FC01FE000
001FC01FE000
001FE01FC000
001FE03FC000
000FF03FC000
000FF07F8000
0007F07F8000
0007F87F0000
0007F8FF0000
0003FCFF0000
0003FCFE0000
0001FDFE0000
0001FFFC0000
0000FFFC0000
0000FFFC0000
0000FFF80000
00007FF80000
00007FF80000
00003FF00000
00003FF00000
00003FE00000
00001FE00000
00001FE00000
00001FC00000
00003FC00000
00003FC00000
00003F800000
00007F800000
00007F000000
00007F000000
0000FF000000
0000FE000000
0001FE000000
0001FE000000
0001FC000000
0003FC000000
0003F8000000
0003F8000000
0007F8000000
0007F0000000
000FF0000000
000FF0000000
000FE0000000
ENDCHAR
STARTCHAR 007A
ENCODING 122
SWIDTH 534 0
DWIDTH 46 0
BBX 40 47 2 0
BITMAP
3FFFFFFFFF
3FFFFFFFFF
3FFFFFFFFF
3FFFFFFFFE
3FFFFFFFFC
3FFFFFFFF8
3FFFFFFFF8
0000000FF0
0000001FE0
0000003FC0
0000007FC0
0000007F80
000000FF00
000001FF00
000003FE00
000003FC00
000007F800
00000FF800
00000FF000
00001FE000
00003FC000
00007FC000
00007F8000
0000FF0000
0001FE0000
0003FE0000
0003FC0000
0007F80000
000FF80000
001FF00000
001FE00000
003FC00000
007FC00000
007F800000
00FF000000
01FE000000
03FE000000
03FC000000
07F8000000
0FF8000000
1FFFFFFFFE
1FFFFFFFFE
3FFFFFFFFE
7FFFFFFFFE
7FFFFFFFFE
FFFFFFFFFE
FFFFFFFFFE
ENDCHAR
STARTCHAR 007B
ENCODING 123
SWIDTH 429 0
DWIDTH 37 0
BBX 21 95 12 -18
BITMAP
000FF8
003FF8
007FF8
00FFF8
01FFF8
03FFF8
03FFF8
03FF00
07FC00
07F800
07F000
07F000
07F000
07F000
07F000
07F000
07F000
07F000
07F000
07F000
07F000
07F000
07F000
07F000
07F000
07F000
07F000
07F000
07F000
07F000
07F000
07F000
07F000
07F000
07F000
07F000
07F000
07F000
07F000
07F000
0FF000
0FF000
1FF000
3FE000
7FC000
7FC000
FF8000
FF0000
FF8000
7F8000
7FC000
3FE000
1FE000
1FF000
0FF000
07F000
07F000
07F000
07F000
07F000
07F000
07F000
07F000
07F000
07F000
07F000
07F000
07F000
07F000
07F000
07F000
07F000
07F000
07F000
07F000
07F000
07F000
07F000
07F000
07F000
07F000
07F000
07F000
07F000
07F800
07F800
07F800
07FC00
03FFF8
03FFF8
01FFF8
01FFF8
00FFF8
003FF8
000FF8
ENDCHAR
STARTCHAR 007C
ENCODING 124
SWIDTH 267 0
DWIDTH 23 0
BBX 7 62 8 0
BITMAP
FE
FE
FE
FE
FE
FE
FE
FE
FE
FE
FE
FE
FE
FE
FE
FE
FE
FE
FE
FE
FE
FE
FE
FE
FE
FE
FE
FE
FE
FE
FE
FE
FE
FE
FE
FE
FE
FE
FE
FE
FE
FE
FE
FE
FE
FE
FE
FE
FE
FE
FE
FE
FE
FE
FE
FE
FE
FE
FE
FE
FE
FE
ENDCHAR
STARTCHAR 007D
ENCODING 125
SWIDTH 429 0
DWIDTH 37 0
BBX 21 95 4 -18
BITMAP
FF8000
FFE000
FFF000
FFF800
FFFC00
FFFE00
FFFE00
07FE00
01FF00
00FF00
00FF00
007F00
007F00
007F00
007F00
007F00
007F00
007F00
007F00
007F00
007F00
007F00
007F00
007F00
007F00
007F00
007F00
007F00
007F00
007F00
007F00
007F00
007F00
007F00
007F00
007F00
007F00
007F00
007F00
007F00
007F80
007F80
007FC0
003FE0
001FF0
001FF0
000FF8
0007F8
000FF8
001FF0
001FF0
003FE0
003FC0
007FC0
007F80
007F00
007F00
007F00
007F00
007F00
007F00
007F00
007F00
007F00
007F00
007F00
007F00
007F00
007F00
007F00
007F00
007F00
007F00
007F00
007F00
007F00
007F00
007F00
007F00
007F00
007F00
007F00
007F00
007F00
007F00
00FF00
00FF00
03FF00
FFFE00
FFFE00
FFFC00
FFFC00
FFF800
FFE000
FF8000
ENDCHAR
STARTCHAR 007E
ENCODING 126
SWIDTH 685 0
DWIDTH 59 0
BBX 39 16 10 19
BITMAP
03F8000000
0FFF0001FC
1FFFC001FC
3FFFE001FE
7FFFF801FE
7FFFFE01FE
FFFFFF03FE
FFFFFFE7FE
FF9FFFFFFC
FF03FFFFFC
FE00FFFFFC
FE003FFFF8
FE001FFFF8
FE0007FFF0
FF0001FFC0
0000007F00
ENDCHAR
STARTCHAR 00A0
ENCODING 160
SWIDTH 197 0
DWIDTH 17 0
BBX 0 0 0 0
BITMAP
ENDCHAR
STARTCHAR 00A1
ENCODING 161
SWIDTH 325 0
DWIDTH 28 0
BBX 8 62 10 -15
BITMAP
FF
FF
FF
FF
FF
FF
FF
FF
00
00
00
00
00
00
00
00
FF
FF
FF
FF
FF
FF
FF
FF
FF
FF
FF
FF
FF
FF
FF
FF
FF
FF
FF
FF
FF
FF
FF
FF
FF
FF
FF
FF
FF
FF
FF
FF
FF
FF
FF
FF
FF
FF
FF
FF
FF
FF
FF
FF
FF
FF
ENDCHAR
STARTCHAR 00A2
ENCODING 162
SWIDTH 557 0
DWIDTH 48 0
BBX 42 65 3 -3
BITMAP
00000FC00000
00000FC00000
00000FC00000
00000FC00000
00000FC00000
00000FC00000
00000FC00000
00000FC00000
00007FF80000
0007FFFF0000
001FFFFFC000
003FFFFFE000
00FFFFFFF800
01FFFFFFFC00
03FFFFFFFE00
03FFE03FFF00
07FF0007FF00
0FFC0003FF80
0FF80000FF80
1FF000007FC0
1FF000007FC0
3FE000003FC0
3FC000003E00
3FC000000000
7FC000000000
7F8000000000
7F8000000000
7F8000000000
7F8000000000
7F8000000000
FF8000000000
FF8000000000
FF8000000000
FF8000000000
FF8000000000
7F8000000000
7F8000000000
7F8000000000
7F8000000000
7FC000000000
7FC000000000
3FC000000000
3FE000003E00
3FE000003FC0
1FF000007FC0
1FF80000FFC0
0FFC0001FF80
0FFE0003FF80
07FF800FFF00
03FFFCFFFE00
01FFFFFFFC00
00FFFFFFF800
007FFFFFF000
003FFFFFE000
000FFFFF8000
0003FFFE0000
00001FE00000
00000FC00000
00000FC00000
00000FC00000
00000FC00000
00000FC00000
00000FC00000
00000FC00000
00000FC00000
ENDCHAR
STARTCHAR 00A3
ENCODING 163
SWIDTH 569 0
DWIDTH 49 0
BBX 43 63 3 0
BITMAP
000003FC0000
00001FFF8000
00007FFFE000
0000FFFFF000
0003FFFFF800
0007FFFFFC00
0007FFFFFE00
000FFF0FFE00
001FFC03FF00
001FF000FF80
003FE0007F80
003FE0007FC0
003FC0003FC0
003FC0001FC0
003F80001FE0
003F80001FE0
003F80000F00
003F80000000
003F80000000
003F80000000
003F80000000
003F80000000
003F80000000
003F80000000
003F80000000
003F80000000
003F80000000
003F80000000
FFFFFFFF0000
FFFFFFFF0000
FFFFFFFF0000
FFFFFFFF0000
FFFFFFFF0000
FFFFFFFF0000
FFFFFFFF0000
003F80000000
003F80000000
003F80000000
003F80000000
003F80000000
003F80000000
003F80000000
003F80000000
003F80000000
003F80000000
003F80000000
003F80000000
003F80000000
003F80000000
003F80000000
007F80000000
007F80000000
007F80000000
00FF80000000
01FF80000000
07FF80000000
FFFFFFFFFF00
FFFFFFFFFF00
FFFFFFFFFF00
FFFFFFFFFF00
FFFFFFFFFF00
FFFFFFFFFF00
FFFFFFFFFF00
ENDCHAR
STARTCHAR 00A4
ENCODING 164
SWIDTH 650 0
DWIDTH 56 0
BBX 50 50 3 6
BITMAP
0C000000000C00
1E000000001E00
3F0003F0003F00
7F803FFF007F80
FFC1FFFFE0FFC0
FFE7FFFFF9FFC0
7FFFFFFFFFFF80
3FFFFFFFFFFF00
1FFFFFFFFFFE00
0FFFF807FFFC00
07FFC000FFF800
03FF80007FF000
03FE00001FF000
03FC00000FF800
07F8000007F800
0FF0000003FC00
0FF0000003FC00
0FE0000001FC00
1FE0000001FE00
1FC0000000FE00
1FC0000000FE00
1FC0000000FE00
1F800000007F00
3F800000007F00
3F800000007F00
3F800000007F00
3F800000007F00
1F800000007F00
1FC0000000FE00
1FC0000000FE00
1FC0000000FE00
1FE0000001FE00
0FE0000001FC00
0FF0000003FC00
07F0000003FC00
07F8000007F800
03FC00000FF800
03FE00001FF000
03FF80007FF000
07FFC000FFF800
0FFFF807FFFC00
1FFFFFFFFFFE00
3FFFFFFFFFFF00
7FFFFFFFFFFF80
FFE7FFFFF9FFC0
FFC1FFFFE0FFC0
7F803FFF007F80
3F0003F0003F00
1E000000001E00
0C000000000C00
ENDCHAR
STARTCHAR 00A5
ENCODING 165
SWIDTH 569 0
DWIDTH 49 0
BBX 49 62 0 0
BITMAP
FF80000000FF80
7FC0000000FF80
7FC0000001FF00
3FE0000001FE00
1FF0000003FE00
1FF0000007FC00
0FF8000007FC00
0FF800000FF800
07FC00000FF800
03FC00001FF000
03FE00003FE000
01FF00003FE000
01FF00007FC000
00FF80007FC000
00FF8000FF8000
007FC000FF0000
003FE001FF0000
003FE003FE0000
001FF003FE0000
001FF007FC0000
000FF807FC0000
0007F80FF80000
0007FC1FF00000
0003FE1FF00000
0003FE3FE00000
0001FF3FE00000
0001FF7FC00000
0000FFFFC00000
00007FFF800000
00007FFF000000
00003FFF000000
00003FFE000000
00001FFE000000
00FFFFFFFFC000
00FFFFFFFFC000
00FFFFFFFFC000
00FFFFFFFFC000
00FFFFFFFFC000
00FFFFFFFFC000
000007F8000000
000007F8000000
000007F8000000
000007F8000000
000007F8000000
000007F8000000
000007F8000000
000007F8000000
00FFFFFFFFC000
00FFFFFFFFC000
00FFFFFFFFC000
00FFFFFFFFC000
00FFFFFFFFC000
00FFFFFFFFC000
000007F8000000
000007F8000000
000007F8000000
000007F8000000
000007F8000000
000007F8000000
000007F8000000
000007F8000000
000007F8000000
ENDCHAR
STARTCHAR 00A6
ENCODING 166
SWIDTH 267 0
DWIDTH 23 0
BBX 7 77 8 -15
BITMAP
FE
FE
FE
FE
FE
FE
FE
FE
FE
FE
FE
FE
FE
FE
FE
FE
FE
FE
FE
FE
FE
FE
FE
FE
FE
FE
FE
FE
FE
FE
FE
FE
FE
00
00
00
00
00
00
00
00
00
00
00
FE
FE
FE
FE
FE
FE
FE
FE
FE
FE
FE
FE
FE
FE
FE
FE
FE
FE
FE
FE
FE
FE
FE
FE
FE
FE
FE
FE
FE
FE
FE
FE
FE
ENDCHAR
STARTCHAR 00A7
ENCODING 167
SWIDTH 534 0
DWIDTH 46 0
BBX 39 70 4 -13
BITMAP
0003FC0000
003FFFC000
00FFFFF000
01FFFFF800
07FFFFFE00
0FFFFFFF00
0FFFFFFF80
1FFC07FFC0
3FF000FFC0
3FE0007FE0
3FC0003FE0
7F80001FE0
7F80001FF0
7F80000FF0
7F80000F00
7FC0000000
3FC0000000
3FF0000000
3FFC000000
1FFF800000
0FFFF00000
07FFFF0000
03FFFFE000
00FFFFFC00
00FFFFFF00
03FFFFFFC0
0FFEFFFFE0
1FF80FFFF0
3FE001FFF8
7FC0003FFC
7F80000FFC
7F000007FC
FF000003FC
FF000001FE
FF000001FE
FF000001FE
FF000001FC
FF800003FC
7FE00003FC
7FF80007FC
3FFF800FF8
1FFFF01FF8
0FFFFF7FF0
07FFFFFFE0
01FFFFFFC0
003FFFFF00
000FFFFF80
0000FFFFC0
00000FFFE0
000001FFF0
0000003FF0
0000001FF8
0000000FF8
00000007F8
00000007F8
0F800007F8
7F800007F8
7FC00007F8
7FC00007F8
3FE0000FF8
3FF0001FF0
1FFC003FF0
1FFF00FFE0
0FFFFFFFE0
07FFFFFFC0
03FFFFFF80
01FFFFFF00
007FFFFC00
001FFFF000
0001FF0000
ENDCHAR
STARTCHAR 00A8
ENCODING 168
SWIDTH 522 0
DWIDTH 45 0
BBX 25 8 10 70
BITMAP
FF007F80
FF007F80
FF007F80
FF007F80
FF007F80
FF007F80
FF007F80
FF007F80
ENDCHAR
STARTCHAR 00A9
ENCODING 169
SWIDTH 836 0
DWIDTH 72 0
BBX 66 66 3 -3
BITMAP
0000001FFC00000000
000001FFFFE0000000
00000FFFFFF8000000
00003FFFFFFF000000
0000FFFFFFFF800000
0003FFFFFFFFE00000
0007FFFFFFFFF00000
000FFFFE1FFFFC0000
001FFF8000FFFE0000
003FFC00001FFF0000
007FF0000007FF8000
00FFE0000001FFC000
01FF80000000FFE000
03FF000000007FF000
07FE000000001FF000
07FC0007FC000FF800
0FF8003FFF800FFC00
1FF000FFFFC007FC00
1FE001FFFFF003FE00
3FE003FFFFF801FE00
3FC007FFFFFC01FE00
3FC00FFC07FE00FF00
7F801FF001FE00FF00
7F801FE000FF007F80
7F003FC0007F007F80
FF003F80007E007F80
FF003F000030003F80
FF007F000000003F80
FE007F000000003FC0
FE007F000000003FC0
FE007E000000003FC0
FE007E000000003FC0
FE007E000000001FC0
FE007E000000001FC0
FE007E000000003FC0
FE007E000000003FC0
FE007F000000003FC0
FE007F000000003FC0
FE007F000000003F80
FF003F800020003F80
FF003F80007E007F80
7F003FC0007F007F80
7F801FC000FE007F80
7F801FF001FE00FF00
3FC00FFC07FC00FF00
3FC007FFFFFC01FF00
3FE003FFFFF801FE00
1FE001FFFFF003FE00
1FF000FFFFC007FC00
0FF8003FFF8007FC00
07FC0007FC000FF800
07FE000000001FF000
03FF000000003FF000
01FF80000000FFE000
01FFC0000001FFC000
00FFF0000003FF8000
007FFC00000FFF0000
003FFF00007FFE0000
001FFFF003FFFC0000
0007FFFFFFFFF80000
0003FFFFFFFFF00000
0000FFFFFFFFC00000
00007FFFFFFF000000
00001FFFFFFC000000
000003FFFFF0000000
0000007FFF00000000
ENDCHAR
STARTCHAR 00AA
ENCODING 170
SWIDTH 313 0
DWIDTH 27 0
BBX 21 25 3 23
BITMAP
00FC00
07FF80
0FFFC0
1FFFE0
3FFFF0
3F01F0
7E01F8
0C00F8
0000F8
000FF8
01FFF8
0FFFF8
1FFFF8
3FF0F8
7F00F8
7C00F8
7800F8
F801F8
F803F8
7C07F8
7E1FF8
7FFF78
3FFE78
0FFC78
03E000
ENDCHAR
STARTCHAR 00AB
ENCODING 171
SWIDTH 557 0
DWIDTH 48 0
BBX 35 38 7 4
BITMAP
0003000200
0003800700
0007C007C0
000FE00FE0
001FC01FC0
003FC03F80
003F807F80
007F007F00
00FE00FE00
01FC01FC00
03FC03F800
03F807F800
07F007F000
0FE00FE000
1FC01FC000
1FC03F8000
3F807F8000
7F007F0000
FE00FE0000
FF00FE0000
7F007F0000
3F803F8000
1FC03FC000
0FE01FC000
0FF00FE000
07F007F000
03F803F800
01FC03FC00
00FE01FC00
00FF00FE00
007F007F00
003F803F80
001FC03FC0
000FE01FC0
000FE00FE0
0007C00780
0003000300
0000000200
ENDCHAR
STARTCHAR 00AC
ENCODING 172
SWIDTH 603 0
DWIDTH 52 0
BBX 42 16 5 17
BITMAP
FFFFFFFFFFC0
FFFFFFFFFFC0
FFFFFFFFFFC0
FFFFFFFFFFC0
FFFFFFFFFFC0
FFFFFFFFFFC0
000000001FC0
000000001FC0
000000001FC0
000000001FC0
000000001FC0
000000001FC0
000000001FC0
000000001FC0
000000001FC0
000000001FC0
ENDCHAR
STARTCHAR 00AD
ENCODING 173
SWIDTH 418 0
DWIDTH 36 0
BBX 26 6 5 24
BITMAP
FFFFFFC0
FFFFFFC0
FFFFFFC0
FFFFFFC0
FFFFFFC0
FFFFFFC0
ENDCHAR
STARTCHAR 00AE
ENCODING 174
SWIDTH 638 0
DWIDTH 55 0
BBX 43 43 6 24
BITMAP
00007FC00000
0007FFF80000
001FFFFE0000
003FFFFF8000
00FFFFFFC000
01FFFFFFF000
03FF001FF800
07FC0007FC00
0FF00001FC00
0FE00000FE00
1FC000007F00
3F83FFC03F00
3F03FFE03F80
7F03FFF01F80
7E03C0F80FC0
7E03C0780FC0
7C03C03C0FC0
FC03C03C07C0
FC03C03C07C0
FC03C03807E0
FC03C07807E0
FC03FFF807E0
FC03FFF007E0
FC03FFC007E0
FC03C1E007C0
FC03C1E00FC0
7C03C0F00FC0
7E03C0F00FC0
7E03C0781F80
3F03C0781F80
3F83C0383F80
1F8000007F00
1FC00000FE00
0FE00001FE00
07F80003FC00
07FE000FF800
03FF807FF000
01FFFFFFE000
007FFFFFC000
003FFFFF0000
000FFFFE0000
0001FFF00000
00000C000000
ENDCHAR
STARTCHAR 00AF
ENCODING 175
SWIDTH 499 0
DWIDTH 43 0
BBX 22 6 10 72
BITMAP
FFFFFC
FFFFFC
FFFFFC
FFFFFC
FFFFFC
FFFFFC
ENDCHAR
STARTCHAR 00B0
ENCODING 176
SWIDTH 452 0
DWIDTH 39 0
BBX 31 31 3 32
BITMAP
001FE000
007FFC00
01FFFE00
07FFFF80
0FFFFFC0
1FFFFFE0
1FFFFFF0
3FF01FF0
7FC00FF8
7F8007F8
FF0003FC
FE0001FC
FE0001FC
FE0000FC
FC0000FE
FC0000FE
FC0000FE
FE0000FC
FE0001FC
FE0001FC
FF0003FC
7F8007F8
7FC00FF8
3FF01FF0
3FFFFFF0
1FFFFFE0
0FFFFFC0
07FFFF80
01FFFF00
00FFFC00
001FE000
ENDCHAR
STARTCHAR 00B1
ENCODING 177
SWIDTH 603 0
DWIDTH 52 0
BBX 42 40 5 7
BITMAP
00003F000000
00003F000000
00003F000000
00003F000000
00003F000000
00003F000000
00003F000000
00003F000000
00003F000000
00003F000000
00003F000000
FFFFFFFFFFC0
FFFFFFFFFFC0
FFFFFFFFFFC0
FFFFFFFFFFC0
FFFFFFFFFFC0
FFFFFFFFFFC0
00003F000000
00003F000000
00003F000000
00003F000000
00003F000000
00003F000000
00003F000000
00003F000000
00003F000000
00003F000000
00003F000000
000000000000
000000000000
000000000000
000000000000
000000000000
000000000000
FFFFFFFFFFC0
FFFFFFFFFFC0
FFFFFFFFFFC0
FFFFFFFFFFC0
FFFFFFFFFFC0
FFFFFFFFFFC0
ENDCHAR
STARTCHAR 00B2
ENCODING 178
SWIDTH 406 0
DWIDTH 35 0
BBX 26 40 4 23
BITMAP
003F8000
01FFF000
07FFF800
0FFFFE00
1FFFFF00
3FE0FF00
3F803F80
7F001F80
7E000FC0
7E000FC0
7C0007C0
FC0007C0
FC0007C0
000007C0
000007C0
00000FC0
00000FC0
00001FC0
00003F80
00003F80
0000FF00
0001FE00
0003FC00
0007F800
000FF000
001FE000
003FC000
007F8000
00FF0000
01FE0000
07F80000
0FF00000
1FE00000
3FC00000
7F800000
FFFFFFC0
FFFFFFC0
FFFFFFC0
FFFFFFC0
FFFFFFC0
ENDCHAR
STARTCHAR 00B3
ENCODING 179
SWIDTH 394 0
DWIDTH 34 0
BBX 25 39 4 23
BITMAP
7FFFFF00
7FFFFF00
7FFFFF00
7FFFFF00
7FFFFF00
00007F00
0000FE00
0001FC00
0003F800
000FE000
001FC000
003F8000
007F0000
00FE0000
03FF8000
03FFE000
03FFF000
01FFFC00
01FFFC00
0000FE00
00007F00
00003F00
00003F00
00001F80
00001F80
00001F80
00001F80
00001F80
00001F80
38001F00
F8003F00
FC007F00
FE00FE00
7F81FE00
3FFFFC00
1FFFF800
0FFFF000
07FFE000
01FF0000
ENDCHAR
STARTCHAR 00B4
ENCODING 180
SWIDTH 510 0
DWIDTH 44 0
BBX 12 14 17 69
BITMAP
07F0
07E0
07E0
0FE0
0FC0
1FC0
1F80
1F80
3F80
3F00
3F00
7E00
7E00
FE00
ENDCHAR
STARTCHAR 00B5
ENCODING 181
SWIDTH 615 0
DWIDTH 53 0
BBX 41 67 6 -20
BITMAP
FF0000007F80
FF0000007F80
FF0000007F80
FF0000007F80
FF0000007F80
FF0000007F80
FF0000007F80
FF0000007F80
FF0000007F80
FF0000007F80
FF0000007F80
FF0000007F80
FF0000007F80
FF0000007F80
FF0000007F80
FF0000007F80
FF0000007F80
FF0000007F80
FF0000007F80
FF0000007F80
FF0000007F80
FF0000007F80
FF0000007F80
FF0000007F80
FF0000007F80
FF0000007F80
FF0000007F80
FF0000007F80
FF0000007F80
FF0000007F80
FF0000007F80
FF800000FF80
FF800000FF80
FF800000FF80
FFC00001FF80
FFC00001FF80
FFE00003FF80
FFF00007FF80
FFF8000FFF80
FFFE003FFF80
FFFFC1FFFF80
FFFFFFFFBF80
FFFFFFFFBF80
FFFFFFFF3F80
FEFFFFFC3F80
FE7FFFF83F80
FE1FFFE03F80
FE03FF000000
FE0000000000
FE0000000000
FE0000000000
FE0000000000
FE0000000000
FE0000000000
FE0000000000
FE0000000000
FE0000000000
FE0000000000
FE0000000000
FE0000000000
FE0000000000
FE0000000000
FE0000000000
FE0000000000
FE0000000000
FE0000000000
FE0000000000
ENDCHAR
STARTCHAR 00B6
ENCODING 182
SWIDTH 661 0
DWIDTH 57 0
BBX 45 74 6 -12
BITMAP
0003FFFE03F8
001FFFFE03F8
00FFFFFE03F8
01FFFFFE03F8
03FFFFFE03F8
07FFFFFE03F8
0FFFFFFE03F8
1FFFFFFE03F8
3FFFFFFE03F8
3FFFFFFE03F8
7FFFFFFE03F8
7FFFFFFE03F8
7FFFFFFE03F8
FFFFFFFE03F8
FFFFFFFE03F8
FFFFFFFE03F8
FFFFFFFE03F8
FFFFFFFE03F8
FFFFFFFE03F8
FFFFFFFE03F8
FFFFFFFE03F8
FFFFFFFE03F8
FFFFFFFE03F8
FFFFFFFE03F8
FFFFFFFE03F8
FFFFFFFE03F8
7FFFFFFE03F8
7FFFFFFE03F8
7FFFFFFE03F8
3FFFFFFE03F8
3FFFFFFE03F8
1FFFFFFE03F8
0FFFFFFE03F8
07FFFFFE03F8
03FFFFFE03F8
01FFFFFE03F8
00FFFFFE03F8
003FFFFE03F8
0003FFFE03F8
000001FE03F8
000001FE03F8
000001FE03F8
000001FE03F8
000001FE03F8
000001FE03F8
000001FE03F8
000001FE03F8
000001FE03F8
000001FE03F8
000001FE03F8
000001FE03F8
000001FE03F8
000001FE03F8
000001FE03F8
000001FE03F8
000001FE03F8
000001FE03F8
000001FE03F8
000001FE03F8
000001FE03F8
000001FE03F8
000001FE03F8
000001FE03F8
000001FE03F8
000001FE03F8
000001FE03F8
000001FE03F8
000001FE03F8
000001FE03F8
000001FE03F8
000001FE03F8
000001FE03F8
000001FE03F8
000001FE03F8
ENDCHAR
STARTCHAR 00B7
ENCODING 183
SWIDTH 243 0
DWIDTH 21 0
BBX 10 10 5 22
BITMAP
3F00
7F80
7FC0
FFC0
FFC0
FFC0
FFC0
7FC0
3F80
1F00
ENDCHAR
STARTCHAR 00B8
ENCODING 184
SWIDTH 406 0
DWIDTH 35 0
BBX 13 22 11 -21
BITMAP
07C0
0FC0
0F80
0F80
1F80
1F00
1FC0
3FE0
3FF0
0FF8
03F8
01F8
01F8
01F8
01F8
43F8
7FF8
FFF0
FFF0
FFE0
FF80
0E00
ENDCHAR
STARTCHAR 00B9
ENCODING 185
SWIDTH 325 0
DWIDTH 28 0
BBX 13 39 5 23
BITMAP
01F8
07F8
1FF8
3FF8
FFF8
FFF8
FFF8
F9F8
E1F8
C1F8
01F8
01F8
01F8
01F8
01F8
01F8
01F8
01F8
01F8
01F8
01F8
01F8
01F8
01F8
01F8
01F8
01F8
01F8
01F8
01F8
01F8
01F8
01F8
01F8
01F8
01F8
01F8
01F8
01F8
ENDCHAR
STARTCHAR 00BA
ENCODING 186
SWIDTH 348 0
DWIDTH 30 0
BBX 23 25 3 23
BITMAP
00FE00
03FFC0
07FFE0
1FFFF0
1FFFF8
3F01FC
3E007C
7E007E
7C003E
7C003E
7C003E
FC003E
FC003E
FC003E
7C003E
7C003E
7C007E
7E007E
3F00FC
3F83FC
1FFFF8
0FFFF0
07FFE0
01FF80
001C00
ENDCHAR
STARTCHAR 00BB
ENCODING 187
SWIDTH 557 0
DWIDTH 48 0
BBX 34 38 6 4
BITMAP
1000100000
3800380000
7C007C0000
FE01FC0000
FF00FE0000
7F007F0000
3F803F8000
1FC01FC000
0FE01FC000
0FF00FE000
07F007F000
03F803F800
01FC01FC00
00FE01FC00
00FF00FE00
007F007F00
003F803F80
001FC03FC0
000FE01FC0
001FC01FC0
001FC03F80
003F807F80
007F007F00
00FE00FE00
01FC01FC00
01FC03F800
03F807F800
07F007F000
0FE00FE000
1FC01FC000
1FC03F8000
3F807F8000
7F007F0000
FE00FE0000
FE00FC0000
7C00780000
3800380000
0000100000
ENDCHAR
STARTCHAR 00BC
ENCODING 188
SWIDTH 998 0
DWIDTH 86 0
BBX 70 62 5 0
BITMAP
01F8000000000C0000
07F8000000000E0000
1FF8000000001F0000
3FF8000000003F8000
FFF8000000007F8000
FFF8000000007F0000
FFF800000000FF0000
F9F800000001FE0000
E1F800000003FC0000
C1F800000003F80000
01F800000007F80000
01F80000000FF00000
01F80000001FE00000
01F80000001FC00000
01F80000003FC00000
01F80000007F800000
01F8000000FF000000
01F8000000FE000000
01F8000001FE000000
01F8000003FC000000
01F8000007F8000000
01F800000FF0000000
01F800000FE0000000
01F800001FE000FC00
01F800003FC001FC00
01F800007F8001F800
01F800007F0003F800
01F80000FF0003F000
01F80001FE0003F000
01F80003FC0007E000
01F80003F80007E000
01F80007F8000FC000
01F8000FF0000FC000
01F8001FE0001F8000
01F8001FC0001F8000
01F8003FC0003F0000
01F8007F80003F0000
01F800FF00007E0000
01F800FE00007E0000
000001FE0000FE07C0
000003FC0000FC07C0
000007F80001FC07C0
000007F00001F807C0
00000FF00003F807C0
00001FE00003F007C0
00003FC00007F007C0
00007F800007E007C0
00007F00000FE007C0
0000FF00000FC007C0
0001FE00000FC007C0
0003FC00001FFFFFFC
0003F800001FFFFFFC
0007F800001FFFFFFC
000FF000001FFFFFFC
001FE000001FFFFFFC
001FC00000000007C0
003FC00000000007C0
007F800000000007C0
007F000000000007C0
003E000000000007C0
001E000000000007C0
0004000000000007C0
ENDCHAR
STARTCHAR 00BD
ENCODING 189
SWIDTH 963 0
DWIDTH 83 0
BBX 73 62 5 0
BITMAP
01F8000000000C000000
07F8000000000E000000
1FF8000000001F000000
7FF8000000003FC00000
FFF8000000007F800000
FFF8000000007F000000
FDF800000000FF000000
F9F800000001FE000000
E1F800000003FC000000
81F800000003F8000000
01F800000007F8000000
01F80000000FF0000000
01F80000001FE0000000
01F80000001FC0000000
01F80000003FC0000000
01F80000007F80000000
01F8000000FF00000000
01F8000000FE00000000
01F8000001FC00000000
01F8000003FC00000000
01F8000007F800000000
01F800000FF000000000
01F800000FE000FF0000
01F800001FE003FFE000
01F800003FC00FFFF000
01F800007F801FFFFC00
01F800007F003FFFFE00
01F80000FF007FC1FE00
01F80001FE007F007F00
01F80003FC00FE003F00
01F80003F800FC001F80
01F80007F800FC001F80
01F8000FF000F8001F80
01F8001FE001F8000F80
01F8001FC001F8000F80
01F8003FC00000000F80
01F8007F800000000F80
01F800FF000000001F80
01F800FE000000001F80
000001FE000000003F80
000003FC000000007F00
000007F800000000FF00
000007F000000001FE00
00000FF000000003FC00
00001FE000000007F800
00003FC00000000FF000
00007F800000001FE000
00007F000000003FC000
0000FF000000007F8000
0001FE00000000FF0000
0003FC00000001FE0000
0003F800000003FC0000
0007F80000000FF00000
000FF00000001FE00000
001FE00000003FC00000
001FC00000007F800000
003FC0000000FF000000
007F80000001FFFFFF80
007F00000001FFFFFF80
003E00000001FFFFFF80
001E00000001FFFFFF80
000400000001FFFFFF80
ENDCHAR
STARTCHAR 00BE
ENCODING 190
SWIDTH 998 0
DWIDTH 86 0
BBX 77 62 4 0
BITMAP
7FFFFF00000000100000
7FFFFF000000003C0000
7FFFFF000000003E0000
7FFFFF000000007F0000
7FFFFF00000000FF0000
00007F00000001FE0000
0000FE00000001FC0000
0001FC00000003F80000
0003F800000007F80000
000FE00000000FF00000
001FC00000001FE00000
003F800000001FC00000
007F000000003FC00000
00FE000000007F800000
03FF80000000FF000000
03FFE0000000FE000000
03FFF0000001FE000000
01FFFC000003FC000000
01FFFC000007F8000000
0000FE000007F0000000
00007F00000FF0000000
00003F00001FE0000000
00003F00003FC0000000
00001F80003F8003F000
00001F80007F0007F000
00001F8000FF0007E000
00001F8001FE000FE000
00001F8001FC000FC000
00001F8003F8000FC000
38001F0007F8001F8000
F8003F000FF0001F8000
FC007F000FE0003F0000
FE00FE001FC0003F0000
7F81FE003FC0007E0000
3FFFFC007F80007E0000
1FFFF800FF0000FC0000
0FFFF000FE0000FC0000
07FFE001FE0001FC0000
01FF0003FC0001F80000
00000007F80003F81F80
00000007F00003F01F80
0000000FF00007F01F80
0000001FE00007E01F80
0000003FC00007E01F80
0000003F80000FC01F80
0000007F80000FC01F80
000000FF00001F801F80
000001FE00001F801F80
000001FC00003F001F80
000003FC00003F001F80
000007F800003FFFFFF8
00000FF000003FFFFFF8
00000FE000003FFFFFF8
00001FE000003FFFFFF8
00003FC000003FFFFFF8
00007F80000000001F80
0000FF00000000001F80
0000FF00000000001F80
0000FE00000000001F80
00007C00000000001F80
00003800000000001F80
00001000000000001F80
ENDCHAR
STARTCHAR 00BF
ENCODING 191
SWIDTH 534 0
DWIDTH 46 0
BBX 38 64 4 -17
BITMAP
0000FF0000
0000FF0000
0000FF0000
0000FF0000
0000FF0000
0000FF0000
0000FF0000
0000FF0000
0000FF0000
0000000000
0000000000
0000000000
0000000000
0000000000
0000000000
0000000000
0000000000
0000FF0000
0000FF0000
0000FF0000
0000FF0000
0000FF0000
0000FF0000
0001FF0000
0001FE0000
0003FE0000
0003FE0000
0007FC0000
000FFC0000
001FF80000
007FF00000
00FFF00000
01FFE00000
03FF800000
07FF000000
0FFE000000
0FFC000000
1FF8000000
3FF0000000
3FE0000000
3FC0000000
7F80000000
7F80000000
7F80000000
FF80000000
FF00000000
FF00000000
FF000003FC
FF800003F8
FF800007F8
7F800007F8
7F800007F8
7FC0000FF8
7FE0001FF0
3FF0003FF0
3FF8007FE0
1FFF07FFE0
0FFFFFFFC0
07FFFFFF80
07FFFFFF00
01FFFFFE00
00FFFFF800
001FFFE000
0003FF0000
ENDCHAR
STARTCHAR 00C0
ENCODING 192
SWIDTH 650 0
DWIDTH 56 0
BBX 52 83 2 0
BITMAP
00007E00000000
00007E00000000
00007F00000000
00003F00000000
00003F80000000
00001F80000000
00001F80000000
00001FC0000000
00000FC0000000
00000FC0000000
000007E0000000
000007E0000000
000007F0000000
000003F0000000
00000000000000
00000000000000
00000000000000
00000000000000
00000000000000
00000000000000
00000000000000
00000FFE000000
00000FFF000000
00000FFF000000
00001FFF000000
00001FFF800000
00001FFF800000
00003FFF800000
00003FFFC00000
00003FFFC00000
00007FBFC00000
00007F9FE00000
00007F9FE00000
0000FF1FE00000
0000FF0FF00000
0000FF0FF00000
0001FE0FF00000
0001FE07F80000
0001FE07F80000
0003FC07F80000
0003FC03FC0000
0003FC03FC0000
0007F803FC0000
0007F801FE0000
0007F801FE0000
000FF001FE0000
000FF000FF0000
000FF000FF0000
001FE000FF0000
001FE0007F8000
001FE0007F8000
003FC0007F8000
003FC0003FC000
003FC0003FC000
007F80003FC000
007F80001FE000
007F80001FE000
00FF00001FE000
00FF00000FF000
00FF00000FF000
01FE00000FF000
01FFFFFFFFF800
01FFFFFFFFF800
03FFFFFFFFF800
03FFFFFFFFFC00
03FFFFFFFFFC00
07FFFFFFFFFC00
07FFFFFFFFFE00
07F8000001FE00
0FF0000001FE00
0FF0000000FF00
0FF0000000FF00
1FE0000000FF00
1FE00000007F80
1FE00000007F80
3FC00000007F80
3FC00000003FC0
3FC00000003FC0
7F800000003FC0
7F800000001FE0
7F800000001FE0
FF000000001FE0
FF000000000FF0
ENDCHAR
STARTCHAR 00C1
ENCODING 193
SWIDTH 650 0
DWIDTH 56 0
BBX 52 83 2 0
BITMAP
00000007E00000
0000000FE00000
0000000FC00000
0000000FC00000
0000001F800000
0000001F800000
0000003F800000
0000003F000000
0000003F000000
0000007E000000
0000007E000000
000000FE000000
000000FC000000
000000FC000000
00000000000000
00000000000000
00000000000000
00000000000000
00000000000000
00000000000000
00000000000000
00000FFE000000
00000FFF000000
00000FFF000000
00001FFF000000
00001FFF800000
00001FFF800000
00003FFF800000
00003FFFC00000
00003FFFC00000
00007FBFC00000
00007F9FE00000
00007F9FE00000
0000FF1FE00000
0000FF0FF00000
0000FF0FF00000
0001FE0FF00000
0001FE07F80000
0001FE07F80000
0003FC07F80000
0003FC03FC0000
0003FC03FC0000
0007F803FC0000
0007F801FE0000
0007F801FE0000
000FF001FE0000
000FF000FF0000
000FF000FF0000
001FE000FF0000
001FE0007F8000
001FC0007F8000
003FC0007F8000
003FC0003FC000
003F80003FC000
007F80003FC000
007F80001FE000
007F00001FE000
00FF00001FE000
00FF00000FF000
00FE00000FF000
01FE00000FF000
01FFFFFFFFF800
01FFFFFFFFF800
03FFFFFFFFF800
03FFFFFFFFFC00
03FFFFFFFFFC00
07FFFFFFFFFC00
07FFFFFFFFFE00
07F0000001FE00
0FF0000001FE00
0FF0000000FF00
0FE0000000FF00
1FE0000000FF00
1FE00000007F80
1FC00000007F80
3FC00000007F80
3FC00000003FC0
3FC00000003FC0
7F800000003FC0
7F800000001FE0
7F800000001FE0
FF000000001FE0
FF000000000FF0
ENDCHAR
STARTCHAR 00C2
ENCODING 194
SWIDTH 650 0
DWIDTH 56 0
BBX 52 81 2 0
BITMAP
000003FC000000
000007FE000000
00000FFF000000
00001FFF000000
00003FFF800000
00007F9FC00000
00007F1FE00000
0000FE0FF00000
0001FC07F80000
0003FC03FC0000
0007F801FC0000
000FF000FE0000
00000000000000
00000000000000
00000000000000
00000000000000
00000000000000
00000000000000
00000000000000
00000FFE000000
00000FFF000000
00000FFF000000
00001FFF000000
00001FFF800000
00001FFF800000
00003FFF800000
00003FFFC00000
00003FFFC00000
00007FBFC00000
00007F9FE00000
00007F9FE00000
0000FF1FE00000
0000FF0FF00000
0000FF0FF00000
0001FE0FF00000
0001FE07F80000
0001FE07F80000
0003FC07F80000
0003FC03FC0000
0003FC03FC0000
0007F803FC0000
0007F801FE0000
0007F801FE0000
000FF001FE0000
000FF000FF0000
000FF000FF0000
001FE000FF0000
001FE0007F8000
001FC0007F8000
003FC0007F8000
003FC0003FC000
003F80003FC000
007F80003FC000
007F80001FE000
007F00001FE000
00FF00001FE000
00FF00000FF000
00FE00000FF000
01FE00000FF000
01FFFFFFFFF800
01FFFFFFFFF800
03FFFFFFFFF800
03FFFFFFFFFC00
03FFFFFFFFFC00
07FFFFFFFFFC00
07FFFFFFFFFE00
07F0000001FE00
0FF0000001FE00
0FF0000000FF00
0FE0000000FF00
1FE0000000FF00
1FE00000007F80
1FC00000007F80
3FC00000007F80
3FC00000003FC0
3FC00000003FC0
7F800000003FC0
7F800000001FE0
7F800000001FE0
FF000000001FE0
FF000000000FF0
ENDCHAR
STARTCHAR 00C3
ENCODING 195
SWIDTH 650 0
DWIDTH 56 0
BBX 52 83 2 0
BITMAP
0000FC00000000
0001FF00000000
0003FFC03E0000
0007FFE03F0000
000FFFF83F0000
000FFFFE7F0000
000FC7FFFE0000
000F81FFFE0000
000F80FFFE0000
000F803FFC0000
000FC00FF80000
00000003E00000
00000000000000
00000000000000
00000000000000
00000000000000
00000000000000
00000000000000
00000000000000
00000000000000
00000000000000
00000FFE000000
00000FFF000000
00000FFF000000
00001FFF000000
00001FFF800000
00001FFF800000
00003FFF800000
00003FFFC00000
00003FFFC00000
00007FBFC00000
00007F9FE00000
00007F9FE00000
0000FF1FE00000
0000FF0FF00000
0000FF0FF00000
0001FE0FF00000
0001FE07F80000
0001FE07F80000
0003FC07F80000
0003FC03FC0000
0003FC03FC0000
0007F803FC0000
0007F801FE0000
0007F801FE0000
000FF001FE0000
000FF000FF0000
000FF000FF0000
001FE000FF0000
001FE0007F8000
001FC0007F8000
003FC0007F8000
003FC0003FC000
003F80003FC000
007F80003FC000
007F80001FE000
007F00001FE000
00FF00001FE000
00FF00000FF000
00FE00000FF000
01FE00000FF000
01FFFFFFFFF800
01FFFFFFFFF800
03FFFFFFFFF800
03FFFFFFFFFC00
03FFFFFFFFFC00
07FFFFFFFFFC00
07FFFFFFFFFE00
07F0000001FE00
0FF0000001FE00
0FF0000000FF00
0FE0000000FF00
1FE0000000FF00
1FE00000007F80
1FC00000007F80
3FC00000007F80
3FC00000003FC0
3FC00000003FC0
7F800000003FC0
7F800000001FE0
7F800000001FE0
FF000000001FE0
FF000000000FF0
ENDCHAR
STARTCHAR 00C4
ENCODING 196
SWIDTH 650 0
DWIDTH 56 0
BBX 52 78 2 0
BITMAP
0003F803FC0000
0003F803FC0000
0003F803FC0000
0003F803FC0000
0003F803FC0000
0003F803FC0000
0003F803FC0000
0003F803FC0000
00000000000000
00000000000000
00000000000000
00000000000000
00000000000000
00000000000000
00000000000000
00000000000000
00000FFE000000
00000FFF000000
00000FFF000000
00001FFF000000
00001FFF800000
00001FFF800000
00003FFF800000
00003FFFC00000
00003FFFC00000
00007FBFC00000
00007F9FE00000
00007F9FE00000
0000FF1FE00000
0000FF0FF00000
0000FF0FF00000
0001FE0FF00000
0001FE07F80000
0001FE07F80000
0003FC07F80000
0003FC03FC0000
0003FC03FC0000
0007F803FC0000
0007F801FE0000
0007F801FE0000
000FF001FE0000
000FF000FF0000
000FF000FF0000
001FE000FF0000
001FE0007F8000
001FC0007F8000
003FC0007F8000
003FC0003FC000
003F80003FC000
007F80003FC000
007F80001FE000
007F00001FE000
00FF00001FE000
00FF00000FF000
00FE00000FF000
01FE00000FF000
01FFFFFFFFF800
01FFFFFFFFF800
03FFFFFFFFF800
03FFFFFFFFFC00
03FFFFFFFFFC00
07FFFFFFFFFC00
07FFFFFFFFFE00
07F0000001FE00
0FF0000001FE00
0FF0000000FF00
0FE0000000FF00
1FE0000000FF00
1FE00000007F80
1FC00000007F80
3FC00000007F80
3FC00000003FC0
3FC00000003FC0
7F800000003FC0
7F800000001FE0
7F800000001FE0
FF000000001FE0
FF000000000FF0
ENDCHAR
STARTCHAR 00C5
ENCODING 197
SWIDTH 650 0
DWIDTH 56 0
BBX 52 87 2 0
BITMAP
000001F8000000
000007FE000000
00001FFF000000
00003FFF800000
00007FFFC00000
00007F9FE00000
0000FE07E00000
0000FC03F00000
0000F803F00000
0000F801F00000
0000F801F00000
0000F803F00000
0000FC03F00000
0000FE07E00000
00007F9FE00000
00007FFFC00000
00003FFF800000
00001FFF000000
000007FE000000
000001F8000000
00000000000000
00000000000000
00000000000000
00000000000000
00000000000000
00000FFE000000
00000FFF000000
00000FFF000000
00001FFF000000
00001FFF800000
00001FFF800000
00003FFF800000
00003FFFC00000
00003FFFC00000
00007FBFC00000
00007F9FE00000
00007F9FE00000
0000FF1FE00000
0000FF0FF00000
0000FF0FF00000
0001FE0FF00000
0001FE07F80000
0001FE07F80000
0003FC07F80000
0003FC03FC0000
0003FC03FC0000
0007F803FC0000
0007F801FE0000
0007F801FE0000
000FF001FE0000
000FF000FF0000
000FF000FF0000
001FE000FF0000
001FE0007F8000
001FC0007F8000
003FC0007F8000
003FC0003FC000
003F80003FC000
007F80003FC000
007F80001FE000
007F00001FE000
00FF00001FE000
00FF00000FF000
00FE00000FF000
01FE00000FF000
01FFFFFFFFF800
01FFFFFFFFF800
03FFFFFFFFF800
03FFFFFFFFFC00
03FFFFFFFFFC00
07FFFFFFFFFC00
07FFFFFFFFFE00
07F0000001FE00
0FF0000001FE00
0FF0000000FF00
0FE0000000FF00
1FE0000000FF00
1FE00000007F80
1FC00000007F80
3FC00000007F80
3FC00000003FC0
3FC00000003FC0
7F800000003FC0
7F800000001FE0
7F800000001FE0
FF000000001FE0
FF000000000FF0
ENDCHAR
STARTCHAR 00C6
ENCODING 198
SWIDTH 929 0
DWIDTH 80 0
BBX 73 62 2 0
BITMAP
00000FFFFFFFFFFFFF80
00000FFFFFFFFFFFFF80
00000FFFFFFFFFFFFF80
00001FFFFFFFFFFFFF80
00001FFFFFFFFFFFFF80
00001FFFFFFFFFFFFF80
00003FFFFFFFFFFFFF80
00003FC03FC000000000
00003FC03FC000000000
00007F803FC000000000
00007F803FC000000000
00007F803FC000000000
0000FF003FC000000000
0000FF003FC000000000
0000FF003FC000000000
0001FE003FC000000000
0001FE003FC000000000
0001FE003FC000000000
0003FC003FC000000000
0003FC003FC000000000
0003FC003FC000000000
0007F8003FC000000000
0007F8003FC000000000
0007F8003FC000000000
000FF0003FC000000000
000FF0003FC000000000
000FE0003FC000000000
001FE0003FFFFFFFF000
001FE0003FFFFFFFF000
001FC0003FFFFFFFF000
003FC0003FFFFFFFF000
003FC0003FFFFFFFF000
003F80003FFFFFFFF000
007F80003FFFFFFFF000
007F80003FC000000000
007F00003FC000000000
00FF00003FC000000000
00FF00003FC000000000
00FE00003FC000000000
01FE00003FC000000000
01FFFFFFFFC000000000
01FFFFFFFFC000000000
03FFFFFFFFC000000000
03FFFFFFFFC000000000
03FFFFFFFFC000000000
07FFFFFFFFC000000000
07FFFFFFFFC000000000
07F000003FC000000000
0FF000003FC000000000
0FF000003FC000000000
0FE000003FC000000000
1FE000003FC000000000
1FE000003FC000000000
1FC000003FC000000000
3FC000003FC000000000
3FC000003FFFFFFFFF80
3FC000003FFFFFFFFF80
7F8000003FFFFFFFFF80
7F8000003FFFFFFFFF80
7F8000003FFFFFFFFF80
FF0000003FFFFFFFFF80
FF0000003FFFFFFFFF80
ENDCHAR
STARTCHAR 00C7
ENCODING 199
SWIDTH 720 0
DWIDTH 62 0
BBX 56 84 3 -21
BITMAP
000001FFC00000
00003FFFFE0000
0000FFFFFF8000
0003FFFFFFE000
000FFFFFFFF800
001FFFFFFFFC00
007FFFFFFFFE00
00FFFFE1FFFF80
01FFF8000FFF80
01FFE00003FFC0
03FF800000FFE0
07FF0000007FF0
0FFC0000001FF0
0FF80000000FF8
1FF80000000FFC
1FF000000007FC
3FE000000003FE
3FE000000003FE
3FC000000001FE
7FC000000001FF
7F8000000001FC
7F8000000000C0
7F800000000000
FF800000000000
FF000000000000
FF000000000000
FF000000000000
FF000000000000
FF000000000000
FF000000000000
FF000000000000
FF000000000000
FF000000000000
FF000000000000
FF000000000000
FF000000000000
FF000000000000
FF000000000000
FF000000000000
FF000000000000
FF800000000000
7F800000000000
7F8000000000C0
7F8000000000FC
7FC000000001FF
3FC000000001FE
3FE000000003FE
3FE000000003FE
1FF000000007FC
1FF80000000FFC
0FF80000000FF8
0FFC0000001FF8
07FE0000003FF0
03FF800000FFE0
01FFC00003FFC0
01FFF8000FFFC0
00FFFFC0FFFF80
007FFFFFFFFF00
001FFFFFFFFC00
000FFFFFFFF800
0003FFFFFFE000
0000FFFFFF8000
00003FFFFE0000
000003FFE00000
0000001F000000
0000003F000000
0000003E000000
0000003E000000
0000007F800000
0000007FC00000
0000007FE00000
0000001FE00000
00000007F00000
00000003F00000
00000003F00000
00000003F00000
00000003F00000
00000087F00000
000000FFF00000
000001FFE00000
000001FFC00000
000003FF800000
000001FF000000
0000003C000000
ENDCHAR
STARTCHAR 00C8
ENCODING 200
SWIDTH 580 0
DWIDTH 50 0
BBX 39 83 6 0
BITMAP
000FE00000
0007E00000
0007E00000
0003F00000
0003F00000
0003F80000
0001F80000
0001F80000
0000FC0000
0000FC0000
0000FE0000
00007E0000
00007E0000
00003F0000
0000000000
0000000000
0000000000
0000000000
0000000000
0000000000
0000000000
FFFFFFFFFE
FFFFFFFFFE
FFFFFFFFFE
FFFFFFFFFE
FFFFFFFFFE
FFFFFFFFFE
FFFFFFFFFE
FF00000000
FF00000000
FF00000000
FF00000000
FF00000000
FF00000000
FF00000000
FF00000000
FF00000000
FF00000000
FF00000000
FF00000000
FF00000000
FF00000000
FF00000000
FF00000000
FF00000000
FF00000000
FF00000000
FF00000000
FFFFFFFFC0
FFFFFFFFC0
FFFFFFFFC0
FFFFFFFFC0
FFFFFFFFC0
FFFFFFFFC0
FFFFFFFFC0
FF00000000
FF00000000
FF00000000
FF00000000
FF00000000
FF00000000
FF00000000
FF00000000
FF00000000
FF00000000
FF00000000
FF00000000
FF00000000
FF00000000
FF00000000
FF00000000
FF00000000
FF00000000
FF00000000
FF00000000
FF00000000
FFFFFFFFFE
FFFFFFFFFE
FFFFFFFFFE
FFFFFFFFFE
FFFFFFFFFE
FFFFFFFFFE
FFFFFFFFFE
ENDCHAR
STARTCHAR 00C9
ENCODING 201
SWIDTH 580 0
DWIDTH 50 0
BBX 39 83 6 0
BITMAP
000001F800
000003F800
000003F000
000003F000
000007F000
000007E000
00000FE000
00000FC000
00000FC000
00001FC000
00001F8000
00003F8000
00003F0000
00003F0000
0000000000
0000000000
0000000000
0000000000
0000000000
0000000000
0000000000
FFFFFFFFFE
FFFFFFFFFE
FFFFFFFFFE
FFFFFFFFFE
FFFFFFFFFE
FFFFFFFFFE
FFFFFFFFFE
FF00000000
FF00000000
FF00000000
FF00000000
FF00000000
FF00000000
FF00000000
FF00000000
FF00000000
FF00000000
FF00000000
FF00000000
FF00000000
FF00000000
FF00000000
FF00000000
FF00000000
FF00000000
FF00000000
FF00000000
FFFFFFFFC0
FFFFFFFFC0
FFFFFFFFC0
FFFFFFFFC0
FFFFFFFFC0
FFFFFFFFC0
FFFFFFFFC0
FF00000000
FF00000000
FF00000000
FF00000000
FF00000000
FF00000000
FF00000000
FF00000000
FF00000000
FF00000000
FF00000000
FF00000000
FF00000000
FF00000000
FF00000000
FF00000000
FF00000000
FF00000000
FF00000000
FF00000000
FF00000000
FFFFFFFFFE
FFFFFFFFFE
FFFFFFFFFE
FFFFFFFFFE
FFFFFFFFFE
FFFFFFFFFE
FFFFFFFFFE
ENDCHAR
STARTCHAR 00CA
ENCODING 202
SWIDTH 580 0
DWIDTH 50 0
BBX 39 81 6 0
BITMAP
0001FE0000
0003FF0000
0007FF8000
000FFFC000
000FFFE000
001FCFE000
003F87F000
007F83F800
00FF03FC00
01FE01FE00
03FC00FF00
03F8007F80
0000000000
0000000000
0000000000
0000000000
0000000000
0000000000
0000000000
FFFFFFFFFE
FFFFFFFFFE
FFFFFFFFFE
FFFFFFFFFE
FFFFFFFFFE
FFFFFFFFFE
FFFFFFFFFE
FF00000000
FF00000000
FF00000000
FF00000000
FF00000000
FF00000000
FF00000000
FF00000000
FF00000000
FF00000000
FF00000000
FF00000000
FF00000000
FF00000000
FF00000000
FF00000000
FF00000000
FF00000000
FF00000000
FF00000000
FFFFFFFFC0
FFFFFFFFC0
FFFFFFFFC0
FFFFFFFFC0
FFFFFFFFC0
FFFFFFFFC0
FFFFFFFFC0
FF00000000
FF00000000
FF00000000
FF00000000
FF00000000
FF00000000
FF00000000
FF00000000
FF00000000
FF00000000
FF00000000
FF00000000
FF00000000
FF00000000
FF00000000
FF00000000
FF00000000
FF00000000
FF00000000
FF00000000
FF00000000
FFFFFFFFFE
FFFFFFFFFE
FFFFFFFFFE
FFFFFFFFFE
FFFFFFFFFE
FFFFFFFFFE
FFFFFFFFFE
ENDCHAR
STARTCHAR 00CB
ENCODING 203
SWIDTH 580 0
DWIDTH 50 0
BBX 39 78 6 0
BITMAP
01FC01FE00
01FC01FE00
01FC01FE00
01FC01FE00
01FC01FE00
01FC01FE00
01FC01FE00
01FC01FE00
0000000000
0000000000
0000000000
0000000000
0000000000
0000000000
0000000000
0000000000
FFFFFFFFFE
FFFFFFFFFE
FFFFFFFFFE
FFFFFFFFFE
FFFFFFFFFE
FFFFFFFFFE
FFFFFFFFFE
FF00000000
FF00000000
FF00000000
FF00000000
FF00000000
FF00000000
FF00000000
FF00000000
FF00000000
FF00000000
FF00000000
FF00000000
FF00000000
FF00000000
FF00000000
FF00000000
FF00000000
FF00000000
FF00000000
FF00000000
FFFFFFFFC0
FFFFFFFFC0
FFFFFFFFC0
FFFFFFFFC0
FFFFFFFFC0
FFFFFFFFC0
FFFFFFFFC0
FF00000000
FF00000000
FF00000000
FF00000000
FF00000000
FF00000000
FF00000000
FF00000000
FF00000000
FF00000000
FF00000000
FF00000000
FF00000000
FF00000000
FF00000000
FF00000000
FF00000000
FF00000000
FF00000000
FF00000000
FF00000000
FFFFFFFFFE
FFFFFFFFFE
FFFFFFFFFE
FFFFFFFFFE
FFFFFFFFFE
FFFFFFFFFE
FFFFFFFFFE
ENDCHAR
STARTCHAR 00CC
ENCODING 204
SWIDTH 243 0
DWIDTH 21 0
BBX 13 83 2 0
BITMAP
FC00
7E00
7E00
7F00
3F00
3F00
3F80
1F80
1FC0
0FC0
0FC0
0FE0
07E0
07F0
0000
0000
0000
0000
0000
0000
0000
07F8
07F8
07F8
07F8
07F8
07F8
07F8
07F8
07F8
07F8
07F8
07F8
07F8
07F8
07F8
07F8
07F8
07F8
07F8
07F8
07F8
07F8
07F8
07F8
07F8
07F8
07F8
07F8
07F8
07F8
07F8
07F8
07F8
07F8
07F8
07F8
07F8
07F8
07F8
07F8
07F8
07F8
07F8
07F8
07F8
07F8
07F8
07F8
07F8
07F8
07F8
07F8
07F8
07F8
07F8
07F8
07F8
07F8
07F8
07F8
07F8
07F8
ENDCHAR
STARTCHAR 00CD
ENCODING 205
SWIDTH 243 0
DWIDTH 21 0
BBX 12 83 7 0
BITMAP
03F0
03F0
07F0
07E0
0FE0
0FC0
0FC0
1FC0
1F80
3F80
3F00
3F00
7F00
7E00
0000
0000
0000
0000
0000
0000
0000
FF00
FF00
FF00
FF00
FF00
FF00
FF00
FF00
FF00
FF00
FF00
FF00
FF00
FF00
FF00
FF00
FF00
FF00
FF00
FF00
FF00
FF00
FF00
FF00
FF00
FF00
FF00
FF00
FF00
FF00
FF00
FF00
FF00
FF00
FF00
FF00
FF00
FF00
FF00
FF00
FF00
FF00
FF00
FF00
FF00
FF00
FF00
FF00
FF00
FF00
FF00
FF00
FF00
FF00
FF00
FF00
FF00
FF00
FF00
FF00
FF00
FF00
ENDCHAR
STARTCHAR 00CE
ENCODING 206
SWIDTH 243 0
DWIDTH 21 0
BBX 27 81 -3 0
BITMAP
003FC000
007FE000
00FFE000
01FFF000
03FFF800
07FBFC00
0FF1FE00
0FE0FF00
1FC07F80
3F803F80
7F801FC0
FF000FE0
00000000
00000000
00000000
00000000
00000000
00000000
00000000
003FC000
003FC000
003FC000
003FC000
003FC000
003FC000
003FC000
003FC000
003FC000
003FC000
003FC000
003FC000
003FC000
003FC000
003FC000
003FC000
003FC000
003FC000
003FC000
003FC000
003FC000
003FC000
003FC000
003FC000
003FC000
003FC000
003FC000
003FC000
003FC000
003FC000
003FC000
003FC000
003FC000
003FC000
003FC000
003FC000
003FC000
003FC000
003FC000
003FC000
003FC000
003FC000
003FC000
003FC000
003FC000
003FC000
003FC000
003FC000
003FC000
003FC000
003FC000
003FC000
003FC000
003FC000
003FC000
003FC000
003FC000
003FC000
003FC000
003FC000
003FC000
003FC000
ENDCHAR
STARTCHAR 00CF
ENCODING 207
SWIDTH 243 0
DWIDTH 21 0
BBX 25 78 -2 0
BITMAP
FF007F80
FF007F80
FF007F80
FF007F80
FF007F80
FF007F80
FF007F80
FF007F80
00000000
00000000
00000000
00000000
00000000
00000000
00000000
00000000
007F8000
007F8000
007F8000
007F8000
007F8000
007F8000
007F8000
007F8000
007F8000
007F8000
007F8000
007F8000
007F8000
007F8000
007F8000
007F8000
007F8000
007F8000
007F8000
007F8000
007F8000
007F8000
007F8000
007F8000
007F8000
007F8000
007F8000
007F8000
007F8000
007F8000
007F8000
007F8000
007F8000
007F8000
007F8000
007F8000
007F8000
007F8000
007F8000
007F8000
007F8000
007F8000
007F8000
007F8000
007F8000
007F8000
007F8000
007F8000
007F8000
007F8000
007F8000
007F8000
007F8000
007F8000
007F8000
007F8000
007F8000
007F8000
007F8000
007F8000
007F8000
007F8000
ENDCHAR
STARTCHAR 00D0
ENCODING 208
SWIDTH 673 0
DWIDTH 58 0
BBX 53 62 1 0
BITMAP
07FFFFFF000000
07FFFFFFF00000
07FFFFFFFE0000
07FFFFFFFF8000
07FFFFFFFFC000
07FFFFFFFFF000
07FFFFFFFFF800
07F8003FFFFC00
07F800003FFE00
07F800000FFE00
07F8000007FF00
07F8000001FF80
07F8000000FF80
07F8000000FFC0
07F80000007FC0
07F80000003FE0
07F80000003FE0
07F80000001FE0
07F80000001FF0
07F80000000FF0
07F80000000FF0
07F80000000FF0
07F80000000FF8
07F800000007F8
07F800000007F8
07F800000007F8
07F800000007F8
07F800000007F8
FFFFFFF00007F8
FFFFFFF00007F8
FFFFFFF00007F8
FFFFFFF00007F8
FFFFFFF00007F8
FFFFFFF00007F8
07F800000007F8
07F800000007F8
07F800000007F8
07F800000007F8
07F800000007F8
07F80000000FF8
07F80000000FF0
07F80000000FF0
07F80000000FF0
07F80000001FF0
07F80000001FE0
07F80000003FE0
07F80000003FE0
07F80000007FC0
07F8000000FFC0
07F8000000FF80
07F8000001FF80
07F8000007FF00
07F800000FFE00
07F800003FFC00
07F8001FFFFC00
07FFFFFFFFF800
07FFFFFFFFF000
07FFFFFFFFC000
07FFFFFFFF8000
07FFFFFFFE0000
07FFFFFFF80000
07FFFFFF000000
ENDCHAR
STARTCHAR 00D1
ENCODING 209
SWIDTH 696 0
DWIDTH 60 0
BBX 48 80 6 0
BITMAP
0001F8000000
0003FE007E00
0007FF807E00
000FFFE07E00
000FFFF87E00
001FFFFFFE00
001F87FFFC00
001F81FFFC00
001F007FF800
001F801FF000
00000007C000
000000000000
000000000000
000000000000
000000000000
000000000000
000000000000
000000000000
FF00000000FF
FF80000000FF
FF80000000FF
FFC0000000FF
FFE0000000FF
FFE0000000FF
FFF0000000FF
FFF8000000FF
FFF8000000FF
FFFC000000FF
FFFE000000FF
FFFE000000FF
FFFF000000FF
FFFF800000FF
FFFF800000FF
FF7FC00000FF
FF3FE00000FF
FF3FE00000FF
FF1FF00000FF
FF0FF80000FF
FF0FF80000FF
FF07FC0000FF
FF03FE0000FF
FF03FE0000FF
FF01FF0000FF
FF00FF8000FF
FF00FF8000FF
FF007FC000FF
FF003FE000FF
FF003FE000FF
FF001FF000FF
FF000FF800FF
FF000FF800FF
FF0007FC00FF
FF0003FE00FF
FF0003FE00FF
FF0001FF00FF
FF0000FF80FF
FF0000FF80FF
FF00007FC0FF
FF00003FE0FF
FF00003FE0FF
FF00001FF0FF
FF00000FF8FF
FF00000FF8FF
FF000007FCFF
FF000003FEFF
FF000003FEFF
FF000001FFFF
FF000000FFFF
FF000000FFFF
FF0000007FFF
FF0000003FFF
FF0000003FFF
FF0000001FFF
FF0000000FFF
FF0000000FFF
FF00000007FF
FF00000003FF
FF00000003FF
FF00000001FF
FF00000000FF
ENDCHAR
STARTCHAR 00D2
ENCODING 210
SWIDTH 731 0
DWIDTH 63 0
BBX 57 84 3 -1
BITMAP
00000FC000000000
00000FC000000000
00000FE000000000
000007E000000000
000007E000000000
000003F000000000
000003F000000000
000003F800000000
000001F800000000
000001F800000000
000000FC00000000
000000FC00000000
000000FE00000000
0000007E00000000
0000000000000000
0000000000000000
0000000000000000
0000000000000000
0000000000000000
0000000000000000
000001FFC0000000
00003FFFFE000000
0000FFFFFF800000
0003FFFFFFE00000
000FFFFFFFF80000
001FFFFFFFFC0000
007FFFFFFFFE0000
00FFFFE3FFFF8000
01FFF8000FFFC000
01FFE00003FFC000
03FF800000FFE000
07FF0000007FF000
0FFC0000001FF800
0FF80000001FF800
1FF80000000FFC00
1FF000000007FC00
3FE000000003FE00
3FE000000003FE00
3FC000000001FE00
7FC000000001FF00
7F8000000000FF00
7F8000000000FF00
7F8000000000FF00
FF8000000000FF80
FF00000000007F80
FF00000000007F80
FF00000000007F80
FF00000000007F80
FF00000000007F80
FF00000000007F80
FF00000000007F80
FF00000000007F80
FF00000000007F80
FF00000000007F80
FF00000000007F80
FF00000000007F80
FF00000000007F80
FF00000000007F80
FF00000000007F80
FF00000000007F80
FF8000000000FF80
7F8000000000FF00
7F8000000000FF00
7F8000000000FF00
7FC000000001FF00
3FC000000001FE00
3FE000000003FE00
3FE000000003FE00
1FF000000007FC00
1FF80000000FFC00
0FF80000000FF800
0FFC0000001FF800
07FE0000003FF000
03FF800000FFE000
01FFE00003FFC000
01FFF8000FFFC000
00FFFFE0FFFF8000
007FFFFFFFFF0000
001FFFFFFFFC0000
000FFFFFFFF80000
0003FFFFFFE00000
0000FFFFFF800000
00003FFFFE000000
000001FFC0000000
ENDCHAR
STARTCHAR 00D3
ENCODING 211
SWIDTH 731 0
DWIDTH 63 0
BBX 57 84 3 -1
BITMAP
00000001FC000000
00000001F8000000
00000001F8000000
00000003F8000000
00000003F0000000
00000007F0000000
00000007E0000000
00000007E0000000
0000000FE0000000
0000000FC0000000
0000001FC0000000
0000001F80000000
0000001F80000000
0000003F80000000
0000000000000000
0000000000000000
0000000000000000
0000000000000000
0000000000000000
0000000000000000
000001FFC0000000
00003FFFFE000000
0000FFFFFF800000
0003FFFFFFE00000
000FFFFFFFF80000
001FFFFFFFFC0000
007FFFFFFFFE0000
00FFFFE3FFFF8000
01FFF8000FFFC000
01FFE00003FFC000
03FF800000FFE000
07FF0000007FF000
0FFC0000001FF800
0FF80000001FF800
1FF80000000FFC00
1FF000000007FC00
3FE000000003FE00
3FE000000003FE00
3FC000000001FE00
7FC000000001FF00
7F8000000000FF00
7F8000000000FF00
7F8000000000FF00
FF8000000000FF80
FF00000000007F80
FF00000000007F80
FF00000000007F80
FF00000000007F80
FF00000000007F80
FF00000000007F80
FF00000000007F80
FF00000000007F80
FF00000000007F80
FF00000000007F80
FF00000000007F80
FF00000000007F80
FF00000000007F80
FF00000000007F80
FF00000000007F80
FF00000000007F80
FF8000000000FF80
7F8000000000FF00
7F8000000000FF00
7F8000000000FF00
7FC000000001FF00
3FC000000001FE00
3FE000000003FE00
3FE000000003FE00
1FF000000007FC00
1FF80000000FFC00
0FF80000000FF800
0FFC0000001FF800
07FE0000003FF000
03FF800000FFE000
01FFE00003FFC000
01FFF8000FFFC000
00FFFFE0FFFF8000
007FFFFFFFFF0000
001FFFFFFFFC0000
000FFFFFFFF80000
0003FFFFFFE00000
0000FFFFFF800000
00003FFFFE000000
000001FFC0000000
ENDCHAR
STARTCHAR 00D4
ENCODING 212
SWIDTH 731 0
DWIDTH 63 0
BBX 57 82 3 -1
BITMAP
0000007F00000000
000000FF80000000
000001FFC0000000
000003FFE0000000
000007FFF0000000
00000FF7F8000000
00001FE3F8000000
00001FC1FC000000
00003F80FE000000
00007F00FF000000
0000FF007F800000
0001FE003FC00000
0000000000000000
0000000000000000
0000000000000000
0000000000000000
0000000000000000
0000000000000000
000001FFC0000000
00003FFFFE000000
0000FFFFFF800000
0003FFFFFFE00000
000FFFFFFFF80000
001FFFFFFFFC0000
007FFFFFFFFE0000
00FFFFE3FFFF8000
01FFF8000FFFC000
01FFE00003FFC000
03FF800000FFE000
07FF0000007FF000
0FFC0000001FF800
0FF80000001FF800
1FF80000000FFC00
1FF000000007FC00
3FE000000003FE00
3FE000000003FE00
3FC000000001FE00
7FC000000001FF00
7F8000000000FF00
7F8000000000FF00
7F8000000000FF00
FF8000000000FF80
FF00000000007F80
FF00000000007F80
FF00000000007F80
FF00000000007F80
FF00000000007F80
FF00000000007F80
FF00000000007F80
FF00000000007F80
FF00000000007F80
FF00000000007F80
FF00000000007F80
FF00000000007F80
FF00000000007F80
FF00000000007F80
FF00000000007F80
FF00000000007F80
FF8000000000FF80
7F8000000000FF00
7F8000000000FF00
7F8000000000FF00
7FC000000001FF00
3FC000000001FE00
3FE000000003FE00
3FE000000003FE00
1FF000000007FC00
1FF80000000FFC00
0FF80000000FF800
0FFC0000001FF800
07FE0000003FF000
03FF800000FFE000
01FFE00003FFC000
01FFF8000FFFC000
00FFFFE0FFFF8000
007FFFFFFFFF0000
001FFFFFFFFC0000
000FFFFFFFF80000
0003FFFFFFE00000
0000FFFFFF800000
00003FFFFE000000
000001FFC0000000
ENDCHAR
STARTCHAR 00D5
ENCODING 213
SWIDTH 731 0
DWIDTH 63 0
BBX 57 81 3 -1
BITMAP
00001F8000000000
00003FE003E00000
00007FF803E00000
0000FFFE07E00000
0000FFFF87E00000
0001FFFFFFE00000
0001F87FFFE00000
0001F81FFFC00000
0001F807FF800000
0000F801FF800000
000000007E000000
0000000000000000
0000000000000000
0000000000000000
0000000000000000
0000000000000000
0000000000000000
000001FFC0000000
00003FFFFE000000
0000FFFFFF800000
0003FFFFFFE00000
000FFFFFFFF80000
001FFFFFFFFC0000
007FFFFFFFFE0000
00FFFFE3FFFF8000
01FFF8000FFFC000
01FFE00003FFC000
03FF800000FFE000
07FF0000007FF000
0FFC0000001FF800
0FF80000001FF800
1FF80000000FFC00
1FF000000007FC00
3FE000000003FE00
3FE000000003FE00
3FC000000001FE00
7FC000000001FF00
7F8000000000FF00
7F8000000000FF00
7F8000000000FF00
FF8000000000FF80
FF00000000007F80
FF00000000007F80
FF00000000007F80
FF00000000007F80
FF00000000007F80
FF00000000007F80
FF00000000007F80
FF00000000007F80
FF00000000007F80
FF00000000007F80
FF00000000007F80
FF00000000007F80
FF00000000007F80
FF00000000007F80
FF00000000007F80
FF00000000007F80
FF8000000000FF80
7F8000000000FF00
7F8000000000FF00
7F8000000000FF00
7FC000000001FF00
3FC000000001FE00
3FE000000003FE00
3FE000000003FE00
1FF000000007FC00
1FF80000000FFC00
0FF80000000FF800
0FFC0000001FF800
07FE0000003FF000
03FF800000FFE000
01FFE00003FFC000
01FFF8000FFFC000
00FFFFE0FFFF8000
007FFFFFFFFF0000
001FFFFFFFFC0000
000FFFFFFFF80000
0003FFFFFFE00000
0000FFFFFF800000
00003FFFFE000000
000001FFC0000000
ENDCHAR
STARTCHAR 00D6
ENCODING 214
SWIDTH 731 0
DWIDTH 63 0
BBX 57 79 3 -1
BITMAP
0000FF007F800000
0000FF007F800000
0000FF007F800000
0000FF007F800000
0000FF007F800000
0000FF007F800000
0000FF007F800000
0000FF007F800000
0000000000000000
0000000000000000
0000000000000000
0000000000000000
0000000000000000
0000000000000000
0000000000000000
000001FFC0000000
00003FFFFE000000
0000FFFFFF800000
0003FFFFFFE00000
000FFFFFFFF80000
001FFFFFFFFC0000
007FFFFFFFFE0000
00FFFFE3FFFF8000
01FFF8000FFFC000
01FFE00003FFC000
03FF800000FFE000
07FF0000007FF000
0FFC0000001FF800
0FF80000001FF800
1FF80000000FFC00
1FF000000007FC00
3FE000000003FE00
3FE000000003FE00
3FC000000001FE00
7FC000000001FF00
7F8000000000FF00
7F8000000000FF00
7F8000000000FF00
FF8000000000FF80
FF00000000007F80
FF00000000007F80
FF00000000007F80
FF00000000007F80
FF00000000007F80
FF00000000007F80
FF00000000007F80
FF00000000007F80
FF00000000007F80
FF00000000007F80
FF00000000007F80
FF00000000007F80
FF00000000007F80
FF00000000007F80
FF00000000007F80
FF00000000007F80
FF8000000000FF80
7F8000000000FF00
7F8000000000FF00
7F8000000000FF00
7FC000000001FF00
3FC000000001FE00
3FE000000003FE00
3FE000000003FE00
1FF000000007FC00
1FF80000000FFC00
0FF80000000FF800
0FFC0000001FF800
07FE0000003FF000
03FF800000FFE000
01FFE00003FFC000
01FFF8000FFFC000
00FFFFE0FFFF8000
007FFFFFFFFF0000
001FFFFFFFFC0000
000FFFFFFFF80000
0003FFFFFFE00000
0000FFFFFF800000
00003FFFFE000000
000001FFC0000000
ENDCHAR
STARTCHAR 00D7
ENCODING 215
SWIDTH 499 0
DWIDTH 43 0
BBX 32 32 5 16
BITMAP
08000010
1C000038
3E00007C
7F0000FE
FF8001FF
7FC003FE
3FE007FC
1FF00FF8
0FF81FF0
07FC3FE0
03FE7FC0
01FFFF80
00FFFF00
007FFE00
003FFC00
001FF800
001FF800
003FFC00
007FFE00
00FFFF00
01FFFF80
03FE7FC0
07FC3FE0
0FF81FF0
1FF00FF8
3FE007FC
7FC003FE
FF8001FF
7F0000FF
3E00007E
1C00003C
08000018
ENDCHAR
STARTCHAR 00D8
ENCODING 216
SWIDTH 731 0
DWIDTH 63 0
BBX 58 64 3 -1
BITMAP
000001FFC0000400
00003FFFFE000E00
0000FFFFFF801F00
0003FFFFFFE03F80
000FFFFFFFF87FC0
001FFFFFFFFEFFC0
007FFFFFFFFFFF80
00FFFFE1FFFFFF00
01FFF8000FFFFE00
01FFE00003FFFC00
03FF800000FFFC00
07FF0000007FF800
0FFC0000003FF800
0FF80000007FF800
1FF8000000FFFC00
1FF0000001FFFC00
3FE0000003FFFE00
3FE0000003FFFE00
3FC0000007FDFE00
7FC000000FF9FF00
7F8000001FF0FF00
7F8000003FE0FF00
7F8000007FE0FF00
FF800000FFC0FF80
FF000001FF807F80
FF000003FF007F80
FF000007FE007F80
FF00000FFC007F80
FF00001FF8007F80
FF00003FF0007F80
FF00003FE0007F80
FF00007FC0007F80
FF0000FF80007F80
FF0001FF00007F80
FF0003FF00007F80
FF0007FE00007F80
FF000FFC00007F80
FF001FF800007F80
FF003FF000007F80
FF007FE000007F80
FF80FFC00000FF80
7F81FF800000FF00
7F81FF000000FF00
7F83FE000000FF00
7FC7FC000001FF00
3FCFF8000001FE00
3FFFF0000003FE00
3FFFF0000003FE00
1FFFE0000007FC00
1FFFC000000FFC00
0FFF8000000FF800
0FFF0000001FF800
07FF0000003FF000
0FFF800000FFE000
1FFFE00003FFC000
3FFFF8000FFFC000
7FFFFFC0FFFF8000
7FFFFFFFFFFF0000
FFDFFFFFFFFC0000
FF8FFFFFFFF80000
7F03FFFFFFE00000
3E00FFFFFF800000
1C003FFFFE000000
080001FFC0000000
ENDCHAR
STARTCHAR 00D9
ENCODING 217
SWIDTH 708 0
DWIDTH 61 0
BBX 49 84 6 -1
BITMAP
00007E00000000
00007F00000000
00003F00000000
00003F00000000
00003F80000000
00001F80000000
00001FC0000000
00000FC0000000
00000FC0000000
00000FE0000000
000007E0000000
000007F0000000
000003F0000000
000003F0000000
00000000000000
00000000000000
00000000000000
00000000000000
00000000000000
00000000000000
00000000000000
FF000000007F80
FF000000007F80
FF000000007F80
FF000000007F80
FF000000007F80
FF000000007F80
FF000000007F80
FF000000007F80
FF000000007F80
FF000000007F80
FF000000007F80
FF000000007F80
FF000000007F80
FF000000007F80
FF000000007F80
FF000000007F80
FF000000007F80
FF000000007F80
FF000000007F80
FF000000007F80
FF000000007F80
FF000000007F80
FF000000007F80
FF000000007F80
FF000000007F80
FF000000007F80
FF000000007F80
FF000000007F80
FF000000007F80
FF000000007F80
FF000000007F80
FF000000007F80
FF000000007F80
FF000000007F80
FF000000007F80
FF000000007F80
FF000000007F80
FF000000007F80
FF000000007F80
FF000000007F80
FF000000007F80
FF000000007F80
FF000000007F80
FF000000007F80
FF80000000FF00
7F80000000FF00
7F80000000FF00
7FC0000001FF00
3FE0000003FE00
3FE0000003FE00
3FF0000007FC00
1FF800000FFC00
0FFC00001FF800
0FFF00007FF800
07FFC001FFF000
03FFF81FFFE000
01FFFFFFFFC000
00FFFFFFFF8000
007FFFFFFF0000
001FFFFFFC0000
0007FFFFF00000
0001FFFFC00000
00001FFC000000
ENDCHAR
STARTCHAR 00DA
ENCODING 218
SWIDTH 708 0
DWIDTH 61 0
BBX 49 84 6 -1
BITMAP
0000003F000000
0000003F000000
0000007F000000
0000007E000000
0000007E000000
000000FC000000
000000FC000000
000001FC000000
000001F8000000
000001F8000000
000003F0000000
000003F0000000
000007F0000000
000007E0000000
00000000000000
00000000000000
00000000000000
00000000000000
00000000000000
00000000000000
00000000000000
FF000000007F80
FF000000007F80
FF000000007F80
FF000000007F80
FF000000007F80
FF000000007F80
FF000000007F80
FF000000007F80
FF000000007F80
FF000000007F80
FF000000007F80
FF000000007F80
FF000000007F80
FF000000007F80
FF000000007F80
FF000000007F80
FF000000007F80
FF000000007F80
FF000000007F80
FF000000007F80
FF000000007F80
FF000000007F80
FF000000007F80
FF000000007F80
FF000000007F80
FF000000007F80
FF000000007F80
FF000000007F80
FF000000007F80
FF000000007F80
FF000000007F80
FF000000007F80
FF000000007F80
FF000000007F80
FF000000007F80
FF000000007F80
FF000000007F80
FF000000007F80
FF000000007F80
FF000000007F80
FF000000007F80
FF000000007F80
FF000000007F80
FF000000007F80
FF80000000FF00
7F80000000FF00
7F80000000FF00
7FC0000001FF00
3FE0000003FE00
3FE0000003FE00
3FF0000007FC00
1FF800000FFC00
0FFC00001FF800
0FFF00007FF800
07FFC001FFF000
03FFF81FFFE000
01FFFFFFFFC000
00FFFFFFFF8000
007FFFFFFF0000
001FFFFFFC0000
0007FFFFF00000
0001FFFFC00000
00001FFC000000
ENDCHAR
STARTCHAR 00DB
ENCODING 219
SWIDTH 708 0
DWIDTH 61 0
BBX 49 82 6 -1
BITMAP
00000FF0000000
00001FF8000000
00001FFC000000
00003FFE000000
00007FFF000000
0000FF7F800000
0001FE3FC00000
0003FC1FC00000
0007F80FE00000
0007F007F00000
000FE007F80000
001FC003FC0000
00000000000000
00000000000000
00000000000000
00000000000000
00000000000000
00000000000000
00000000000000
FF000000007F80
FF000000007F80
FF000000007F80
FF000000007F80
FF000000007F80
FF000000007F80
FF000000007F80
FF000000007F80
FF000000007F80
FF000000007F80
FF000000007F80
FF000000007F80
FF000000007F80
FF000000007F80
FF000000007F80
FF000000007F80
FF000000007F80
FF000000007F80
FF000000007F80
FF000000007F80
FF000000007F80
FF000000007F80
FF000000007F80
FF000000007F80
FF000000007F80
FF000000007F80
FF000000007F80
FF000000007F80
FF000000007F80
FF000000007F80
FF000000007F80
FF000000007F80
FF000000007F80
FF000000007F80
FF000000007F80
FF000000007F80
FF000000007F80
FF000000007F80
FF000000007F80
FF000000007F80
FF000000007F80
FF000000007F80
FF000000007F80
FF000000007F80
FF80000000FF00
7F80000000FF00
7F80000000FF00
7FC0000001FF00
3FE0000003FE00
3FE0000003FE00
3FF0000007FC00
1FF800000FFC00
0FFC00001FF800
0FFF00007FF800
07FFC001FFF000
03FFF81FFFE000
01FFFFFFFFC000
00FFFFFFFF8000
007FFFFFFF0000
001FFFFFFC0000
0007FFFFF00000
0001FFFFC00000
00001FFC000000
ENDCHAR
STARTCHAR 00DC
ENCODING 220
SWIDTH 708 0
DWIDTH 61 0
BBX 49 79 6 -1
BITMAP
000FF007F80000
000FF007F80000
000FF007F80000
000FF007F80000
000FF007F80000
000FF007F80000
000FF007F80000
000FF007F80000
00000000000000
00000000000000
00000000000000
00000000000000
00000000000000
00000000000000
00000000000000
00000000000000
FF000000007F80
FF000000007F80
FF000000007F80
FF000000007F80
FF000000007F80
FF000000007F80
FF000000007F80
FF000000007F80
FF000000007F80
FF000000007F80
FF000000007F80
FF000000007F80
FF000000007F80
FF000000007F80
FF000000007F80
FF000000007F80
FF000000007F80
FF000000007F80
FF000000007F80
FF000000007F80
FF000000007F80
FF000000007F80
FF000000007F80
FF000000007F80
FF000000007F80
FF000000007F80
FF000000007F80
FF000000007F80
FF000000007F80
FF000000007F80
FF000000007F80
FF000000007F80
FF000000007F80
FF000000007F80
FF000000007F80
FF000000007F80
FF000000007F80
FF000000007F80
FF000000007F80
FF000000007F80
FF000000007F80
FF000000007F80
FF000000007F80
FF000000007F80
FF80000000FF00
7F80000000FF00
7F80000000FF00
7FC0000001FF00
3FE0000003FE00
3FE0000003FE00
3FF0000007FC00
1FF800000FFC00
0FFC00001FF800
0FFF00007FF800
07FFC001FFF000
03FFF81FFFE000
01FFFFFFFFC000
00FFFFFFFF8000
007FFFFFFF0000
001FFFFFFC0000
0007FFFFF00000
0001FFFFC00000
00001FFC000000
ENDCHAR
STARTCHAR 00DD
ENCODING 221
SWIDTH 569 0
DWIDTH 49 0
BBX 49 83 0 0
BITMAP
0000003F800000
0000003F000000
0000007F000000
0000007E000000
0000007E000000
000000FE000000
000000FC000000
000000FC000000
000001F8000000
000001F8000000
000003F8000000
000003F0000000
000003F0000000
000007E0000000
00000000000000
00000000000000
00000000000000
00000000000000
00000000000000
00000000000000
00000000000000
FF80000000FF80
7FC0000000FF80
7FC0000001FF00
3FE0000001FE00
1FF0000003FE00
1FF0000007FC00
0FF8000007FC00
0FF800000FF800
07FC00000FF800
07FC00001FF000
03FE00001FE000
01FF00003FE000
01FF00007FC000
00FF80007FC000
00FF8000FF8000
007FC000FF8000
007FC001FF0000
003FE003FE0000
001FF003FE0000
001FF007FC0000
000FF807FC0000
000FF80FF80000
0007FC0FF80000
0003FC1FF00000
0003FE3FE00000
0001FF3FE00000
0001FF7FC00000
0000FFFFC00000
0000FFFF800000
00007FFF800000
00003FFF000000
00003FFE000000
00001FFE000000
00001FFC000000
00000FFC000000
00000FF8000000
000007F8000000
000007F8000000
000007F8000000
000007F8000000
000007F8000000
000007F8000000
000007F8000000
000007F8000000
000007F8000000
000007F8000000
000007F8000000
000007F8000000
000007F8000000
000007F8000000
000007F8000000
000007F8000000
000007F8000000
000007F8000000
000007F8000000
000007F8000000
000007F8000000
000007F8000000
000007F8000000
000007F8000000
000007F8000000
000007F8000000
ENDCHAR
STARTCHAR 00DE
ENCODING 222
SWIDTH 603 0
DWIDTH 52 0
BBX 44 62 6 0
BITMAP
FF0000000000
FF0000000000
FF0000000000
FF0000000000
FF0000000000
FF0000000000
FF0000000000
FF0000000000
FF0000000000
FF0000000000
FF0000000000
FF0000000000
FFFFFFF80000
FFFFFFFF0000
FFFFFFFFC000
FFFFFFFFF000
FFFFFFFFF800
FFFFFFFFFC00
FFFFFFFFFE00
FF00001FFF00
FF000007FF00
FF000001FF80
FF000000FF80
FF0000007FC0
FF0000003FC0
FF0000003FE0
FF0000001FE0
FF0000001FE0
FF0000001FE0
FF0000000FF0
FF0000000FF0
FF0000000FF0
FF0000000FF0
FF0000000FE0
FF0000001FE0
FF0000001FE0
FF0000003FE0
FF0000003FC0
FF0000007FC0
FF000000FFC0
FF000001FF80
FF000007FF00
FF00001FFF00
FFFFFFFFFE00
FFFFFFFFFC00
FFFFFFFFF800
FFFFFFFFF000
FFFFFFFFC000
FFFFFFFF0000
FFFFFFFC0000
FF0000000000
FF0000000000
FF0000000000
FF0000000000
FF0000000000
FF0000000000
FF0000000000
FF0000000000
FF0000000000
FF0000000000
FF0000000000
FF0000000000
ENDCHAR
STARTCHAR 00DF
ENCODING 223
SWIDTH 615 0
DWIDTH 53 0
BBX 41 64 6 -1
BITMAP
0007FE000000
003FFFC00000
00FFFFF00000
03FFFFFC0000
07FFFFFE0000
0FFFFFFF0000
1FFFFFFF8000
3FFF0FFF8000
3FF801FFC000
7FE0007FE000
7FC0003FE000
7FC0001FE000
FF80001FF000
FF80000FF000
FF00000FF000
FF00000FF000
FF00000FF000
FF00000FF000
FF00000FF000
FF00000FF000
FF00000FF000
FF00001FF000
FF00001FE000
FF00003FE000
FF00007FC000
FF0001FFC000
FF0007FF8000
FF003FFF0000
FF003FFC0000
FF003FFE0000
FF003FFF8000
FF003FFFE000
FF003FFFF000
FF003FFFF800
FF0000FFFC00
FF00001FFC00
FF000007FE00
FF000003FF00
FF000001FF00
FF000000FF80
FF0000007F80
FF0000007F80
FF0000007F80
FF0000007F80
FF0000003F80
FF0000003F80
FF0000003F80
FF0000007F80
FF0000007F80
FF0000007F80
FF000000FF80
FF000000FF80
FF000001FF00
FF000003FF00
FF000007FE00
FF02001FFE00
FF03FFFFFC00
FF03FFFFFC00
FF03FFFFF800
FF03FFFFF000
FF03FFFFC000
FF03FFFF8000
FF03FFFE0000
0000FFE00000
ENDCHAR
STARTCHAR 00E0
ENCODING 224
SWIDTH 557 0
DWIDTH 48 0
BBX 40 69 3 -1
BITMAP
0007F00000
0003F00000
0003F00000
0001F80000
0001F80000
0001FC0000
0000FC0000
0000FC0000
00007E0000
00007E0000
00007F0000
00003F0000
00003F0000
00003F8000
0000000000
0000000000
0000000000
0000000000
0000000000
0000000000
0000FFE000
000FFFFC00
003FFFFF80
007FFFFFC0
01FFFFFFE0
03FFFFFFF0
07FFFFFFF8
07FFC07FFC
0FFE000FFC
0FF80007FE
1FF00003FE
1FE00001FF
3FE00000FF
1FC00000FF
03C00000FF
00000000FF
000000007F
000000007F
00000000FF
0000007FFF
00003FFFFF
0007FFFFFF
003FFFFFFF
00FFFFFFFF
03FFFFFFFF
07FFFFF07F
0FFFFC007F
1FFF00007F
3FF80000FF
3FE00000FF
7FC00000FF
7F800000FF
7F800000FF
7F000001FF
FF000001FF
FF000001FF
FF000003FF
7F000007FF
7F80000FFF
7F80001FFF
7FC0003FFF
3FF000FFFF
3FFF1FFF7F
1FFFFFFE7F
0FFFFFFC7F
07FFFFF87F
01FFFFE07F
00FFFF807F
000FFC0000
ENDCHAR
STARTCHAR 00E1
ENCODING 225
SWIDTH 557 0
DWIDTH 48 0
BBX 40 69 3 -1
BITMAP
000000FC00
000000FC00
000001FC00
000001F800
000001F800
000003F000
000003F000
000007F000
000007E000
000007E000
00000FC000
00000FC000
00001FC000
00001F8000
0000000000
0000000000
0000000000
0000000000
0000000000
0000000000
0000FFE000
000FFFFC00
003FFFFF80
007FFFFFC0
01FFFFFFE0
03FFFFFFF0
07FFFFFFF8
07FFC07FFC
0FFE000FFC
0FF80007FE
1FF00003FE
1FE00001FF
3FE00000FF
1FC00000FF
03C00000FF
00000000FF
000000007F
000000007F
00000000FF
0000007FFF
00003FFFFF
0007FFFFFF
003FFFFFFF
00FFFFFFFF
03FFFFFFFF
07FFFFF07F
0FFFFC007F
1FFF00007F
3FF80000FF
3FE00000FF
7FC00000FF
7F800000FF
7F800000FF
7F000001FF
FF000001FF
FF000001FF
FF000003FF
7F000007FF
7F80000FFF
7F80001FFF
7FC0003FFF
3FF000FFFF
3FFF1FFF7F
1FFFFFFE7F
0FFFFFFC7F
07FFFFF87F
01FFFFE07F
00FFFF807F
000FFC0000
ENDCHAR
STARTCHAR 00E2
ENCODING 226
SWIDTH 557 0
DWIDTH 48 0
BBX 40 67 3 -1
BITMAP
00003FC000
00007FE000
0000FFE000
0001FFF000
0001FFF800
0003FBFC00
0007F1FE00
000FF0FF00
001FE07F80
003FC03F80
007F801FC0
007F000FE0
0080000000
0000000000
0000000000
0000000000
0000000000
0000000000
0000FFE000
000FFFFC00
003FFFFF80
007FFFFFC0
01FFFFFFE0
03FFFFFFF0
07FFFFFFF8
07FFC07FFC
0FFE000FFC
0FF80007FE
1FF00003FE
1FE00001FF
3FE00000FF
1FC00000FF
03C00000FF
00000000FF
000000007F
000000007F
00000000FF
0000007FFF
00003FFFFF
0007FFFFFF
003FFFFFFF
00FFFFFFFF
03FFFFFFFF
07FFFFF07F
0FFFFC007F
1FFF00007F
3FF80000FF
3FE00000FF
7FC00000FF
7F800000FF
7F800000FF
7F000001FF
FF000001FF
FF000001FF
FF000003FF
7F000007FF
7F80000FFF
7F80001FFF
7FC0003FFF
3FF000FFFF
3FFF1FFF7F
1FFFFFFE7F
0FFFFFFC7F
07FFFFF87F
01FFFFE07F
00FFFF807F
000FFC0000
ENDCHAR
STARTCHAR 00E3
ENCODING 227
SWIDTH 557 0
DWIDTH 48 0
BBX 40 66 3 -1
BITMAP
0007C00000
001FF801F0
003FFE01F0
007FFF01F0
007FFFC3F0
007FFFFFF0
007E1FFFF0
007C0FFFE0
007C03FFE0
007C00FFC0
0000003F00
0000000000
0000000000
0000000000
0000000000
0000000000
0000000000
0000FFE000
000FFFFC00
003FFFFF80
007FFFFFC0
01FFFFFFE0
03FFFFFFF0
07FFFFFFF8
07FFC07FFC
0FFE000FFC
0FF80007FE
1FF00003FE
1FE00001FF
3FE00000FF
1FC00000FF
03C00000FF
00000000FF
000000007F
000000007F
00000000FF
0000007FFF
00003FFFFF
0007FFFFFF
003FFFFFFF
00FFFFFFFF
03FFFFFFFF
07FFFFF07F
0FFFFC007F
1FFF00007F
3FF80000FF
3FE00000FF
7FC00000FF
7F800000FF
7F800000FF
7F000001FF
FF000001FF
FF000001FF
FF000003FF
7F000007FF
7F80000FFF
7F80001FFF
7FC0003FFF
3FF000FFFF
3FFF1FFF7F
1FFFFFFE7F
0FFFFFFC7F
07FFFFF87F
01FFFFE07F
00FFFF807F
000FFC0000
ENDCHAR
STARTCHAR 00E4
ENCODING 228
SWIDTH 557 0
DWIDTH 48 0
BBX 40 64 3 -1
BITMAP
003FC01FC0
003FC01FC0
003FC01FC0
003FC01FC0
003FC01FC0
003FC01FC0
003FC01FC0
003FC01FC0
0000000000
0000000000
0000000000
0000000000
0000000000
0000000000
0000000000
0000FFE000
000FFFFC00
003FFFFF80
007FFFFFC0
01FFFFFFE0
03FFFFFFF0
07FFFFFFF8
07FFC07FFC
0FFE000FFC
0FF80007FE
1FF00003FE
1FE00001FF
3FE00000FF
1FC00000FF
03C00000FF
00000000FF
000000007F
000000007F
00000000FF
0000007FFF
00003FFFFF
0007FFFFFF
003FFFFFFF
00FFFFFFFF
03FFFFFFFF
07FFFFF07F
0FFFFC007F
1FFF00007F
3FF80000FF
3FE00000FF
7FC00000FF
7F800000FF
7F800000FF
7F000001FF
FF000001FF
FF000001FF
FF000003FF
7F000007FF
7F80000FFF
7F80001FFF
7FC0003FFF
3FF000FFFF
3FFF1FFF7F
1FFFFFFE7F
0FFFFFFC7F
07FFFFF87F
01FFFFE07F
00FFFF807F
000FFC0000
ENDCHAR
STARTCHAR 00E5
ENCODING 229
SWIDTH 557 0
DWIDTH 48 0
BBX 40 73 3 -1
BITMAP
00001F8000
00007FE000
0001FFF000
0003FFF800
0007FFFC00
0007F9FE00
000FE07E00
000FC03E00
000F803F00
000F801F00
000F801F00
000F803F00
000FC03F00
000FC07E00
0007F0FE00
0007FFFC00
0003FFFC00
0001FFF800
0000FFF000
00003FC000
0000000000
0000000000
0000000000
0000000000
0000FFE000
000FFFFC00
003FFFFF80
007FFFFFC0
01FFFFFFE0
03FFFFFFF0
07FFFFFFF8
07FFC07FFC
0FFE000FFC
0FF80007FE
1FF00003FE
1FE00001FF
3FE00000FF
1FC00000FF
03C00000FF
00000000FF
000000007F
000000007F
00000000FF
0000007FFF
00003FFFFF
0007FFFFFF
003FFFFFFF
00FFFFFFFF
03FFFFFFFF
07FFFFF07F
0FFFFC007F
1FFF00007F
3FF80000FF
3FE00000FF
7FC00000FF
7F800000FF
7F800000FF
7F000001FF
FF000001FF
FF000001FF
FF000003FF
7F000007FF
7F80000FFF
7F80001FFF
7FC0003FFF
3FF000FFFF
3FFF1FFF7F
1FFFFFFE7F
0FFFFFFC7F
07FFFFF87F
01FFFFE07F
00FFFF807F
000FFC0000
ENDCHAR
STARTCHAR 00E6
ENCODING 230
SWIDTH 940 0
DWIDTH 81 0
BBX 74 49 3 -1
BITMAP
0000FFE000007FE00000
0007FFFC0003FFFC0000
001FFFFF000FFFFF0000
007FFFFFC03FFFFFC000
00FFFFFFE07FFFFFE000
01FFFFFFF0FFFFFFF000
03FFFFFFF9FFFFFFF800
07FFC07FFFFFC01FFC00
0FFE000FFFFE0007FC00
1FF80007FFFC0003FE00
1FF00003FFF80001FF00
1FE00001FFF00000FF00
3FC00001FFE000007F00
07C00000FFE000007F80
00800000FFC000003F80
00000000FFC000003F80
00000000FFC000003FC0
000000007F8000003FC0
000000007F8000001FC0
000000007F8000001FC0
000000FFFFFFFFFFFFC0
0003FFFFFFFFFFFFFFC0
003FFFFFFFFFFFFFFFC0
00FFFFFFFFFFFFFFFFC0
03FFFFFFFFFFFFFFFFC0
07FFFFFFFFFFFFFFFFC0
0FFFF0007F8000000000
1FFC00007F8000000000
3FF000007F8000000000
3FC00000FF8000000000
7F800000FF8000000000
7F800000FFC000000000
7F000000FFC000000000
FF000001FFC000000000
FF000001FFE000003C00
FF000001FFE000003F00
FF000003FFF000007F80
7F000007FFF00000FF80
7F80000FFFF80001FF00
7FC0001FE7FE0003FF00
7FC0003FE7FF000FFE00
3FF001FFC3FFF07FFC00
3FFE1FFF81FFFFFFFC00
1FFFFFFF00FFFFFFF800
0FFFFFFE007FFFFFE000
07FFFFFC003FFFFFC000
03FFFFF0000FFFFF8000
00FFFFC00003FFFC0000
000FFC0000003FE00000
ENDCHAR
STARTCHAR 00E7
ENCODING 231
SWIDTH 557 0
DWIDTH 48 0
BBX 43 69 3 -21
BITMAP
00007FF00000
0003FFFE0000
000FFFFF8000
003FFFFFE000
007FFFFFF800
00FFFFFFFC00
01FFFFFFFE00
03FFF07FFE00
07FF800FFF00
0FFE0003FF80
0FFC0001FF80
1FF80000FFC0
1FF000007FC0
3FE000003FE0
3FE000003E00
3FC000001000
7FC000000000
7F8000000000
7F8000000000
7F8000000000
7F8000000000
7F8000000000
7F8000000000
FF8000000000
FF8000000000
FF8000000000
FF8000000000
7F8000000000
7F8000000000
7F8000000000
7F8000000000
7F8000000000
7FC000000000
3FC000000000
3FE000003C00
3FE000003FC0
1FF000007FC0
1FF000007FC0
0FF80000FF80
0FFE0003FF80
07FF0007FF00
03FFE03FFE00
01FFFFFFFE00
01FFFFFFFC00
007FFFFFF800
003FFFFFE000
000FFFFFC000
0003FFFF0000
00007FF00000
00000F800000
00001F800000
00001F000000
00001F000000
00003FC00000
00003FE00000
00003FF00000
00000FF00000
000003F80000
000001F80000
000001F80000
000001F80000
000001F80000
000003F80000
0000FFF80000
0000FFF00000
0000FFE00000
0001FFC00000
0000FF800000
00001C000000
ENDCHAR
STARTCHAR 00E8
ENCODING 232
SWIDTH 592 0
DWIDTH 51 0
BBX 44 69 3 -1
BITMAP
0001F8000000
0001F8000000
0001FC000000
0000FC000000
0000FE000000
00007E000000
00007E000000
00007F000000
00003F000000
00003F800000
00001F800000
00001F800000
00001FC00000
00000FC00000
000000000000
000000000000
000000000000
000000000000
000000000000
000000000000
00003FF00000
0003FFFE0000
000FFFFF8000
003FFFFFE000
007FFFFFF000
00FFFFFFF800
01FFFFFFFC00
03FFE00FFE00
07FF0003FF00
0FFC0001FF80
0FF80000FF80
1FF000007FC0
1FF000003FC0
3FE000003FE0
3FC000001FE0
3FC000001FE0
7FC000000FE0
7F8000000FF0
7F8000000FF0
7F8000000FF0
7F8000000FF0
7FFFFFFFFFF0
7FFFFFFFFFF0
FFFFFFFFFFF0
FFFFFFFFFFF0
FFFFFFFFFFF0
FFFFFFFFFFF0
FF8000000000
7F8000000000
7F8000000000
7F8000000000
7F8000000000
7FC000000000
3FC000000000
3FC000000C00
3FE000001F80
1FF000003FE0
1FF000003FE0
0FF80000FFC0
0FFE0001FFC0
07FF0007FF80
03FFF03FFF00
01FFFFFFFE00
00FFFFFFFC00
007FFFFFF800
003FFFFFF000
000FFFFFC000
0003FFFF0000
00003FF00000
ENDCHAR
STARTCHAR 00E9
ENCODING 233
SWIDTH 592 0
DWIDTH 51 0
BBX 44 69 3 -1
BITMAP
0000003F0000
0000003F0000
0000007F0000
0000007E0000
000000FE0000
000000FC0000
000000FC0000
000001FC0000
000001F80000
000003F80000
000003F00000
000003F00000
000007F00000
000007E00000
000000000000
000000000000
000000000000
000000000000
000000000000
000000000000
00003FF00000
0003FFFE0000
000FFFFF8000
003FFFFFE000
007FFFFFF000
00FFFFFFF800
01FFFFFFFC00
03FFE00FFE00
07FF0003FF00
0FFC0001FF80
0FF80000FF80
1FF000007FC0
1FF000003FC0
3FE000003FE0
3FC000001FE0
3FC000001FE0
7FC000000FE0
7F8000000FF0
7F8000000FF0
7F8000000FF0
7F8000000FF0
7FFFFFFFFFF0
7FFFFFFFFFF0
FFFFFFFFFFF0
FFFFFFFFFFF0
FFFFFFFFFFF0
FFFFFFFFFFF0
FF8000000000
7F8000000000
7F8000000000
7F8000000000
7F8000000000
7FC000000000
3FC000000000
3FC000000C00
3FE000001F80
1FF000003FE0
1FF000003FE0
0FF80000FFC0
0FFE0001FFC0
07FF0007FF80
03FFF03FFF00
01FFFFFFFE00
00FFFFFFFC00
007FFFFFF800
003FFFFFF000
000FFFFFC000
0003FFFF0000
00003FF00000
ENDCHAR
STARTCHAR 00EA
ENCODING 234
SWIDTH 592 0
DWIDTH 51 0
BBX 44 67 3 -1
BITMAP
00001FE00000
00003FE00000
00007FF00000
0000FFF80000
0001FFFC0000
0001FDFE0000
0003F8FF0000
0007F07F8000
000FF03F8000
001FE01FC000
003FC00FE000
003F800FF000
000000000000
000000000000
000000000000
000000000000
000000000000
000000000000
00003FF00000
0003FFFE0000
000FFFFF8000
003FFFFFE000
007FFFFFF000
00FFFFFFF800
01FFFFFFFC00
03FFE00FFE00
07FF0003FF00
0FFC0001FF80
0FF80000FF80
1FF000007FC0
1FF000003FC0
3FE000003FE0
3FC000001FE0
3FC000001FE0
7FC000000FE0
7F8000000FF0
7F8000000FF0
7F8000000FF0
7F8000000FF0
7FFFFFFFFFF0
7FFFFFFFFFF0
FFFFFFFFFFF0
FFFFFFFFFFF0
FFFFFFFFFFF0
FFFFFFFFFFF0
FF8000000000
7F8000000000
7F8000000000
7F8000000000
7F8000000000
7FC000000000
3FC000000000
3FC000000C00
3FE000001F80
1FF000003FE0
1FF000003FE0
0FF80000FFC0
0FFE0001FFC0
07FF0007FF80
03FFF03FFF00
01FFFFFFFE00
00FFFFFFFC00
007FFFFFF800
003FFFFFF000
000FFFFFC000
0003FFFF0000
00003FF00000
ENDCHAR
STARTCHAR 00EB
ENCODING 235
SWIDTH 592 0
DWIDTH 51 0
BBX 44 64 3 -1
BITMAP
001FC01FE000
001FC01FE000
001FC01FE000
001FC01FE000
001FC01FE000
001FC01FE000
001FC01FE000
001FC01FE000
000000000000
000000000000
000000000000
000000000000
000000000000
000000000000
000000000000
00003FF00000
0003FFFE0000
000FFFFF8000
003FFFFFE000
007FFFFFF000
00FFFFFFF800
01FFFFFFFC00
03FFE00FFE00
07FF0003FF00
0FFC0001FF80
0FF80000FF80
1FF000007FC0
1FF000003FC0
3FE000003FE0
3FC000001FE0
3FC000001FE0
7FC000000FE0
7F8000000FF0
7F8000000FF0
7F8000000FF0
7F8000000FF0
7FFFFFFFFFF0
7FFFFFFFFFF0
FFFFFFFFFFF0
FFFFFFFFFFF0
FFFFFFFFFFF0
FFFFFFFFFFF0
FF8000000000
7F8000000000
7F8000000000
7F8000000000
7F8000000000
7FC000000000
3FC000000000
3FC000000C00
3FE000001F80
1FF000003FE0
1FF000003FE0
0FF80000FFC0
0FFE0001FFC0
07FF0007FF80
03FFF03FFF00
01FFFFFFFE00
00FFFFFFFC00
007FFFFFF800
003FFFFFF000
000FFFFFC000
0003FFFF0000
00003FF00000
ENDCHAR
STARTCHAR 00EC
ENCODING 236
SWIDTH 243 0
DWIDTH 21 0
BBX 13 68 2 0
BITMAP
FC00
7E00
7E00
7F00
3F00
3F00
1F80
1F80
1FC0
0FC0
0FC0
07E0
07E0
07F0
0000
0000
0000
0000
0000
0000
0000
07F8
07F8
07F8
07F8
07F8
07F8
07F8
07F8
07F8
07F8
07F8
07F8
07F8
07F8
07F8
07F8
07F8
07F8
07F8
07F8
07F8
07F8
07F8
07F8
07F8
07F8
07F8
07F8
07F8
07F8
07F8
07F8
07F8
07F8
07F8
07F8
07F8
07F8
07F8
07F8
07F8
07F8
07F8
07F8
07F8
07F8
07F8
ENDCHAR
STARTCHAR 00ED
ENCODING 237
SWIDTH 243 0
DWIDTH 21 0
BBX 12 68 7 0
BITMAP
03F0
03F0
07E0
07E0
0FE0
0FC0
0FC0
1F80
1F80
3F80
3F00
3F00
7E00
7E00
0000
0000
0000
0000
0000
0000
0000
FF00
FF00
FF00
FF00
FF00
FF00
FF00
FF00
FF00
FF00
FF00
FF00
FF00
FF00
FF00
FF00
FF00
FF00
FF00
FF00
FF00
FF00
FF00
FF00
FF00
FF00
FF00
FF00
FF00
FF00
FF00
FF00
FF00
FF00
FF00
FF00
FF00
FF00
FF00
FF00
FF00
FF00
FF00
FF00
FF00
FF00
FF00
ENDCHAR
STARTCHAR 00EE
ENCODING 238
SWIDTH 243 0
DWIDTH 21 0
BBX 27 66 -2 0
BITMAP
007F8000
00FFC000
01FFE000
03FFF000
03FFF800
07F3F800
0FE1FC00
1FC0FE00
3FC0FF00
7F807F80
FF003FC0
FE001FE0
00000000
00000000
00000000
00000000
00000000
00000000
00000000
007F8000
007F8000
007F8000
007F8000
007F8000
007F8000
007F8000
007F8000
007F8000
007F8000
007F8000
007F8000
007F8000
007F8000
007F8000
007F8000
007F8000
007F8000
007F8000
007F8000
007F8000
007F8000
007F8000
007F8000
007F8000
007F8000
007F8000
007F8000
007F8000
007F8000
007F8000
007F8000
007F8000
007F8000
007F8000
007F8000
007F8000
007F8000
007F8000
007F8000
007F8000
007F8000
007F8000
007F8000
007F8000
007F8000
007F8000
ENDCHAR
STARTCHAR 00EF
ENCODING 239
SWIDTH 243 0
DWIDTH 21 0
BBX 25 63 -2 0
BITMAP
FF007F80
FF007F80
FF007F80
FF007F80
FF007F80
FF007F80
FF007F80
FF007F80
00000000
00000000
00000000
00000000
00000000
00000000
00000000
00000000
007F8000
007F8000
007F8000
007F8000
007F8000
007F8000
007F8000
007F8000
007F8000
007F8000
007F8000
007F8000
007F8000
007F8000
007F8000
007F8000
007F8000
007F8000
007F8000
007F8000
007F8000
007F8000
007F8000
007F8000
007F8000
007F8000
007F8000
007F8000
007F8000
007F8000
007F8000
007F8000
007F8000
007F8000
007F8000
007F8000
007F8000
007F8000
007F8000
007F8000
007F8000
007F8000
007F8000
007F8000
007F8000
007F8000
007F8000
ENDCHAR
STARTCHAR 00F0
ENCODING 240
SWIDTH 592 0
DWIDTH 51 0
BBX 44 68 3 -1
BITMAP
000000008000
00000001C000
00000003F000
00007C07F800
0000FFCFF000
0000FFFFE000
0000FFFFE000
0000FFFFC000
0000FFFF8000
00001FFFC000
000001FFE000
000003FFF000
000003FFF800
000007FFF800
00000FF7FC00
00000FE1FE00
000007C0FE00
00000380FF00
000001007F00
000000003F80
000000003F80
000000001F80
00007FE01FC0
0003FFFC0FC0
001FFFFF0FC0
003FFFFFCFE0
00FFFFFFEFE0
01FFFFFFFFE0
03FFFFFFFFE0
07FFC03FFFE0
07FE0007FFE0
0FFC0001FFF0
1FF80000FFF0
1FF000007FF0
3FE000003FF0
3FC000003FF0
3FC000001FF0
7F8000001FF0
7F8000001FF0
7F8000000FF0
7F8000000FF0
7F0000000FF0
7F0000000FF0
FF0000000FF0
FF0000000FF0
FF0000000FF0
FF0000000FF0
7F0000000FF0
7F0000000FF0
7F8000000FF0
7F8000000FF0
7F8000001FE0
7F8000001FE0
3FC000001FE0
3FC000003FE0
3FE000003FC0
1FF000007FC0
1FF80000FF80
0FFC0001FF80
07FE0007FF00
07FFC03FFE00
03FFFFFFFC00
01FFFFFFFC00
00FFFFFFF000
003FFFFFE000
001FFFFF8000
0003FFFE0000
00007FF00000
ENDCHAR
STARTCHAR 00F1
ENCODING 241
SWIDTH 603 0
DWIDTH 52 0
BBX 41 65 6 0
BITMAP
003F00000000
007FC00FC000
00FFF007C000
01FFFC0FC000
01FFFF0FC000
03FFFFFFC000
03F0FFFF8000
03F03FFF8000
03F00FFF0000
03F003FE0000
000000FC0000
000000000000
000000000000
000000000000
000000000000
000000000000
000000000000
00007FE00000
FE03FFFC0000
FE0FFFFF0000
FE1FFFFFC000
FE7FFFFFE000
FEFFFFFFF000
FFFFFFFFF000
FFFFC3FFF800
FFFE003FFC00
FFF8000FFC00
FFF00007FE00
FFE00003FE00
FFC00003FE00
FFC00001FF00
FF800001FF00
FF800000FF00
FF800000FF00
FF000000FF80
FF0000007F80
FF0000007F80
FF0000007F80
FF0000007F80
FF0000007F80
FF0000007F80
FF0000007F80
FF0000007F80
FF0000007F80
FF0000007F80
FF0000007F80
FF0000007F80
FF0000007F80
FF0000007F80
FF0000007F80
FF0000007F80
FF0000007F80
FF0000007F80
FF0000007F80
FF0000007F80
FF0000007F80
FF0000007F80
FF0000007F80
FF0000007F80
FF0000007F80
FF0000007F80
FF0000007F80
FF0000007F80
FF0000007F80
FF0000007F80
ENDCHAR
STARTCHAR 00F2
ENCODING 242
SWIDTH 603 0
DWIDTH 52 0
BBX 45 69 3 -1
BITMAP
0003F0000000
0003F8000000
0001F8000000
0001F8000000
0001FC000000
0000FC000000
0000FE000000
00007E000000
00007E000000
00007F000000
00003F000000
00003F800000
00001F800000
00001F800000
000000000000
000000000000
000000000000
000000000000
000000000000
000000000000
00003FF00000
0003FFFE0000
000FFFFFC000
003FFFFFE000
007FFFFFF800
00FFFFFFFC00
01FFFFFFFE00
03FFF87FFF00
07FF8007FF80
0FFE0001FF80
0FFC0000FFC0
1FF800007FC0
1FF000003FE0
3FE000001FE0
3FE000001FF0
3FC000000FF0
7FC000000FF0
7F8000000FF8
7F8000000FF8
7F80000007F8
7F80000007F8
7F80000007F8
FF80000007F8
FF80000007F8
FF80000007F8
FF80000007F8
FF80000007F8
7F80000007F8
7F80000007F8
7F80000007F8
7F8000000FF8
7F8000000FF0
7FC000000FF0
3FC000000FF0
3FE000001FF0
3FE000001FE0
1FF000003FE0
1FF800007FC0
0FFC0000FFC0
0FFE0001FF80
07FF8007FF80
03FFF07FFF00
01FFFFFFFE00
00FFFFFFFC00
007FFFFFF800
003FFFFFE000
000FFFFFC000
0003FFFF0000
00003FF00000
ENDCHAR
STARTCHAR 00F3
ENCODING 243
SWIDTH 603 0
DWIDTH 52 0
BBX 45 69 3 -1
BITMAP
0000007E0000
0000007E0000
000000FE0000
000000FC0000
000000FC0000
000001F80000
000001F80000
000003F80000
000003F00000
000003F00000
000007E00000
000007E00000
00000FE00000
00000FC00000
000000000000
000000000000
000000000000
000000000000
000000000000
000000000000
00003FF00000
0003FFFE0000
000FFFFFC000
003FFFFFE000
007FFFFFF800
00FFFFFFFC00
01FFFFFFFE00
03FFF87FFF00
07FF8007FF80
0FFE0001FF80
0FFC0000FFC0
1FF800007FC0
1FF000003FE0
3FE000001FE0
3FE000001FF0
3FC000000FF0
7FC000000FF0
7F8000000FF8
7F8000000FF8
7F80000007F8
7F80000007F8
7F80000007F8
FF80000007F8
FF80000007F8
FF80000007F8
FF80000007F8
FF80000007F8
7F80000007F8
7F80000007F8
7F80000007F8
7F8000000FF8
7F8000000FF0
7FC000000FF0
3FC000000FF0
3FE000001FF0
3FE000001FE0
1FF000003FE0
1FF800007FC0
0FFC0000FFC0
0FFE0001FF80
07FF8007FF80
03FFF07FFF00
01FFFFFFFE00
00FFFFFFFC00
007FFFFFF800
003FFFFFE000
000FFFFFC000
0003FFFF0000
00003FF00000
ENDCHAR
STARTCHAR 00F4
ENCODING 244
SWIDTH 603 0
DWIDTH 52 0
BBX 45 67 3 -1
BITMAP
00001FE00000
00003FE00000
00007FF00000
0000FFF80000
0000FFFC0000
0001FDFE0000
0003F8FF0000
0007F07F8000
000FF03F8000
001FE01FC000
003FC00FE000
003F800FF000
004000000000
000000000000
000000000000
000000000000
000000000000
000000000000
00003FF00000
0003FFFE0000
000FFFFFC000
003FFFFFE000
007FFFFFF800
00FFFFFFFC00
01FFFFFFFE00
03FFF87FFF00
07FF8007FF80
0FFE0001FF80
0FFC0000FFC0
1FF800007FC0
1FF000003FE0
3FE000001FE0
3FE000001FF0
3FC000000FF0
7FC000000FF0
7F8000000FF8
7F8000000FF8
7F80000007F8
7F80000007F8
7F80000007F8
FF80000007F8
FF80000007F8
FF80000007F8
FF80000007F8
FF80000007F8
7F80000007F8
7F80000007F8
7F80000007F8
7F8000000FF8
7F8000000FF0
7FC000000FF0
3FC000000FF0
3FE000001FF0
3FE000001FE0
1FF000003FE0
1FF800007FC0
0FFC0000FFC0
0FFE0001FF80
07FF8007FF80
03FFF07FFF00
01FFFFFFFE00
00FFFFFFFC00
007FFFFFF800
003FFFFFE000
000FFFFFC000
0003FFFF0000
00003FF00000
ENDCHAR
STARTCHAR 00F5
ENCODING 245
SWIDTH 603 0
DWIDTH 52 0
BBX 45 66 3 -1
BITMAP
0007E0000000
001FF801F000
001FFE01F800
003FFF81F800
007FFFE1F800
007FFFFFF800
007E1FFFF000
007E07FFF000
007C01FFE000
007C00FFC000
0000001F8000
000000000000
000000000000
000000000000
000000000000
000000000000
000000000000
00003FF00000
0003FFFE0000
000FFFFFC000
003FFFFFE000
007FFFFFF800
00FFFFFFFC00
01FFFFFFFE00
03FFF87FFF00
07FF8007FF80
0FFE0001FF80
0FFC0000FFC0
1FF800007FC0
1FF000003FE0
3FE000001FE0
3FE000001FF0
3FC000000FF0
7FC000000FF0
7F8000000FF8
7F8000000FF8
7F80000007F8
7F80000007F8
7F80000007F8
FF80000007F8
FF80000007F8
FF80000007F8
FF80000007F8
FF80000007F8
7F80000007F8
7F80000007F8
7F80000007F8
7F8000000FF8
7F8000000FF0
7FC000000FF0
3FC000000FF0
3FE000001FF0
3FE000001FE0
1FF000003FE0
1FF800007FC0
0FFC0000FFC0
0FFE0001FF80
07FF8007FF80
03FFF07FFF00
01FFFFFFFE00
00FFFFFFFC00
007FFFFFF800
003FFFFFE000
000FFFFFC000
0003FFFF0000
00003FF00000
ENDCHAR
STARTCHAR 00F6
ENCODING 246
SWIDTH 603 0
DWIDTH 52 0
BBX 45 64 3 -1
BITMAP
001FC01FE000
001FC01FE000
001FC01FE000
001FC01FE000
001FC01FE000
001FC01FE000
001FC01FE000
001FC01FE000
000000000000
000000000000
000000000000
000000000000
000000000000
000000000000
000000000000
00003FF00000
0003FFFE0000
000FFFFFC000
003FFFFFE000
007FFFFFF800
00FFFFFFFC00
01FFFFFFFE00
03FFF87FFF00
07FF8007FF80
0FFE0001FF80
0FFC0000FFC0
1FF800007FC0
1FF000003FE0
3FE000001FE0
3FE000001FF0
3FC000000FF0
7FC000000FF0
7F8000000FF8
7F8000000FF8
7F80000007F8
7F80000007F8
7F80000007F8
FF80000007F8
FF80000007F8
FF80000007F8
FF80000007F8
FF80000007F8
7F80000007F8
7F80000007F8
7F80000007F8
7F8000000FF8
7F8000000FF0
7FC000000FF0
3FC000000FF0
3FE000001FF0
3FE000001FE0
1FF000003FE0
1FF800007FC0
0FFC0000FFC0
0FFE0001FF80
07FF8007FF80
03FFF07FFF00
01FFFFFFFE00
00FFFFFFFC00
007FFFFFF800
003FFFFFE000
000FFFFFC000
0003FFFF0000
00003FF00000
ENDCHAR
STARTCHAR 00F7
ENCODING 247
SWIDTH 545 0
DWIDTH 47 0
BBX 36 33 5 15
BITMAP
0003FC0000
0003FC0000
0003FC0000
0003FC0000
0003FC0000
0003FC0000
0003FC0000
0003FC0000
0000000000
0000000000
0000000000
0000000000
0000000000
0000000000
FFFFFFFFF0
FFFFFFFFF0
FFFFFFFFF0
FFFFFFFFF0
FFFFFFFFF0
FFFFFFFFF0
0000000000
0000000000
0000000000
0000000000
0000000000
0003FC0000
0003FC0000
0003FC0000
0003FC0000
0003FC0000
0003FC0000
0003FC0000
0003FC0000
ENDCHAR
STARTCHAR 00F8
ENCODING 248
SWIDTH 603 0
DWIDTH 52 0
BBX 48 49 2 -1
BITMAP
00001FF80020
0001FFFF8070
0007FFFFE0F8
001FFFFFF9FC
003FFFFFFFFE
007FFFFFFFFF
00FFFFFFFFFE
01FFFC1FFFFC
03FFC003FFF8
07FF0000FFF0
07FE00007FE0
0FFC00007FF0
0FF80000FFF0
1FF00001FFF0
1FF00003FFF8
1FE00007FFF8
3FE0000FF7F8
3FC0001FE7FC
3FC0003FC7FC
3FC0007F83FC
3FC000FF03FC
3FC001FE03FC
7FC003FC03FC
7FC007F803FC
7FC00FF003FC
7FC01FE003FC
7FC03FC003FC
3FC07F8003FC
3FC0FF0003FC
3FC1FE0003FC
3FC3FC0007FC
3FC7F80007F8
3FFFF00007F8
1FFFE00007F8
1FFFC0000FF8
1FFF80000FF0
0FFF00001FF0
0FFE00003FE0
07FE00007FE0
0FFF0000FFC0
1FFFC003FFC0
3FFFF83FFF80
7FFFFFFFFF00
FFFFFFFFFE00
7FFFFFFFFC00
3F9FFFFFF000
1F07FFFFE000
0E01FFFF8000
04003FF80000
ENDCHAR
STARTCHAR 00F9
ENCODING 249
SWIDTH 603 0
DWIDTH 52 0
BBX 41 69 5 -1
BITMAP
0007E0000000
0007E0000000
0007F0000000
0003F0000000
0003F8000000
0001F8000000
0001F8000000
0001FC000000
0000FC000000
0000FE000000
00007E000000
00007E000000
00007F000000
00003F000000
000000000000
000000000000
000000000000
000000000000
000000000000
000000000000
000000000000
FF0000007F80
FF0000007F80
FF0000007F80
FF0000007F80
FF0000007F80
FF0000007F80
FF0000007F80
FF0000007F80
FF0000007F80
FF0000007F80
FF0000007F80
FF0000007F80
FF0000007F80
FF0000007F80
FF0000007F80
FF0000007F80
FF0000007F80
FF0000007F80
FF0000007F80
FF0000007F80
FF0000007F80
FF0000007F80
FF0000007F80
FF0000007F80
FF0000007F80
FF0000007F80
FF0000007F80
FF0000007F80
FF0000007F80
FF0000007F80
FF8000007F80
7F800000FF80
7F800000FF80
7FC00000FF80
7FC00001FF80
3FE00001FF80
3FE00003FF80
3FF00007FF80
1FF8000FFF80
1FFE003FFF80
0FFFC1FFFF80
07FFFFFFFF80
07FFFFFFBF80
03FFFFFF3F80
00FFFFFC3F80
007FFFF83F80
001FFFE03F80
0003FF000000
ENDCHAR
STARTCHAR 00FA
ENCODING 250
SWIDTH 603 0
DWIDTH 52 0
BBX 41 69 5 -1
BITMAP
000003F80000
000003F00000
000003F00000
000007E00000
000007E00000
00000FE00000
00000FC00000
00000FC00000
00001FC00000
00001F800000
00003F800000
00003F000000
00003F000000
00007F000000
000000000000
000000000000
000000000000
000000000000
000000000000
000000000000
000000000000
FF0000007F80
FF0000007F80
FF0000007F80
FF0000007F80
FF0000007F80
FF0000007F80
FF0000007F80
FF0000007F80
FF0000007F80
FF0000007F80
FF0000007F80
FF0000007F80
FF0000007F80
FF0000007F80
FF0000007F80
FF0000007F80
FF0000007F80
FF0000007F80
FF0000007F80
FF0000007F80
FF0000007F80
FF0000007F80
FF0000007F80
FF0000007F80
FF0000007F80
FF0000007F80
FF0000007F80
FF0000007F80
FF0000007F80
FF0000007F80
FF8000007F80
7F800000FF80
7F800000FF80
7FC00000FF80
7FC00001FF80
3FE00001FF80
3FE00003FF80
3FF00007FF80
1FF8000FFF80
1FFE003FFF80
0FFFC1FFFF80
07FFFFFFFF80
07FFFFFFBF80
03FFFFFF3F80
00FFFFFC3F80
007FFFF83F80
001FFFE03F80
0003FF000000
ENDCHAR
STARTCHAR 00FB
ENCODING 251
SWIDTH 603 0
DWIDTH 52 0
BBX 41 67 5 -1
BITMAP
0000FF800000
0000FF800000
0001FFC00000
0003FFE00000
0007F7F00000
000FF7F80000
001FE3FC0000
003FC1FE0000
003F80FE0000
007F007F0000
00FE003F8000
01FC003FC000
000000000000
000000000000
000000000000
000000000000
000000000000
000000000000
000000000000
FF0000007F80
FF0000007F80
FF0000007F80
FF0000007F80
FF0000007F80
FF0000007F80
FF0000007F80
FF0000007F80
FF0000007F80
FF0000007F80
FF0000007F80
FF0000007F80
FF0000007F80
FF0000007F80
FF0000007F80
FF0000007F80
FF0000007F80
FF0000007F80
FF0000007F80
FF0000007F80
FF0000007F80
FF0000007F80
FF0000007F80
FF0000007F80
FF0000007F80
FF0000007F80
FF0000007F80
FF0000007F80
FF0000007F80
FF0000007F80
FF8000007F80
7F800000FF80
7F800000FF80
7FC00000FF80
7FC00001FF80
3FE00001FF80
3FE00003FF80
3FF00007FF80
1FF8000FFF80
1FFE003FFF80
0FFFC1FFFF80
07FFFFFFFF80
07FFFFFFBF80
03FFFFFF3F80
00FFFFFC3F80
007FFFF83F80
001FFFE03F80
0003FF000000
ENDCHAR
STARTCHAR 00FC
ENCODING 252
SWIDTH 603 0
DWIDTH 52 0
BBX 41 64 5 -1
BITMAP
00FF007F8000
00FF007F8000
00FF007F8000
00FF007F8000
00FF007F8000
00FF007F8000
00FF007F8000
00FF007F8000
000000000000
000000000000
000000000000
000000000000
000000000000
000000000000
000000000000
000000000000
FF0000007F80
FF0000007F80
FF0000007F80
FF0000007F80
FF0000007F80
FF0000007F80
FF0000007F80
FF0000007F80
FF0000007F80
FF0000007F80
FF0000007F80
FF0000007F80
FF0000007F80
FF0000007F80
FF0000007F80
FF0000007F80
FF0000007F80
FF0000007F80
FF0000007F80
FF0000007F80
FF0000007F80
FF0000007F80
FF0000007F80
FF0000007F80
FF0000007F80
FF0000007F80
FF0000007F80
FF0000007F80
FF0000007F80
FF0000007F80
FF8000007F80
7F800000FF80
7F800000FF80
7FC00000FF80
7FC00001FF80
3FE00001FF80
3FE00003FF80
3FF00007FF80
1FF8000FFF80
1FFE003FFF80
0FFFC1FFFF80
07FFFFFFFF80
07FFFFFFBF80
03FFFFFF3F80
00FFFFFC3F80
007FFFF83F80
001FFFE03F80
0003FF000000
ENDCHAR
STARTCHAR 00FD
ENCODING 253
SWIDTH 534 0
DWIDTH 46 0
BBX 44 88 1 -20
BITMAP
000000FE0000
000000FC0000
000000FC0000
000001FC0000
000001F80000
000001F80000
000003F00000
000003F00000
000007F00000
000007E00000
000007E00000
00000FC00000
00000FC00000
00001FC00000
000000000000
000000000000
000000000000
000000000000
000000000000
000000000000
000000000000
FF8000000FF0
7F8000000FF0
7F8000000FE0
3FC000001FE0
3FC000001FE0
1FE000003FC0
1FE000003FC0
1FE000003F80
0FF000007F80
0FF000007F80
07F800007F00
07F80000FF00
07F80000FF00
03FC0001FE00
03FC0001FE00
01FC0001FC00
01FE0003FC00
01FE0003FC00
00FF0003F800
00FF0007F800
007F0007F800
007F800FF000
007F800FF000
003FC00FE000
003FC01FE000
001FC01FE000
001FE01FC000
001FE03FC000
000FF03FC000
000FF07F8000
0007F07F8000
0007F87F0000
0007F8FF0000
0003FCFF0000
0003FCFE0000
0001FDFE0000
0001FFFC0000
0000FFFC0000
0000FFFC0000
0000FFF80000
00007FF80000
00007FF80000
00003FF00000
00003FF00000
00003FE00000
00001FE00000
00001FE00000
00001FC00000
00003FC00000
00003FC00000
00003F800000
00007F800000
00007F000000
00007F000000
0000FF000000
0000FE000000
0001FE000000
0001FE000000
0001FC000000
0003FC000000
0003F8000000
0003F8000000
0007F8000000
0007F0000000
000FF0000000
000FF0000000
000FE0000000
ENDCHAR
STARTCHAR 00FE
ENCODING 254
SWIDTH 603 0
DWIDTH 52 0
BBX 42 82 6 -20
BITMAP
FF0000000000
FF0000000000
FF0000000000
FF0000000000
FF0000000000
FF0000000000
FF0000000000
FF0000000000
FF0000000000
FF0000000000
FF0000000000
FF0000000000
FF0000000000
FF0000000000
FF007FC00000
FF03FFF80000
FF1FFFFE0000
FF3FFFFF8000
FF7FFFFFC000
FFFFFFFFE000
FFFFFFFFF000
FFFF80FFF800
FFFC001FFC00
FFF0000FFC00
FFE00007FE00
FFC00003FF00
FFC00001FF00
FF800000FF00
FF800000FF80
FF0000007F80
FF0000007F80
FF0000007FC0
FE0000007FC0
FE0000003FC0
FE0000003FC0
FE0000003FC0
FE0000003FC0
FE0000003FC0
FE0000003FC0
FE0000003FC0
FE0000003FC0
FE0000003FC0
FE0000003FC0
FE0000003FC0
FE0000007FC0
FF0000007F80
FF0000007F80
FF000000FF80
FF800000FF80
FF800000FF00
FFC00001FF00
FFC00003FE00
FFE00007FE00
FFF0000FFC00
FFFC001FFC00
FFFF80FFF800
FFFFFFFFF000
FFFFFFFFE000
FF7FFFFFC000
FF3FFFFF8000
FF1FFFFE0000
FF03FFF80000
FF007FC00000
FF0000000000
FF0000000000
FF0000000000
FF0000000000
FF0000000000
FF0000000000
FF0000000000
FF0000000000
FF0000000000
FF0000000000
FF0000000000
FF0000000000
FF0000000000
FF0000000000
FF0000000000
FF0000000000
FF0000000000
FF0000000000
FF0000000000
ENDCHAR
STARTCHAR 00FF
ENCODING 255
SWIDTH 534 0
DWIDTH 46 0
BBX 44 83 1 -20
BITMAP
003FC01FE000
003FC01FE000
003FC01FE000
003FC01FE000
003FC01FE000
003FC01FE000
003FC01FE000
003FC01FE000
000000000000
000000000000
000000000000
000000000000
000000000000
000000000000
000000000000
000000000000
FF8000000FF0
7F8000000FF0
7F8000000FE0
3FC000001FE0
3FC000001FE0
1FE000003FC0
1FE000003FC0
1FE000003F80
0FF000007F80
0FF000007F80
07F800007F00
07F80000FF00
07F80000FF00
03FC0001FE00
03FC0001FE00
01FC0001FC00
01FE0003FC00
01FE0003FC00
00FF0003F800
00FF0007F800
007F0007F800
007F800FF000
007F800FF000
003FC00FE000
003FC01FE000
001FC01FE000
001FE01FC000
001FE03FC000
000FF03FC000
000FF07F8000
0007F07F8000
0007F87F0000
0007F8FF0000
0003FCFF0000
0003FCFE0000
0001FDFE0000
0001FFFC0000
0000FFFC0000
0000FFFC0000
0000FFF80000
00007FF80000
00007FF80000
00003FF00000
00003FF00000
00003FE00000
00001FE00000
00001FE00000
00001FC00000
00003FC00000
00003FC00000
00003F800000
00007F800000
00007F000000
00007F000000
0000FF000000
0000FE000000
0001FE000000
0001FE000000
0001FC000000
0003FC000000
0003F8000000
0003F8000000
0007F8000000
0007F0000000
000FF0000000
000FF0000000
000FE0000000
ENDCHAR
ENDFONT
